<svg width="21" height="18" viewBox="0 0 21 18" fill="none" xmlns="http://www.w3.org/2000/svg">
<path opacity="0.5" d="M20.9712 2.01761C20.1999 2.35966 19.3701 2.591 18.4999 2.69432C19.3884 2.162 20.0702 1.31973 20.3921 0.31445C19.5607 0.807622 18.6395 1.16539 17.6599 1.35823C16.875 0.522372 15.7568 0 14.5186 0C12.1429 0 10.2161 1.92681 10.2161 4.30251C10.2161 4.63974 10.2543 4.96798 10.3281 5.28308C6.75233 5.10371 3.58184 3.39092 1.45962 0.787086C1.08934 1.4224 0.87693 2.162 0.87693 2.95037C0.87693 4.44272 1.63706 5.7602 2.7909 6.53157C2.08596 6.50943 1.42208 6.31595 0.842276 5.99283C0.841955 6.01112 0.841955 6.02941 0.841955 6.04738C0.841955 8.13205 2.32564 9.87083 4.29352 10.2658C3.93287 10.3646 3.552 10.4169 3.16022 10.4169C2.88235 10.4169 2.61314 10.3903 2.35067 10.3403C2.89807 12.0492 4.48668 13.2932 6.36985 13.3282C4.89707 14.4823 3.04214 15.17 1.02581 15.17C0.679275 15.17 0.335948 15.1497 0 15.1096C1.90306 16.3308 4.16517 17.0429 6.59478 17.0429C14.5086 17.0429 18.8365 10.4869 18.8365 4.80081C18.8365 4.61439 18.8323 4.42861 18.824 4.24443C19.6653 3.63799 20.3946 2.88042 20.9712 2.01761Z" fill="white"/>
</svg>
