<svg width="24" height="14" viewBox="0 0 24 14" fill="none" xmlns="http://www.w3.org/2000/svg">
<path opacity="0.5" d="M12.9767 13.4272H11.5639C11.5639 13.4272 8.44665 13.6149 5.70164 10.7569C2.70795 7.6397 0.0640027 1.45403 0.0640027 1.45403C0.0640027 1.45403 -0.0884092 1.04845 0.0771582 0.8524C0.263261 0.631965 0.77023 0.617844 0.77023 0.617844L4.14736 0.595706C4.14736 0.595706 4.46566 0.648969 4.69347 0.816141C4.88118 0.954113 4.98642 1.21209 4.98642 1.21209C4.98642 1.21209 5.53222 2.59246 6.25513 3.84127C7.66598 6.27922 8.32312 6.81251 8.80218 6.55132C9.50006 6.17045 9.29086 3.10489 9.29086 3.10489C9.29086 3.10489 9.30369 1.99212 8.93951 1.4967C8.65746 1.11262 8.12547 1.00064 7.89059 0.969194C7.70064 0.943846 8.01252 0.502654 8.41681 0.30468C9.02454 0.00691465 10.0978 -0.0100913 11.3659 0.00306487C12.3539 0.0130121 12.6381 0.0746171 13.0245 0.167989C13.9208 0.384403 13.8928 1.07787 13.8325 2.57408L13.8325 2.57414C13.8145 3.02121 13.7936 3.53995 13.7936 4.13904C13.7936 4.27384 13.7897 4.41752 13.7856 4.56533C13.7647 5.33162 13.7407 6.20895 14.245 6.53496C14.5037 6.70181 15.1364 6.55998 16.7189 3.87272C17.4691 2.5992 18.0316 1.10171 18.0316 1.10171C18.0316 1.10171 18.1545 0.834751 18.3454 0.720201C18.5408 0.603405 18.8042 0.639343 18.8042 0.639343L22.3582 0.617203C22.3582 0.617203 23.426 0.48982 23.599 0.971761C23.7803 1.47777 23.1998 2.6592 21.7479 4.59435C20.369 6.43213 19.699 7.10762 19.762 7.70591C19.8069 8.13234 20.2242 8.51955 21.0226 9.26045L21.0779 9.31174C22.8273 10.9355 23.2935 11.7881 23.4043 11.9908C23.4133 12.0072 23.4199 12.0193 23.4247 12.0272C24.2076 13.3255 22.5565 13.4272 22.5565 13.4272L19.4001 13.4711C19.4001 13.4711 18.7218 13.6056 17.8291 12.9924C17.3623 12.672 16.9059 12.1488 16.4711 11.6503L16.4711 11.6502C15.8063 10.8882 15.1919 10.1838 14.6676 10.3501C13.7878 10.6292 13.8154 12.5249 13.8154 12.5249C13.8154 12.5249 13.8218 12.9298 13.6213 13.1455C13.4034 13.3803 12.9767 13.4272 12.9767 13.4272Z" fill="white"/>
</svg>
