<svg width="28" height="577" viewBox="0 0 28 577" fill="none" xmlns="http://www.w3.org/2000/svg"><mask id="a" maskUnits="userSpaceOnUse" x="0" y="0" width="28" height="577"><path fill-rule="evenodd" clip-rule="evenodd" d="M3 0h1v196.035a3.502 3.502 0 012.677 4.935l15.206 15.206A3.5 3.5 0 1125 221.965v131.07a3.502 3.502 0 01-.5 6.965 3.493 3.493 0 01-2.611-1.169L5.83 374.889A3.502 3.502 0 014 380.965V577H2.999V380.965a3.502 3.502 0 111.978-6.638l16.349-16.349A3.502 3.502 0 0124 353.035v-131.07a3.502 3.502 0 01-2.677-4.935L6.117 201.824A3.5 3.5 0 113 196.035V0z" fill="#C4C4C4"/></mask><g mask="url(#a)"><path transform="matrix(-1 0 0 1 69 0)" fill="url(#paint0_linear)" d="M0 0h87v577H0z"/><circle r="27" transform="matrix(-1 0 0 1 26 356)" fill="url(#paint1_radial)"/><ellipse rx="40.5" ry="41" transform="matrix(-1 0 0 1 3.5 197)" fill="url(#paint2_radial)"/></g><defs><radialGradient id="paint1_radial" cx="0" cy="0" r="1" gradientUnits="userSpaceOnUse" gradientTransform="matrix(0 27 -27 0 27 27)"><stop stop-color="#70E5FF"/><stop offset="1" stop-color="#70E5FF" stop-opacity="0"/></radialGradient><radialGradient id="paint2_radial" cx="0" cy="0" r="1" gradientUnits="userSpaceOnUse" gradientTransform="matrix(0 41 -40.5 0 40.5 41)"><stop stop-color="#70E5FF"/><stop offset="1" stop-color="#70E5FF" stop-opacity="0"/></radialGradient><linearGradient id="paint0_linear" x1="43.5" y1="0" x2="43.5" y2="577" gradientUnits="userSpaceOnUse"><stop stop-color="#01194F" stop-opacity="0"/><stop offset=".384" stop-color="#09F" stop-opacity=".8"/><stop offset=".618" stop-color="#09F" stop-opacity=".8"/><stop offset="1" stop-color="#01194F" stop-opacity="0"/></linearGradient></defs></svg>