<svg width="28" height="577" viewBox="0 0 28 577" fill="none" xmlns="http://www.w3.org/2000/svg">
<mask id="mask0" mask-type="alpha" maskUnits="userSpaceOnUse" x="0" y="0" width="28" height="577">
<path fill-rule="evenodd" clip-rule="evenodd" d="M3 0H4V196.035C5.69615 196.278 7 197.737 7 199.5C7 200.025 6.88438 200.523 6.67721 200.97L21.883 216.176C22.5241 215.454 23.459 215 24.5 215C26.433 215 28 216.567 28 218.5C28 220.263 26.6961 221.722 25 221.965V353.035C26.6961 353.278 28 354.737 28 356.5C28 358.433 26.433 360 24.5 360C23.4621 360 22.5297 359.548 21.8887 358.831L5.83055 374.889C6.54821 375.53 7 376.462 7 377.5C7 379.263 5.69615 380.722 4 380.965V577H3V380.965C1.30385 380.722 0 379.263 0 377.5C0 375.567 1.567 374 3.5 374C4.02831 374 4.52929 374.117 4.9784 374.327L21.3266 357.978C21.1171 357.529 21 357.028 21 356.5C21 354.737 22.3039 353.278 24 353.035V221.965C22.3039 221.722 21 220.263 21 218.5C21 217.975 21.1156 217.477 21.3228 217.03L6.11701 201.824C5.47589 202.546 4.54102 203 3.5 203C1.567 203 0 201.433 0 199.5C0 197.737 1.30385 196.278 3 196.035V0Z" fill="#C4C4C4"/>
</mask>
<g mask="url(#mask0)">
<rect width="87" height="577" transform="matrix(-1 0 0 1 69 0)" fill="url(#paint0_linear)"/>
<circle r="27" transform="matrix(-1 0 0 1 26 356)" fill="url(#paint1_radial)"/>
<ellipse rx="40.5" ry="41" transform="matrix(-1 0 0 1 3.5 197)" fill="url(#paint2_radial)"/>
</g>
<defs>
<linearGradient id="paint0_linear" x1="43.5" y1="0" x2="43.5" y2="577" gradientUnits="userSpaceOnUse">
<stop stop-color="#01194F" stop-opacity="0"/>
<stop offset="0.383666" stop-color="#0099FF" stop-opacity="0.8"/>
<stop offset="0.618059" stop-color="#0099FF" stop-opacity="0.8"/>
<stop offset="1" stop-color="#01194F" stop-opacity="0"/>
</linearGradient>
<radialGradient id="paint1_radial" cx="0" cy="0" r="1" gradientUnits="userSpaceOnUse" gradientTransform="translate(27 27) rotate(90) scale(27)">
<stop stop-color="#70E5FF"/>
<stop offset="1" stop-color="#70E5FF" stop-opacity="0"/>
</radialGradient>
<radialGradient id="paint2_radial" cx="0" cy="0" r="1" gradientUnits="userSpaceOnUse" gradientTransform="translate(40.5 41) rotate(90) scale(41 40.5)">
<stop stop-color="#70E5FF"/>
<stop offset="1" stop-color="#70E5FF" stop-opacity="0"/>
</radialGradient>
</defs>
</svg>
