<svg width="44" height="40" viewBox="0 0 44 40" fill="none" xmlns="http://www.w3.org/2000/svg"><path fill-rule="evenodd" clip-rule="evenodd" d="M43.319 15.546c0-6.164-5.016-11.18-11.18-11.18a11.1 11.1 0 00-4.191.824V3.843H26.55V5.88c-.49.284-.958.6-1.397.953V3.319h-1.397v4.858a11.182 11.182 0 00-1.398 1.97V0h-1.397v10.146a11.183 11.183 0 00-1.398-1.97V3.32h-1.397v3.514a11.1 11.1 0 00-1.397-.953V3.843H15.37V5.19a11.1 11.1 0 00-4.192-.823C5.015 4.367 0 9.382 0 15.546c0 2.421.783 4.66 2.096 6.492v2.59h1.397v-.985c.436.414.9.799 1.398 1.139v2.642h1.397v-1.841c.45.22.916.416 1.398.575v4.759h1.397v-4.396c.523.1 1.06.155 1.605.179a11.176 11.176 0 00-.208 2.121C10.48 34.985 15.496 40 21.66 40c6.163 0 11.178-5.015 11.178-11.179 0-.726-.074-1.434-.207-2.121a11.19 11.19 0 001.605-.18v4.397h1.397v-4.759c.482-.16.947-.355 1.398-.575v1.84h1.397v-2.642c.498-.34.961-.724 1.397-1.139v.987h1.398v-2.59a11.108 11.108 0 002.096-6.493zm-32.14-9.782c4.918 0 8.989 3.652 9.67 8.384h-5.91l-.916 1.835-2.168-5.057-2.618 6.547-2.03-8.121-2.748 5.495H1.433c.36-5.067 4.588-9.083 9.746-9.083zm-9.746 10.48h3.89l1.445-2.888 2.162 8.647 2.97-7.427 2.026 4.725 1.877-3.755h5.158a9.83 9.83 0 01-.24 2.143c-4.528.38-8.293 3.464-9.671 7.632-5.1-.068-9.26-4.052-9.617-9.077zm20.226 22.359c-5.394 0-9.781-4.388-9.781-9.782s4.387-9.782 9.781-9.782c5.394 0 9.782 4.388 9.782 9.782s-4.388 9.782-9.782 9.782zM32.27 25.32c-1.379-4.168-5.143-7.252-9.67-7.631a9.828 9.828 0 01-.24-2.144c0-5.394 4.387-9.782 9.78-9.782 5.395 0 9.782 4.388 9.782 9.782 0 5.35-4.318 9.705-9.652 9.775zm-11.308-2.788v1.397h-2.096v9.782h2.096v1.397h1.397v-1.397a2.798 2.798 0 002.795-2.795 2.79 2.79 0 00-.948-2.096 2.788 2.788 0 00.948-2.096 2.798 2.798 0 00-2.795-2.795v-1.397h-1.397zm1.397 9.781h-2.096V29.52h2.096a1.4 1.4 0 011.398 1.397 1.4 1.4 0 01-1.398 1.397zm1.398-5.59a1.4 1.4 0 01-1.398 1.398h-2.096v-2.794h2.096a1.4 1.4 0 011.398 1.397zm-7.461-4.345a8.397 8.397 0 015.364-1.942c4.624 0 8.385 3.76 8.385 8.384a8.39 8.39 0 01-1.943 5.365l-1.073-.895a6.998 6.998 0 001.618-4.47 6.995 6.995 0 00-6.987-6.987c-1.63 0-3.216.575-4.47 1.618l-.894-1.073zm5.364 13.429a6.995 6.995 0 01-6.986-6.987c0-1.63.575-3.218 1.618-4.47l-1.073-.895a8.39 8.39 0 00-1.943 5.365c0 4.623 3.761 8.384 8.384 8.384a8.4 8.4 0 005.365-1.942l-.895-1.073a7 7 0 01-4.47 1.618zm10.48-12.714l-5.031-7.548 5.032-7.548 5.032 7.548-5.032 7.548zm-3.102-7.922l2.404.801v-4.407l-2.404 3.606zm2.404 4.354v-2.079l-1.782-.595 1.782 2.674zm3.18-2.673l-1.783.594v2.08l1.783-2.674zm-1.783-5.289v4.41l2.405-.803-2.405-3.606zM2.096 26.026h1.397v1.398H2.096v-1.398zm4.192 2.795H4.891v1.397h1.397v-1.397zm1.398 3.493h1.397v1.398H7.686v-1.398zm33.537-6.288h-1.398v1.398h1.398v-1.398zm-4.192 2.795h1.397v1.397H37.03v-1.397zm-1.398 3.493h-1.397v1.398h1.397v-1.398zM18.166.874h1.397V2.27h-1.397V.873zm6.987 0h-1.397V2.27h1.397V.873z" fill="url(#paint0_linear)"/><defs><linearGradient id="paint0_linear" x1="43.319" y1="20" x2="0" y2="20" gradientUnits="userSpaceOnUse"><stop stop-color="#F90"/><stop offset="1" stop-color="#FFE91A"/></linearGradient></defs></svg>