<svg width="40" height="40" viewBox="0 0 40 40" fill="none" xmlns="http://www.w3.org/2000/svg"><path fill-rule="evenodd" clip-rule="evenodd" d="M32.667 0h6.666c.369 0 .667.299.667.667v36a.667.667 0 01-.667.666h-6.666a.667.667 0 01-.667-.666V12.943l-2.667 2.666v21.058a.667.667 0 01-.666.666H22a.667.667 0 01-.667-.666V17.412l-2.666-1.333v20.588a.667.667 0 01-.667.666h-6.667a.667.667 0 01-.666-.666v-18.39L8 20.942v15.724a.667.667 0 01-.667.666H.667A.667.667 0 010 36.667v-20C0 16.298.299 16 .667 16h6.666c.369 0 .667.299.667.667v2.39l2.667-2.666V6c0-.368.298-.667.666-.667H18c.368 0 .667.299.667.667v8.588l2.666 1.333v-4.588c0-.368.299-.666.667-.666h6.667c.368 0 .666.298.666.666v2.391L32 11.057V.667c0-.368.298-.667.667-.667zM4.34 22.717l2.326-2.326v-3.058H1.333V36h5.334V22.276L5.283 23.66a1.3 1.3 0 01.05.341A1.333 1.333 0 114 22.667c.115.001.23.018.34.05zM12 16.943V36h5.333V15.412l-1.933-.967a1.321 1.321 0 01-.733.222 1.302 1.302 0 01-.341-.05L12 16.942zm3.991-3.692l1.342.67V6.667H12v8.39l1.383-1.383a1.303 1.303 0 01-.05-.34 1.334 1.334 0 012.658-.083zm6.676 4.828V36H28V16.943l-1.384 1.383c.032.11.05.225.05.34a1.334 1.334 0 01-2.657.083l-1.342-.67zm3.007-.695L28 15.057V12h-5.333v4.588l1.933.967c.217-.145.472-.222.733-.222.116.002.23.019.341.05zM33.334 36h5.333V1.333h-5.334v8.391l1.384-1.383a1.299 1.299 0 01-.05-.341A1.333 1.333 0 1136 9.333a1.3 1.3 0 01-.34-.05l-2.327 2.326V36zM.666 38.667h38.666a.667.667 0 010 1.333H.667a.667.667 0 010-1.333z" fill="url(#paint0_linear)"/><defs><linearGradient id="paint0_linear" x1="40" y1="20" x2="0" y2="20" gradientUnits="userSpaceOnUse"><stop stop-color="#F90"/><stop offset="1" stop-color="#FFE91A"/></linearGradient></defs></svg>