<svg width="269" height="249" viewBox="0 0 269 249" fill="none" xmlns="http://www.w3.org/2000/svg">
<path fill-rule="evenodd" clip-rule="evenodd" d="M266.115 152.793H266.613V125.9C267.457 125.779 268.106 125.053 268.106 124.175C268.106 123.298 267.457 122.572 266.613 122.451V85.5861C267.457 85.4654 268.106 84.7394 268.106 83.8618C268.106 82.8998 267.326 82.1199 266.364 82.1199C265.846 82.1199 265.38 82.3463 265.061 82.7057L260.107 79.2369C260.131 79.1232 260.143 79.0055 260.143 78.8849C260.143 78.0073 259.494 77.2813 258.65 77.1606V50.7474C259.494 50.6267 260.143 49.9007 260.143 49.0231C260.143 48.1456 259.494 47.4196 258.65 47.2988V3.46632C259.494 3.34558 260.143 2.61958 260.143 1.74203C260.143 0.779984 259.363 9.15527e-05 258.401 9.15527e-05C257.439 9.15527e-05 256.659 0.779984 256.659 1.74203C256.659 2.61958 257.308 3.34558 258.152 3.46632V47.2988C257.735 47.3585 257.365 47.5662 257.098 47.867L251.078 43.6517C251.147 43.4644 251.184 43.262 251.184 43.0508C251.184 42.1732 250.535 41.4472 249.691 41.3265V8.46092H249.194V41.3265C248.349 41.4472 247.7 42.1732 247.7 43.0508C247.7 44.0128 248.48 44.7927 249.442 44.7927C250.014 44.7927 250.521 44.5173 250.839 44.092L256.824 48.2825C256.718 48.5073 256.659 48.7583 256.659 49.0231C256.659 49.9007 257.308 50.6267 258.152 50.7474V77.1606C257.308 77.2813 256.659 78.0073 256.659 78.8849C256.659 79.8469 257.439 80.6268 258.401 80.6268C259.06 80.6268 259.634 80.2605 259.93 79.7203L264.787 83.1212C264.681 83.346 264.622 83.597 264.622 83.8618C264.622 84.7394 265.271 85.4654 266.115 85.5861V122.451C265.271 122.572 264.622 123.298 264.622 124.175C264.622 125.053 265.271 125.779 266.115 125.9V152.793Z" fill="url(#paint0_radial)"/>
<path fill-rule="evenodd" clip-rule="evenodd" d="M125.037 0H125.535V25.4001C126.379 25.5209 127.028 26.2469 127.028 27.1244C127.028 27.3892 126.969 27.6403 126.863 27.865L131.72 31.266C132.016 30.7258 132.59 30.3594 133.249 30.3594C134.211 30.3594 134.991 31.1393 134.991 32.1014C134.991 32.9789 134.342 33.7049 133.498 33.8257V60.2388C134.342 60.3596 134.991 61.0856 134.991 61.9631C134.991 62.228 134.932 62.479 134.826 62.7037L140.811 66.8943C141.128 66.4689 141.636 66.1936 142.207 66.1936C143.169 66.1936 143.949 66.9734 143.949 67.9355C143.949 68.813 143.3 69.539 142.456 69.6598V91.0783H141.959V69.6598C141.114 69.539 140.465 68.813 140.465 67.9355C140.465 67.7243 140.503 67.5219 140.572 67.3346L134.552 63.1193C134.285 63.4201 133.915 63.6277 133.498 63.6874V85.106H133V63.6874C132.156 63.5667 131.507 62.8407 131.507 61.9631C131.507 61.0856 132.156 60.3596 133 60.2388V33.8257C132.156 33.7049 131.507 32.9789 131.507 32.1014C131.507 31.9808 131.519 31.863 131.543 31.7493L126.589 28.2806C126.27 28.6399 125.804 28.8664 125.286 28.8664C124.713 28.8664 124.204 28.5897 123.887 28.1626L118.257 32.1047C118.452 32.3862 118.567 32.7281 118.567 33.0968C118.567 33.9743 117.918 34.7003 117.074 34.8211V96.0553H116.576V34.8211C115.732 34.7003 115.083 33.9743 115.083 33.0968C115.083 32.1347 115.863 31.3548 116.825 31.3548C117.237 31.3548 117.616 31.498 117.914 31.7372L123.649 27.7216C123.581 27.5354 123.544 27.3342 123.544 27.1244C123.544 26.2469 124.193 25.5209 125.037 25.4001V0Z" fill="url(#paint1_radial)"/>
<path fill-rule="evenodd" clip-rule="evenodd" d="M14.1597 21H13.787V41.2117C13.1551 41.3025 12.6693 41.8481 12.6693 42.5076C12.6693 43.1671 13.1551 43.7127 13.787 43.8035V71.5097C13.1551 71.6005 12.6693 72.1461 12.6693 72.8056C12.6693 73.0046 12.7135 73.1931 12.7926 73.362L9.15628 75.9179C8.93481 75.512 8.50526 75.2367 8.01166 75.2367C7.29139 75.2367 6.7075 75.8229 6.7075 76.5459C6.7075 77.2054 7.19328 77.751 7.82523 77.8418V97.6927C7.19328 97.7835 6.7075 98.3291 6.7075 98.9885C6.7075 99.1876 6.75175 99.3763 6.83091 99.5452L2.34988 102.695C2.11209 102.375 1.73221 102.168 1.30416 102.168C0.583893 102.168 0 102.754 0 103.477C0 104.137 0.48588 104.682 1.11793 104.773V141.443H1.49055V104.773C2.12253 104.682 2.60832 104.137 2.60832 103.477C2.60832 103.319 2.5802 103.167 2.52869 103.026L7.0362 99.8575C7.23613 100.084 7.51282 100.24 7.82523 100.284V133.227C7.19328 133.318 6.7075 133.863 6.7075 134.523C6.7075 135.246 7.29139 135.832 8.01166 135.832C8.73193 135.832 9.31582 135.246 9.31582 134.523C9.31582 133.863 8.82992 133.318 8.19785 133.227V100.284C8.82992 100.194 9.31582 99.6481 9.31582 98.9885C9.31582 98.329 8.82992 97.7833 8.19785 97.6926V77.8418C8.82992 77.7511 9.31582 77.2055 9.31582 76.5459C9.31582 76.4552 9.30664 76.3667 9.28915 76.2812L12.9978 73.6744C13.2367 73.9445 13.5853 74.1148 13.9735 74.1148C14.6937 74.1148 15.2776 73.5286 15.2776 72.8056C15.2776 72.146 14.7917 71.6004 14.1597 71.5097V43.8035C14.7917 43.7128 15.2776 43.1672 15.2776 42.5076C15.2776 42.3379 15.2454 42.1757 15.1869 42.0268L22.1387 37.1405C22.3305 37.4997 22.6846 37.7586 23.1025 37.8186V88.7023H23.4752V37.8186C24.1071 37.7278 24.5929 37.1822 24.5929 36.5227C24.5929 35.7997 24.009 35.2135 23.2888 35.2135C22.5685 35.2135 21.9846 35.7997 21.9846 36.5227C21.9846 36.609 21.9929 36.6934 22.0088 36.7751L15.0008 41.701C14.7982 41.4414 14.5001 41.2605 14.1597 41.2117V21Z" fill="url(#paint2_radial)"/>
<path opacity="0.1" d="M38.4529 149.428C32.2192 145.51 32.214 136.427 38.4432 132.501L127.737 76.2341C130.991 74.1835 135.133 74.1811 138.389 76.228L227.547 132.268C233.781 136.186 233.786 145.269 227.557 149.195L138.263 205.462C135.009 207.512 130.867 207.515 127.611 205.468L38.4529 149.428Z" fill="url(#paint3_linear)"/>
<path d="M68.04 89.623L81.7893 81.627L81.7308 103.499L67.9814 111.485L68.04 89.623Z" fill="#EF8F00"/>
<path d="M68.1081 65.8886L81.8574 57.8926L81.8184 69.009L68.0789 76.9953L68.1081 65.8886Z" fill="#EF8F00"/>
<path d="M68.0789 76.9951L81.8184 69.0088L97.0012 77.7654L83.2616 85.7615L68.0789 76.9951Z" fill="#FFEA43"/>
<path d="M83.2617 85.7617L97.0012 77.7656L96.9622 90.3935L83.2227 98.3798L83.2617 85.7617Z" fill="#F1D814"/>
<path d="M84.6074 62.7583L98.3567 54.772L98.3177 67.3999L84.5684 75.3862L84.6074 62.7583Z" fill="#F1D814"/>
<path d="M54.6611 45.4691L68.4104 37.4828L98.3566 54.7718L84.6073 62.7581L54.6611 45.4691Z" fill="#FFEA43"/>
<path d="M84.6073 62.758L84.5683 75.3859L68.1081 65.8882L68.0789 76.9949L83.2616 85.7613L83.2226 98.3794L68.0399 89.6228L67.9814 111.485L54.4954 103.694L54.6611 45.469L84.6073 62.758Z" fill="url(#paint4_linear)"/>
<path d="M112.759 126.697L126.509 118.71L123.905 128.14L110.166 136.126L112.759 126.697Z" fill="#EF8F00"/>
<path d="M115.636 115.434L129.385 107.448L140.161 113.669L126.421 121.656L115.636 115.434Z" fill="#FFEA43"/>
<path d="M121.019 93.4355L134.758 85.4492C134.544 86.6779 134.134 88.6769 133.51 91.4268V91.5048L119.751 99.4911V99.4131C120.401 96.6632 120.82 94.6707 121.009 93.4355" fill="#EF8F00"/>
<path d="M120.804 93.5527L133.481 91.5049C132.847 94.284 131.531 99.5887 129.376 107.438L115.636 115.435C117.781 107.588 120.206 96.3351 120.804 93.5527Z" fill="#EF8F00"/>
<path d="M111.814 78.5161L125.563 70.52L143.837 81.0709L130.087 89.067L111.814 78.5161Z" fill="#FFEA43"/>
<path d="M130.087 89.0666L143.837 81.0706L160.414 149.213L146.665 157.199L130.087 89.0666Z" fill="#F1D814"/>
<path d="M130.087 89.067L146.665 157.199L131.696 148.55L129.229 136.205L112.759 126.697L110.166 136.127L95.1194 127.438L111.814 78.5161L130.087 89.067ZM115.646 115.395L126.421 121.617L124.266 110.842C123.759 108.414 123.154 105.313 122.433 101.519C121.711 97.7261 121.243 95.0153 121.019 93.4356C120.804 94.6707 120.385 96.6632 119.761 99.4131C119.137 102.163 117.765 107.503 115.646 115.434" fill="url(#paint5_linear)"/>
<path d="M199.994 170.714L213.744 162.728L226.069 186.248L212.33 194.234L199.994 170.714Z" fill="#F1D814"/>
<path d="M206.392 147.665C206.182 147.736 205.964 147.787 205.743 147.815H205.611C205.382 147.831 205.152 147.831 204.922 147.815H204.841C204.583 147.806 204.325 147.783 204.07 147.745H203.989L203.167 147.565H203.076C202.773 147.481 202.475 147.381 202.184 147.265H202.113C201.798 147.144 201.474 146.994 201.099 146.834H201.038C200.693 146.664 200.328 146.474 199.963 146.253C199.598 146.033 199.091 145.743 198.685 145.462C198.29 145.192 197.914 144.912 197.549 144.621L197.448 144.541C197.083 144.241 196.745 143.93 196.434 143.61C196.079 143.279 195.744 142.929 195.42 142.609C195.105 142.258 194.811 141.898 194.527 141.527L194.446 141.427C194.203 141.107 193.97 140.766 193.746 140.426L193.452 139.965C193.239 139.615 193.026 139.264 192.824 138.904C192.58 138.453 192.357 138.003 192.144 137.522C191.931 137.061 191.728 136.581 191.546 136.08V136.01C191.363 135.519 191.201 135.009 191.039 134.498C191.045 134.455 191.045 134.411 191.039 134.368C190.897 133.867 190.765 133.367 190.633 132.856C190.633 132.786 190.633 132.716 190.633 132.646C190.511 132.135 190.4 131.644 190.309 131.094C190.309 131.004 190.309 130.913 190.258 130.823C190.157 130.273 190.075 129.712 189.994 129.131C189.923 128.57 189.873 128 189.822 127.429C189.822 127.259 189.822 127.089 189.822 126.918C189.822 126.468 189.761 126.007 189.741 125.536V124.996C189.741 124.355 189.741 123.694 189.741 122.993C189.736 122.906 189.736 122.82 189.741 122.733C189.741 122.212 189.741 121.732 189.741 121.231C189.741 121.101 189.741 120.971 189.741 120.84C189.741 120.35 189.791 119.839 189.832 119.419C189.832 118.998 189.913 118.598 189.964 118.217C189.964 118.087 189.964 117.967 190.015 117.837C190.065 117.706 190.086 117.336 190.126 117.086L190.187 116.705C190.187 116.485 190.278 116.264 190.319 116.054C190.359 115.844 190.369 115.824 190.39 115.724L190.572 115.053L190.633 114.823C190.714 114.542 190.806 114.262 190.907 114.002L190.968 113.841C191.049 113.631 191.14 113.421 191.231 113.231L191.333 113.02C191.455 112.79 191.566 112.58 191.698 112.379C191.719 112.33 191.746 112.282 191.779 112.239L191.992 111.949L192.144 111.729L192.388 111.468C192.436 111.407 192.491 111.35 192.55 111.298L192.834 111.048L192.976 110.918C193.121 110.808 193.274 110.708 193.432 110.617L178.839 118.638C177.937 118.638 178.52 118.825 178.373 118.938C178.323 118.975 178.275 119.015 178.231 119.058L177.947 119.308L177.784 119.479C177.701 119.564 177.623 119.654 177.551 119.749C177.482 119.807 177.417 119.871 177.358 119.939L177.145 120.23L177.085 120.33C176.963 120.53 176.841 120.74 176.73 120.971L176.669 121.081V121.181C176.578 121.381 176.496 121.581 176.415 121.792L176.354 121.922C176.263 122.192 176.172 122.463 176.081 122.753C176.081 122.813 176.081 122.883 176.03 122.943C175.969 123.153 175.908 123.384 175.858 123.614V123.704C175.858 123.784 175.858 123.874 175.858 123.944C175.858 124.165 175.766 124.375 175.726 124.595C175.726 124.655 175.726 124.705 175.726 124.765V124.986C175.726 125.226 175.645 125.476 175.614 125.727V125.967C175.614 125.967 175.614 126.057 175.614 126.107C175.614 126.498 175.523 126.898 175.493 127.319C175.493 127.769 175.432 128.25 175.411 128.741C175.411 128.801 175.411 128.851 175.411 128.911C175.416 128.984 175.416 129.058 175.411 129.131C175.411 129.622 175.411 130.132 175.411 130.633V130.893C175.411 131.504 175.411 132.095 175.411 132.676C175.411 132.746 175.411 132.806 175.411 132.866C175.411 132.926 175.411 133.236 175.411 133.417C175.411 133.597 175.411 134.017 175.411 134.308C175.411 134.598 175.411 134.628 175.411 134.788C175.411 134.949 175.411 135.129 175.411 135.299C175.411 135.469 175.411 135.6 175.411 135.74C175.411 136.17 175.493 136.581 175.553 137.001C175.553 137.382 175.655 137.752 175.716 138.123L175.807 138.684C175.807 138.774 175.807 138.864 175.807 138.954C175.802 139.024 175.802 139.094 175.807 139.164C175.868 139.485 175.929 139.805 176 140.115L176.091 140.506C176.091 140.576 176.091 140.646 176.142 140.716L176.202 140.976L176.415 141.788C176.415 141.938 176.507 142.078 176.547 142.228C176.543 142.271 176.543 142.315 176.547 142.358C176.541 142.405 176.541 142.452 176.547 142.498L176.76 143.169L176.973 143.77V143.87V143.94C176.973 144.07 177.064 144.201 177.115 144.331C177.166 144.461 177.247 144.671 177.318 144.831L177.531 145.322V145.392C177.592 145.522 177.642 145.643 177.703 145.763C177.764 145.883 177.855 146.083 177.937 146.233C178.018 146.383 178.119 146.594 178.22 146.774C178.349 147.014 178.481 147.245 178.616 147.465C178.687 147.595 178.768 147.705 178.849 147.825C178.93 147.945 179.042 148.136 179.143 148.286L179.316 148.566L179.742 149.157C179.772 149.203 179.806 149.246 179.843 149.287C179.869 149.319 179.893 149.352 179.914 149.387C179.985 149.477 180.056 149.578 180.137 149.668C180.218 149.758 180.34 149.928 180.451 150.048C180.563 150.168 180.664 150.309 180.776 150.429L181.05 150.729L181.405 151.1L181.79 151.47L182.206 151.851L182.652 152.231C182.715 152.29 182.783 152.343 182.855 152.391L182.946 152.471L183.119 152.612L183.616 152.982C183.768 153.102 183.93 153.202 184.082 153.312L184.63 153.663L185.208 154.013L185.339 154.093L185.816 154.354L186.384 154.644L186.82 154.854L187.307 155.055H187.368H187.429L187.763 155.185L188.199 155.325H188.321H188.412L188.615 155.375L189.021 155.465H189.234H189.315H189.426H189.822H190.227C190.369 155.476 190.512 155.476 190.653 155.465C190.721 155.471 190.789 155.471 190.856 155.465H190.998H191.12L191.647 155.325C191.881 155.246 192.106 155.142 192.317 155.015L206.615 146.814C206.579 147.106 206.504 147.392 206.392 147.665Z" fill="url(#paint6_linear)"/>
<path d="M224.743 140.154C224.743 139.432 224.694 138.72 224.646 138.008C224.597 137.296 224.548 136.711 224.49 136.058C224.431 135.405 224.363 134.849 224.295 134.254C224.226 133.659 224.139 133.123 224.051 132.567C223.963 132.011 223.875 131.504 223.778 130.978C223.68 130.451 223.583 130.003 223.475 129.466C223.368 128.93 223.261 128.491 223.144 128.043C223.027 127.594 222.91 127.136 222.783 126.687C222.656 126.239 222.539 125.839 222.413 125.419C222.286 125 222.159 124.62 222.032 124.22C221.905 123.82 221.779 123.479 221.642 123.108C221.506 122.738 221.389 122.406 221.252 122.065C221.116 121.724 220.989 121.412 220.852 121.09C220.716 120.768 220.589 120.456 220.453 120.115C220.316 119.773 220.17 119.481 220.014 119.14C219.858 118.798 219.702 118.486 219.546 118.164C219.39 117.843 219.165 117.423 218.97 117.053L218.6 116.37C218.434 116.078 218.268 115.775 218.093 115.483C217.586 114.625 217.059 113.776 216.494 112.948C216.152 112.44 215.791 111.972 215.421 111.436C215.05 110.9 214.885 110.714 214.612 110.363C214.338 110.012 214.095 109.73 213.841 109.388L213.061 108.472C212.788 108.16 212.505 107.857 212.232 107.555L211.325 106.58C211.004 106.248 210.672 105.917 210.35 105.605C210.028 105.293 209.629 104.922 209.258 104.63L208.078 103.596L206.801 102.553C206.352 102.202 205.894 101.86 205.436 101.519C204.977 101.178 204.46 100.817 203.973 100.485C203.485 100.154 202.939 99.7833 202.413 99.442C201.886 99.1007 201.282 98.7497 200.706 98.4084L200.297 98.1646L198.99 97.4332C198.463 97.1504 197.947 96.8774 197.44 96.6336C196.932 96.3898 196.464 96.1753 196.026 95.9608C195.587 95.7463 195.148 95.5805 194.719 95.4147C194.29 95.2489 193.91 95.0929 193.52 94.9564C193.129 94.8199 192.759 94.6931 192.379 94.5859C191.998 94.4786 191.657 94.3713 191.306 94.2836C190.955 94.1958 190.604 94.1178 190.263 94.0593L189.287 93.8838C188.946 93.8838 188.615 93.8058 188.312 93.7863C188.01 93.7668 187.639 93.7863 187.337 93.7863C187.035 93.7863 186.635 93.7863 186.294 93.835C185.914 93.8704 185.537 93.9258 185.163 94.0008C184.712 94.0854 184.268 94.206 183.836 94.3616C183.292 94.5487 182.766 94.787 182.267 95.0734L168.527 103.069C169.021 102.776 169.544 102.534 170.087 102.348C170.519 102.192 170.962 102.072 171.413 101.987C171.768 101.92 172.126 101.871 172.486 101.841C172.827 101.841 173.169 101.841 173.52 101.841C173.871 101.841 174.183 101.841 174.495 101.841C174.807 101.841 175.158 101.899 175.47 101.948C175.782 101.997 176.143 102.046 176.445 102.114C176.747 102.182 177.128 102.25 177.479 102.338L178.561 102.64C178.932 102.757 179.312 102.874 179.692 103.011C180.072 103.147 180.492 103.304 180.901 103.469C181.311 103.635 181.759 103.82 182.198 104.015C182.637 104.21 183.173 104.444 183.612 104.688C184.051 104.932 184.636 105.205 185.163 105.488L186.479 106.219L186.889 106.463C187.464 106.804 188.03 107.146 188.585 107.506C189.141 107.867 189.638 108.189 190.155 108.54C190.672 108.891 191.13 109.223 191.608 109.574C192.086 109.925 192.525 110.256 192.973 110.607C193.422 110.958 193.832 111.3 194.251 111.651C194.67 112.002 195.05 112.333 195.441 112.684C195.831 113.035 196.172 113.357 196.523 113.659C196.874 113.962 197.196 114.313 197.498 114.634C197.8 114.956 198.112 115.259 198.405 115.61C198.697 115.961 198.961 116.214 199.234 116.526C199.507 116.838 199.76 117.131 200.014 117.443C200.267 117.755 200.531 118.067 200.784 118.418L201.603 119.491C201.974 119.988 202.325 120.466 202.676 121.002C203.232 121.831 203.768 122.679 204.275 123.537L204.772 124.425L205.153 125.117C205.348 125.478 205.533 125.848 205.718 126.219C205.904 126.59 206.04 126.872 206.196 127.194C206.352 127.516 206.489 127.828 206.625 128.169L207.035 129.144C207.171 129.476 207.298 129.798 207.425 130.12C207.552 130.441 207.688 130.812 207.815 131.163C207.942 131.514 208.078 131.904 208.205 132.275C208.332 132.645 208.468 133.074 208.585 133.474C208.702 133.874 208.839 134.322 208.966 134.742L209.317 136.097C209.434 136.575 209.541 137.072 209.648 137.53C209.755 137.989 209.863 138.506 209.95 139.032C210.038 139.559 210.145 140.085 210.223 140.622C210.301 141.158 210.399 141.743 210.467 142.309C210.535 142.874 210.614 143.508 210.672 144.113C210.731 144.717 210.779 145.4 210.818 146.063C210.857 146.726 210.896 147.487 210.926 148.208C210.955 148.93 210.926 149.681 210.926 150.422V150.568C210.926 151.377 210.926 152.177 210.867 152.938C210.809 153.698 210.789 154.371 210.74 155.063C210.692 155.756 210.623 156.35 210.545 156.965C210.467 157.579 210.379 158.145 210.282 158.71C210.184 159.276 210.077 159.802 209.96 160.319C209.843 160.836 209.716 161.294 209.57 161.821C209.424 162.348 209.268 162.796 209.102 163.264C208.936 163.732 208.712 164.239 208.488 164.707C208.245 165.229 207.968 165.734 207.659 166.219C206.832 167.581 205.683 168.719 204.314 169.534L218.054 161.548C219.423 160.729 220.574 159.592 221.408 158.232C221.714 157.745 221.99 157.241 222.237 156.721C222.452 156.263 222.656 155.746 222.842 155.278C223.027 154.81 223.173 154.303 223.319 153.835C223.466 153.367 223.592 152.86 223.709 152.323C223.826 151.787 223.934 151.27 224.031 150.724C224.129 150.178 224.217 149.583 224.285 148.978C224.353 148.374 224.431 147.73 224.48 147.028C224.529 146.326 224.577 145.644 224.616 144.912C224.655 144.181 224.665 143.352 224.665 142.543V142.396C224.772 141.616 224.763 140.846 224.743 140.154Z" fill="#FFEA43"/>
<path d="M199.994 170.715L212.33 194.235L195.275 184.386L186.362 166.268C178.704 161.9 172.369 155.542 168.03 147.868C163.804 140.301 161.707 131.615 161.74 121.812C161.74 112.119 163.869 105.944 168.127 103.285C172.385 100.626 178.522 101.601 186.538 106.21C194.202 110.472 200.539 116.769 204.85 124.406C208.998 131.888 211.059 140.538 211.033 150.354C210.994 163.518 207.314 170.305 199.994 170.715ZM194.056 153.367C195.739 151.593 196.591 147.812 196.611 142.027C196.611 136.176 195.782 131.427 194.095 127.673C192.548 124.08 189.884 121.081 186.498 119.121C179.634 115.162 176.188 118.861 176.162 130.218C176.136 141.575 179.526 149.174 186.333 153.016C189.804 155.019 192.379 155.136 194.056 153.367Z" fill="url(#paint7_linear)"/>
<path d="M167.199 52.0762L164.311 56.4884L183.267 70.0771L167.199 52.0762Z" fill="#0B86DB"/>
<path d="M183.267 70.0771L178.27 45.5881L167.199 52.0762L183.267 70.0771Z" fill="#9ED6F2"/>
<path d="M183.267 70.0771L146.133 55.5411L162.147 53.6361L183.267 70.0771Z" fill="#9ED6F2"/>
<path opacity="0.1" fill-rule="evenodd" clip-rule="evenodd" d="M180.926 106.507L176.62 85.4033L167.079 90.9944L165.027 94.13L162.725 92.3386L148.926 93.9802L180.926 106.507Z" fill="white"/>
<path opacity="0.1" d="M54.4696 170.443L37.9182 168.563L76.9233 154.093L71.6608 178.471L61.0943 172.616L57.0699 177.335L54.4696 170.443Z" fill="white"/>
<path d="M85.6995 23.9575L30.4746 45.5753L54.2891 48.4084L85.6995 23.9575Z" fill="#9ED6F2"/>
<path d="M53.899 48.3673L57.5943 58.6732L85.6995 23.9575L53.899 48.3673Z" fill="#0B86DB"/>
<path d="M61.8029 50.7282L57.5943 58.6732L85.6995 23.9575L61.8029 50.7282Z" fill="#0C4B83"/>
<path d="M85.6995 23.9575L78.2677 60.3772L61.8029 50.7282L85.6995 23.9575Z" fill="#9ED6F2"/>
<path fill-rule="evenodd" clip-rule="evenodd" d="M160.087 173.691C159.124 173.691 158.345 172.911 158.345 171.949C158.345 170.987 159.124 170.208 160.087 170.208C161.049 170.208 161.828 170.987 161.828 171.949C161.828 172.258 161.748 172.548 161.607 172.8L177.871 184.188L177.685 184.453L177.755 184.561L167.641 191.128C167.744 191.35 167.801 191.597 167.801 191.857C167.801 192.341 167.604 192.779 167.285 193.095L197.837 214.488C198.12 213.907 198.715 213.507 199.404 213.507C199.87 213.507 200.293 213.69 200.606 213.988L231.235 194.097L231.506 194.514L200.915 214.38C201.062 214.636 201.146 214.933 201.146 215.249C201.146 215.72 200.959 216.147 200.656 216.461L227.027 234.926L226.741 235.334L200.24 216.778C199.992 216.914 199.707 216.991 199.404 216.991C198.442 216.991 197.663 216.211 197.663 215.249C197.663 215.16 197.669 215.072 197.682 214.987L166.86 193.405C166.62 193.529 166.348 193.599 166.059 193.599C165.537 193.599 165.069 193.37 164.749 193.006L137.373 210.784C137.418 210.938 137.441 211.1 137.441 211.267C137.441 211.679 137.299 212.057 137.061 212.355L169.294 234.925L169.008 235.332L136.688 212.702C136.408 212.896 136.067 213.009 135.699 213.009C135.272 213.009 134.881 212.855 134.578 212.6L116.359 224.432C116.473 224.664 116.538 224.926 116.538 225.203C116.538 226.165 115.758 226.945 114.796 226.945C113.834 226.945 113.054 226.165 113.054 225.203C113.054 224.993 113.091 224.792 113.159 224.606L99.7999 215.252C99.4849 215.702 98.9629 215.996 98.3722 215.996C97.8846 215.996 97.4438 215.795 97.1276 215.472L66.0636 235.645L65.7926 235.228L96.8331 215.07C96.7036 214.827 96.6303 214.549 96.6303 214.254C96.6303 213.881 96.747 213.537 96.9458 213.253L81.9419 202.748C81.661 202.942 81.3202 203.055 80.9529 203.055C79.9908 203.055 79.2109 202.276 79.2109 201.314C79.2109 200.351 79.9908 199.572 80.9529 199.572C81.5173 199.572 82.0191 199.84 82.3374 200.256L111.733 181.166C111.623 180.938 111.561 180.681 111.561 180.41C111.561 179.448 112.341 178.668 113.303 178.668C114.265 178.668 115.045 179.448 115.045 180.41C115.045 181.372 114.265 182.152 113.303 182.152C112.791 182.152 112.33 181.931 112.012 181.579L82.5806 200.692C82.6544 200.885 82.6948 201.094 82.6948 201.314C82.6948 201.725 82.5523 202.103 82.314 202.401L97.2911 212.888C97.5882 212.652 97.9638 212.512 98.3722 212.512C99.3343 212.512 100.114 213.292 100.114 214.254C100.114 214.445 100.083 214.63 100.026 214.803L113.397 224.165C113.714 223.738 114.223 223.461 114.796 223.461C115.302 223.461 115.758 223.677 116.076 224.022L134.243 212.224C134.063 211.949 133.957 211.621 133.957 211.267C133.957 210.305 134.737 209.525 135.699 209.525C136.315 209.525 136.855 209.844 137.165 210.326L164.478 192.589C164.375 192.367 164.317 192.119 164.317 191.857C164.317 190.895 165.097 190.115 166.059 190.115C166.582 190.115 167.051 190.346 167.37 190.711L177.201 184.326L161.304 173.195C160.99 173.502 160.56 173.691 160.087 173.691Z" fill="url(#paint8_radial)"/>
<defs>
<radialGradient id="paint0_radial" cx="0" cy="0" r="1" gradientUnits="userSpaceOnUse" gradientTransform="translate(254.348 81.8533) rotate(-89.4239) scale(76.8747 21.8787)">
<stop stop-color="#70E5FF"/>
<stop offset="0.14381" stop-color="#0099FF"/>
<stop offset="1" stop-color="#01194F" stop-opacity="0"/>
</radialGradient>
<radialGradient id="paint1_radial" cx="0" cy="0" r="1" gradientUnits="userSpaceOnUse" gradientTransform="translate(134.546 44.5971) rotate(91.2962) scale(48.3383 30.9439)">
<stop stop-color="#70E5FF"/>
<stop offset="0.14381" stop-color="#0099FF"/>
<stop offset="1" stop-color="#01194F" stop-opacity="0"/>
</radialGradient>
<radialGradient id="paint2_radial" cx="0" cy="0" r="1" gradientUnits="userSpaceOnUse" gradientTransform="translate(8.01133 76.9199) rotate(89.1192) scale(60.6026 26.3666)">
<stop stop-color="#70E5FF"/>
<stop offset="0.14381" stop-color="#0099FF"/>
<stop offset="1" stop-color="#01194F" stop-opacity="0"/>
</radialGradient>
<linearGradient id="paint3_linear" x1="187.062" y1="86.7858" x2="78.9378" y2="194.91" gradientUnits="userSpaceOnUse">
<stop offset="0.0034284" stop-color="#0099FF"/>
<stop offset="1" stop-color="#66CCFF"/>
</linearGradient>
<linearGradient id="paint4_linear" x1="84.6073" y1="78.4771" x2="54.4954" y2="78.4771" gradientUnits="userSpaceOnUse">
<stop stop-color="#FF9900"/>
<stop offset="1" stop-color="#FFE91A"/>
</linearGradient>
<linearGradient id="paint5_linear" x1="146.665" y1="117.858" x2="95.1194" y2="117.858" gradientUnits="userSpaceOnUse">
<stop stop-color="#FF9900"/>
<stop offset="1" stop-color="#FFE91A"/>
</linearGradient>
<linearGradient id="paint6_linear" x1="191.013" y1="110.617" x2="191.013" y2="155.473" gradientUnits="userSpaceOnUse">
<stop stop-color="#EF8F00"/>
<stop offset="1" stop-color="#FFEA43"/>
</linearGradient>
<linearGradient id="paint7_linear" x1="212.33" y1="148.03" x2="161.74" y2="148.03" gradientUnits="userSpaceOnUse">
<stop stop-color="#FF9900"/>
<stop offset="1" stop-color="#FFE91A"/>
</linearGradient>
<radialGradient id="paint8_radial" cx="0" cy="0" r="1" gradientUnits="userSpaceOnUse" gradientTransform="translate(166.308 191.608) rotate(87.2737) scale(41.8538 217.967)">
<stop stop-color="#70E5FF"/>
<stop offset="0.14381" stop-color="#0099FF"/>
<stop offset="1" stop-color="#01194F" stop-opacity="0"/>
</radialGradient>
</defs>
</svg>
