<svg width="434" height="500" viewBox="0 0 434 500" fill="none" xmlns="http://www.w3.org/2000/svg"><path fill-rule="evenodd" clip-rule="evenodd" d="M384 307h1v-54.035a3.502 3.502 0 000-6.93v-74.07a3.5 3.5 0 10-3.118-5.788l-9.954-6.97a3.503 3.503 0 00-2.928-4.172v-53.07a3.502 3.502 0 000-6.93V6.965a3.5 3.5 0 10-1 0v88.07a3.494 3.494 0 00-2.118 1.142l-12.096-8.47A3.501 3.501 0 00351 83.035V17h-1v66.035a3.501 3.501 0 103.306 5.557l12.025 8.42a3.502 3.502 0 002.669 4.953v53.07a3.5 3.5 0 103.572 5.143l9.759 6.834a3.502 3.502 0 002.669 4.953v74.07a3.502 3.502 0 000 6.93V307z" fill="url(#paint0_radial)"/><path fill-rule="evenodd" clip-rule="evenodd" d="M201 0h1v51.035a3.501 3.501 0 012.669 4.953l9.759 6.834A3.5 3.5 0 11218 67.965v53.07a3.502 3.502 0 012.669 4.953l12.025 8.42a3.5 3.5 0 113.306 5.557V183h-1v-43.035a3.502 3.502 0 01-2.786-4.672l-12.096-8.47a3.496 3.496 0 01-2.118 1.142V171h-1v-43.035a3.502 3.502 0 010-6.93v-53.07a3.501 3.501 0 01-2.928-4.172l-9.954-6.97A3.49 3.49 0 01201.5 58a3.496 3.496 0 01-2.811-1.414l-11.312 7.92A3.501 3.501 0 01185 69.965V193h-1V69.965a3.501 3.501 0 112.688-6.197l11.523-8.068A3.501 3.501 0 01201 51.035V0z" fill="url(#paint1_radial)"/><path opacity=".1" d="M13.453 291.706c-6.234-3.918-6.239-13.002-.01-16.927l198.355-124.991a10 10 0 0110.653-.006l198.096 124.512c6.234 3.918 6.239 13.002.01 16.927L222.202 416.212a10 10 0 01-10.653.006L13.453 291.706z" fill="url(#paint2_linear)"/><path d="M86.478 180.076l27.626-16.066-.117 43.947-27.626 16.047.117-43.928zm.137-47.689l27.626-16.066-.078 22.336-27.606 16.047.058-22.317z" fill="#EF8F00"/><path d="M86.557 154.703l27.606-16.046 30.506 17.594-27.606 16.066-30.506-17.614z" fill="#FFEA43"/><path d="M117.063 172.318l27.606-16.067-.078 25.373-27.607 16.047.079-25.353zm2.704-46.22l27.625-16.047-.078 25.373-27.626 16.047.079-25.373z" fill="#F1D814"/><path d="M59.597 91.36l27.626-16.047 60.17 34.738-27.626 16.047-60.17-34.739z" fill="#FFEA43"/><path d="M119.767 126.097l-.079 25.373-33.073-19.083-.058 22.316 30.506 17.614-.079 25.353-30.506-17.594-.117 43.927-27.097-15.655.333-116.989 60.17 34.738z" fill="url(#paint3_linear)"/><path d="M176.331 254.568l27.626-16.047-5.231 18.946-27.606 16.047 5.211-18.946z" fill="#EF8F00"/><path d="M182.111 231.938l27.626-16.046 21.65 12.5-27.606 16.046-21.67-12.5z" fill="#FFEA43"/><path d="M192.926 187.736l27.607-16.046c-.431 2.469-1.254 6.485-2.508 12.01v.157l-27.646 16.047v-.157c1.306-5.525 2.149-9.529 2.528-12.011" fill="#EF8F00"/><path d="M192.495 187.972l25.471-4.115c-1.273 5.584-3.919 16.243-8.249 32.015l-27.606 16.066c4.311-15.765 9.183-38.375 10.384-43.966z" fill="#EF8F00"/><path d="M174.431 157.759l27.626-16.066 36.717 21.2-27.626 16.066-36.717-21.2z" fill="#FFEA43"/><path d="M211.148 178.958l27.626-16.066 33.308 136.915-27.626 16.046-33.308-136.895z" fill="#F1D814"/><path d="M211.148 178.959l33.308 136.895-30.075-17.378-4.957-24.805-33.093-19.103-5.211 18.946-30.232-17.457 33.543-98.297 36.717 21.199zm-29.017 52.901l21.65 12.5-4.33-21.65c-1.019-4.879-2.234-11.109-3.684-18.731-1.45-7.621-2.39-13.068-2.841-16.242-.431 2.482-1.273 6.485-2.527 12.01-1.254 5.525-4.01 16.256-8.268 32.191" fill="url(#paint4_linear)"/><path d="M351.609 343.009l27.626-16.046L404 374.221l-27.606 16.046-24.785-47.258z" fill="#F1D814"/><path d="M364.464 296.698a6.76 6.76 0 01-1.304.301h-.265a10.34 10.34 0 01-1.386 0h-.162a14.08 14.08 0 01-1.549-.14h-.163l-1.651-.362h-.183a17.32 17.32 0 01-1.793-.604h-.143c-.631-.241-1.283-.543-2.037-.865h-.123a28.942 28.942 0 01-2.159-1.167c-.734-.443-1.753-1.026-2.568-1.589a40.099 40.099 0 01-2.282-1.69l-.204-.161a25.068 25.068 0 01-2.037-1.871c-.713-.664-1.386-1.368-2.038-2.012a36.5 36.5 0 01-1.793-2.173l-.163-.201a35.544 35.544 0 01-1.406-2.012l-.591-.926a72.432 72.432 0 01-1.263-2.132 39.29 39.29 0 01-1.365-2.776 37.33 37.33 0 01-1.202-2.898v-.14c-.367-.986-.693-2.012-1.019-3.038a1.044 1.044 0 000-.262 129.51 129.51 0 01-.815-3.038v-.422a43.808 43.808 0 01-.652-3.119c0-.181 0-.362-.102-.543a79.086 79.086 0 01-.53-3.4 89.932 89.932 0 01-.346-3.42v-1.026c0-.905-.123-1.831-.163-2.776v-5.111a4.148 4.148 0 010-.523V242.8c0-.986.101-2.012.183-2.857 0-.845.163-1.65.265-2.414 0-.262 0-.503.102-.765.102-.261.142-1.006.224-1.509l.122-.764c0-.443.183-.885.265-1.308.082-.422.102-.463.143-.664l.366-1.348.123-.462a19.45 19.45 0 01.55-1.65l.122-.322c.163-.423.346-.845.53-1.227l.204-.423c.244-.462.468-.885.733-1.287.042-.101.097-.195.163-.282l.428-.583.306-.443.489-.523c.098-.124.207-.238.326-.342l.57-.503.286-.262c.292-.219.599-.421.916-.603l-29.321 16.115c-1.813 0-.642.377-.937.603-.1.075-.195.156-.285.242l-.571.503-.326.342a6.033 6.033 0 00-.468.543c-.14.117-.269.245-.388.382l-.427.584-.123.201c-.244.402-.489.825-.713 1.287l-.122.222v.201c-.184.402-.347.805-.51 1.227l-.122.262c-.183.543-.367 1.086-.55 1.67 0 .12 0 .261-.102.382-.122.422-.244.885-.346 1.348v.664c0 .442-.184.865-.265 1.307v.785c0 .483-.163.986-.224 1.489v.764c0 .785-.184 1.59-.245 2.435 0 .905-.122 1.871-.163 2.857v.342c.01.147.01.295 0 .442v13.278c0 .866.163 1.69.285 2.535 0 .765.204 1.509.326 2.254l.184 1.126v.544c-.01.14-.01.281 0 .422.122.644.244 1.288.387 1.911l.183.785c0 .141 0 .282.102.422l.123.523.427 1.63c0 .302.184.584.265.885a1.275 1.275 0 000 .262 1.209 1.209 0 000 .282l.428 1.347.428 1.208v.342c0 .261.184.523.285.784.102.262.265.684.408 1.006l.428.986v.141c.122.261.224.503.346.744.122.242.306.644.469.946.163.302.367.724.57 1.086.258.483.523.946.795 1.388.143.262.306.483.469.725.163.241.387.623.591.925l.346.563.856 1.187c.061.092.129.18.204.262.052.064.1.131.142.201.143.181.285.382.448.563.163.182.408.524.632.765.224.241.428.523.652.764l.55.604.713.744.775.745.835.764.897.765c.126.118.263.226.407.322l.184.161.346.281.998.745c.306.241.632.442.938.664l1.1.704 1.161.704.265.161.958.523 1.141.583.876.423.978.402h.245l.672.262.876.281h.428l.408.101.815.181h2.425c.284.021.571.021.855 0 .136.011.272.011.408 0h.53l1.059-.282c.47-.158.921-.367 1.345-.623l28.73-16.477a6.73 6.73 0 01-.448 1.71z" fill="url(#paint5_linear)"/><path d="M401.335 281.605c0-1.45-.097-2.88-.195-4.31-.098-1.43-.196-2.606-.314-3.919-.117-1.312-.255-2.429-.392-3.624-.137-1.196-.313-2.273-.49-3.39a117.897 117.897 0 00-.548-3.194c-.196-1.058-.392-1.959-.608-3.037a48.317 48.317 0 00-.666-2.86c-.235-.901-.47-1.822-.725-2.723-.254-.902-.49-1.705-.744-2.548-.255-.842-.51-1.606-.764-2.409-.255-.804-.51-1.49-.784-2.234-.274-.745-.509-1.411-.784-2.096-.274-.686-.529-1.313-.803-1.96a98.474 98.474 0 01-.803-1.959c-.275-.686-.569-1.274-.882-1.959-.314-.686-.627-1.313-.941-1.96-.313-.646-.764-1.489-1.155-2.233l-.745-1.372c-.333-.588-.666-1.195-1.019-1.783a93.1 93.1 0 00-3.213-5.094c-.686-1.019-1.411-1.959-2.155-3.037-.745-1.077-1.078-1.45-1.627-2.155-.548-.705-1.038-1.273-1.547-1.959l-1.568-1.842c-.548-.627-1.117-1.234-1.665-1.842l-1.822-1.959a92.798 92.798 0 00-1.96-1.959c-.646-.627-1.449-1.372-2.194-1.96l-2.371-2.076-2.566-2.097c-.902-.705-1.823-1.391-2.743-2.077a88.115 88.115 0 00-2.939-2.076c-.98-.667-2.077-1.411-3.135-2.097-1.058-.686-2.273-1.391-3.429-2.077l-.823-.49-2.625-1.469a79.632 79.632 0 00-3.116-1.607c-1.018-.489-1.959-.921-2.84-1.352-.882-.431-1.764-.764-2.626-1.097-.862-.333-1.626-.646-2.41-.921a38.76 38.76 0 00-2.292-.744c-.764-.216-1.45-.431-2.155-.608a28.671 28.671 0 00-2.097-.45l-1.959-.353c-.686 0-1.352-.157-1.959-.196-.608-.039-1.352 0-1.96 0-.607 0-1.41 0-2.096.098a22.03 22.03 0 00-2.273.333c-.906.17-1.797.413-2.665.725-1.094.376-2.15.855-3.154 1.43l-27.606 16.067a16.753 16.753 0 013.135-1.45 17.17 17.17 0 012.664-.725 21.706 21.706 0 012.155-.294h4.037c.626 0 1.332.117 1.959.215.627.098 1.352.196 1.959.334.607.137 1.372.274 2.077.45l2.175.608c.744.235 1.508.47 2.272.744.765.274 1.607.588 2.43.921.823.333 1.724.705 2.606 1.097.882.392 1.959.862 2.841 1.352.882.49 2.057 1.038 3.115 1.607l2.645 1.469.823.49a99.51 99.51 0 013.409 2.096c1.117.725 2.116 1.372 3.155 2.077a96.332 96.332 0 012.919 2.077c.96.705 1.842 1.372 2.743 2.077a99.795 99.795 0 012.567 2.096 89.618 89.618 0 012.39 2.077c.784.706 1.469 1.352 2.175 1.959.705.608 1.352 1.313 1.959 1.96.607.646 1.234 1.254 1.822 1.959.588.705 1.117 1.215 1.666 1.842a67.066 67.066 0 011.567 1.841c.509.627 1.038 1.254 1.548 1.96l1.646 2.155c.744.999 1.45 1.959 2.155 3.037a105.742 105.742 0 013.213 5.094l.999 1.783.764 1.391c.392.725.765 1.47 1.137 2.214.372.745.646 1.313.96 1.959.313.647.588 1.274.862 1.96l.823 1.959c.274.666.529 1.313.784 1.959.254.647.529 1.391.783 2.097.255.705.529 1.489.784 2.233.255.745.529 1.607.764 2.41.235.803.51 1.705.764 2.547l.706 2.724c.235.96.45 1.959.666 2.88.215.921.431 1.959.607 3.017.176 1.058.392 2.116.549 3.194.156 1.077.352 2.253.49 3.389.137 1.137.293 2.41.411 3.625.118 1.215.216 2.586.294 3.919a240 240 0 01.215 4.31c.059 1.45 0 2.958 0 4.448v.293c0 1.627 0 3.233-.117 4.761-.118 1.529-.157 2.881-.255 4.272a65.742 65.742 0 01-.392 3.82 77.173 77.173 0 01-.529 3.507 62.842 62.842 0 01-.646 3.233 61.943 61.943 0 01-.784 3.018 42.113 42.113 0 01-.94 2.899c-.334.941-.784 1.96-1.235 2.9a26.384 26.384 0 01-1.665 3.037 19.602 19.602 0 01-6.721 6.662l27.607-16.047a19.886 19.886 0 006.74-6.662 29.797 29.797 0 001.665-3.036c.431-.921.843-1.96 1.215-2.9.372-.941.666-1.96.96-2.9.294-.94.549-1.959.784-3.037.235-1.077.45-2.116.646-3.213a56.27 56.27 0 00.51-3.507c.137-1.215.294-2.508.391-3.919.098-1.41.196-2.782.275-4.251.078-1.47.098-3.135.098-4.762v-.293c.215-1.568.196-3.116.156-4.507z" fill="#FFEA43"/><path d="M351.609 343.01l24.785 47.258-34.268-19.788-17.908-36.404a98.225 98.225 0 01-36.835-36.972c-8.49-15.204-12.702-32.654-12.637-52.352 0-19.475 4.278-31.884 12.833-37.226 8.556-5.342 20.886-3.383 36.992 5.878a95.61 95.61 0 0136.795 36.56c8.334 15.034 12.474 32.413 12.422 52.137-.078 26.45-7.471 40.087-22.179 40.909zm-11.932-34.855c3.383-3.566 5.094-11.162 5.133-22.787 0-11.755-1.665-21.297-5.055-28.84a36.553 36.553 0 00-15.263-17.183c-13.793-7.955-20.716-.523-20.768 22.296-.052 22.819 6.759 38.089 20.435 45.808 6.975 4.023 12.148 4.259 15.518.706z" fill="url(#paint6_linear)"/><path d="M285.715 104.635l-5.804 8.865L318 140.803l-32.285-36.168z" fill="#0B86DB"/><path d="M318 140.803l-10.041-49.205-22.244 13.037L318 140.803zm0 0l-74.612-29.207 32.175-3.827L318 140.803z" fill="#9ED6F2"/><path opacity=".1" fill-rule="evenodd" clip-rule="evenodd" d="M304.644 171.598l-19.17 11.234L313.296 214l-27.822-31.168-4.124 6.3-4.624-3.599L249 188.831 313.296 214l-8.652-42.402z" fill="#fff"/><path opacity=".1" d="M59.212 342.464l-33.256-3.777 78.371-29.074-10.573 48.982-21.231-11.764-8.086 9.482-5.225-13.849z" fill="#fff"/><path d="M121.961 48.137L11 91.573l47.85 5.692 63.111-49.128z" fill="#9ED6F2"/><path d="M58.066 97.183l7.424 20.707 56.471-69.753-63.895 49.046z" fill="#0B86DB"/><path d="M73.947 101.926L65.49 117.89l56.471-69.753-48.014 53.789z" fill="#0C4B83"/><path d="M121.961 48.137l-14.932 73.177-33.082-19.388 48.014-53.789z" fill="#9ED6F2"/><path fill-rule="evenodd" clip-rule="evenodd" d="M279.461 351a3.5 3.5 0 113.055-1.792l32.679 22.882-.374.534.14.215-20.321 13.196c.206.446.321.942.321 1.465 0 .972-.396 1.852-1.036 2.486l61.387 42.984a3.502 3.502 0 015.563-1.004L422.416 392l.545.839-61.466 39.916c.297.514.466 1.109.466 1.745a3.49 3.49 0 01-.986 2.435l52.986 37.101-.574.82-53.247-37.284a3.5 3.5 0 01-5.14-3.599l-61.93-43.364a3.48 3.48 0 01-1.609.391 3.49 3.49 0 01-2.631-1.192l-55.005 35.721c.088.308.136.634.136.971 0 .826-.286 1.586-.765 2.184l64.765 45.349-.574.819-64.939-45.47a3.482 3.482 0 01-1.987.618 3.481 3.481 0 01-2.254-.823L191.6 452.95a3.5 3.5 0 11-6.428.351l-26.843-18.795a3.494 3.494 0 01-2.868 1.494c-.98 0-1.866-.403-2.501-1.051l-62.415 40.533-.545-.839 62.368-40.502a3.49 3.49 0 01-.407-1.641c0-.748.234-1.441.634-2.009l-30.147-21.109a3.5 3.5 0 11.795-5.006l59.064-38.357a3.5 3.5 0 11.559.83l-59.135 38.402c.149.388.23.809.23 1.249 0 .826-.286 1.586-.765 2.184l30.093 21.071a3.5 3.5 0 015.495 3.848l26.866 18.812a3.492 3.492 0 012.811-1.415c1.017 0 1.932.434 2.572 1.126l36.502-23.705a3.5 3.5 0 115.871-3.813l54.878-35.637a3.5 3.5 0 015.812-3.775l19.753-12.828-31.942-22.365a3.487 3.487 0 01-2.446.997z" fill="url(#paint7_radial)"/><defs><linearGradient id="paint2_linear" x1="325.625" y1="174.375" x2="108.375" y2="391.625" gradientUnits="userSpaceOnUse"><stop offset=".003" stop-color="#09F"/><stop offset="1" stop-color="#6CF"/></linearGradient><linearGradient id="paint3_linear" x1="119.767" y1="157.681" x2="59.264" y2="157.681" gradientUnits="userSpaceOnUse"><stop stop-color="#F90"/><stop offset="1" stop-color="#FFE91A"/></linearGradient><linearGradient id="paint4_linear" x1="244.456" y1="236.807" x2="140.888" y2="236.807" gradientUnits="userSpaceOnUse"><stop stop-color="#F90"/><stop offset="1" stop-color="#FFE91A"/></linearGradient><linearGradient id="paint5_linear" x1="333.564" y1="222.259" x2="333.564" y2="312.386" gradientUnits="userSpaceOnUse"><stop stop-color="#EF8F00"/><stop offset="1" stop-color="#FFEA43"/></linearGradient><linearGradient id="paint6_linear" x1="376.394" y1="297.431" x2="274.745" y2="297.431" gradientUnits="userSpaceOnUse"><stop stop-color="#F90"/><stop offset="1" stop-color="#FFE91A"/></linearGradient><radialGradient id="paint0_radial" cx="0" cy="0" r="1" gradientUnits="userSpaceOnUse" gradientTransform="matrix(1.55279 -154.4532 43.95768 .44193 360.357 164.464)"><stop stop-color="#70E5FF"/><stop offset=".144" stop-color="#09F"/><stop offset="1" stop-color="#01194F" stop-opacity="0"/></radialGradient><radialGradient id="paint1_radial" cx="0" cy="0" r="1" gradientUnits="userSpaceOnUse" gradientTransform="rotate(91.296 66.252 152.395) scale(97.1242 62.1744)"><stop stop-color="#70E5FF"/><stop offset=".144" stop-color="#09F"/><stop offset="1" stop-color="#01194F" stop-opacity="0"/></radialGradient><radialGradient id="paint7_radial" cx="0" cy="0" r="1" gradientUnits="userSpaceOnUse" gradientTransform="matrix(3.99998 84.00002 -437.4573 20.83122 291.961 387)"><stop stop-color="#70E5FF"/><stop offset=".144" stop-color="#09F"/><stop offset="1" stop-color="#01194F" stop-opacity="0"/></radialGradient></defs></svg>