<svg width="44" height="40" viewBox="0 0 44 40" fill="none" xmlns="http://www.w3.org/2000/svg"><path fill-rule="evenodd" clip-rule="evenodd" d="M21.523 0c-.966 0-1.84.391-2.473 1.024a3.487 3.487 0 00-1.024 2.472c0 .966.392 1.84 1.024 2.473a3.486 3.486 0 002.473 1.024c.965 0 1.839-.392 2.472-1.024a3.486 3.486 0 001.024-2.473c0-.965-.391-1.839-1.024-2.472A3.485 3.485 0 0021.522 0zm1.283 2.213a1.81 1.81 0 00-1.284-.531 1.81 1.81 0 00-1.283.531 1.809 1.809 0 00-.531 1.283 1.81 1.81 0 001.815 1.815 1.81 1.81 0 001.814-1.815c0-.5-.203-.954-.531-1.283zM30.629.381l-9.806 14.871a.837.837 0 101.4.92l9.805-14.871a.837.837 0 10-1.4-.92zm.7 9.18c-.966 0-1.84.39-2.473 1.023a3.487 3.487 0 00-1.024 2.473c0 .965.391 1.84 1.024 2.472a3.486 3.486 0 002.472 1.024c.966 0 1.84-.391 2.472-1.024a3.485 3.485 0 001.025-2.472c0-.966-.392-1.84-1.025-2.473a3.485 3.485 0 00-2.472-1.024zm1.282 2.212a1.81 1.81 0 00-1.283-.53 1.81 1.81 0 00-1.815 1.814 1.814 1.814 0 003.098 1.283 1.81 1.81 0 000-2.567zM19.815 26.127a.843.843 0 10-1.194-1.191.843.843 0 001.194 1.191zm-8.93 13.63a.842.842 0 01-1.188-.006L.244 30.226a.842.842 0 01.002-1.187l4.005-4.017a2.515 2.515 0 012.251-.698c1.9-3.512 5.441-5.383 9.494-5.383 1.463 0 2.88.283 4.216.842H29.6c1.034 0 1.99.481 2.617 1.253l4.968-5.106a3.376 3.376 0 014.725-.376 3.372 3.372 0 01.4 4.747c-7.59 9.072-7.606 9.098-7.629 9.116a7.538 7.538 0 01-5.291 2.153H18.197a2.51 2.51 0 00-1.753.708l-.878.846c.305.893.095 1.92-.599 2.613l-4.082 4.02zm8.817-18.361a9.19 9.19 0 00-3.706-.771c-3.598 0-6.49 1.644-8.032 4.536l6.595 6.595.716-.69a4.186 4.186 0 012.922-1.18H29.39a5.86 5.86 0 004.08-1.642l7.551-9.027a1.687 1.687 0 00-.197-2.376 1.69 1.69 0 00-2.374.2c-.02.024-.334.347-2.008 2.067l-3.504 3.602a3.371 3.371 0 01-3.338 3.808h-6.869a.842.842 0 110-1.684H29.6c.929 0 1.684-.755 1.684-1.684 0-.939-.771-1.683-1.684-1.683h-9.56a.84.84 0 01-.338-.071zM6.485 26.093a.84.84 0 00-1.043.119L2.03 29.634l8.273 8.336 3.48-3.428a.845.845 0 00.076-1.092c-.044-.06-7.245-7.279-7.373-7.357z" fill="url(#paint0_linear)"/><defs><linearGradient id="paint0_linear" x1="43.103" y1="20" x2="0" y2="20" gradientUnits="userSpaceOnUse"><stop stop-color="#F90"/><stop offset="1" stop-color="#FFE91A"/></linearGradient></defs></svg>