<svg version="1.1" id="svg-aff" xmlns="http://www.w3.org/2000/svg" x="0" y="0" viewBox="40 90 385 543.7" xml:space="preserve"><style>@keyframes topLine{0%{transform:translateY(90px);opacity:0}50%{opacity:1}}@keyframes topLine2{0%{transform:translateY(30px);opacity:0}50%{opacity:1}}@keyframes topQuatro{0%{transform:translateY(50px)}50%{transform:translateY(0)}}@keyframes topQuatro2{0%{transform:translateY(113px)}50%{transform:translateY(0)}}.line1{animation:topLine 1.8s linear infinite}.line2{animation:topLine 3s linear infinite}.line4{animation:topLine 2s linear infinite}</style><defs><filter id="Adobe_OpacityMaskFilter" filterUnits="userSpaceOnUse" x="303.4" y="525.3" width="88.6" height="54.2"><feFlood result="back" flood-color="#fff" flood-opacity="1"/><feBlend in="SourceGraphic" in2="back"/></filter></defs><mask maskUnits="userSpaceOnUse" x="303.4" y="525.3" width="88.6" height="54.2" id="SVGID_1_"><g filter="url(#Adobe_OpacityMaskFilter)"><defs><filter id="Adobe_OpacityMaskFilter_1_" filterUnits="userSpaceOnUse" x="303.4" y="525.3" width="88.6" height="54.2"><feFlood result="back" flood-color="#fff" flood-opacity="1"/><feBlend in="SourceGraphic" in2="back"/></filter></defs><linearGradient id="SVGID_2_" gradientUnits="userSpaceOnUse" x1="324.065" y1="511.186" x2="362.87" y2="579.942"><stop offset="0" stop-color="#fff"/><stop offset=".085" stop-color="#e3e3e3"/><stop offset=".344" stop-color="#949494"/><stop offset=".574" stop-color="#545454"/><stop offset=".766" stop-color="#272727"/><stop offset=".914" stop-color="#0a0a0a"/><stop offset="1"/></linearGradient><path mask="url(#SVGID_1_)" fill="url(#SVGID_2_)" d="M322.7 525.3v9.7l32.1 20.4-42-22.1-9.4 7.7 66.7 38.5L392 565z"/></g></mask><linearGradient id="SVGID_4_" gradientUnits="userSpaceOnUse" x1="217.4" y1="491.203" x2="347.752" y2="491.203"><stop offset="0" stop-color="#02007b"/><stop offset="1" stop-color="#5468f9"/></linearGradient><path opacity=".12" fill="url(#SVGID_4_)" d="M347.7 478.2c-.2-3.3-2.7-6.7-7.4-9.4l-19.2-11c-8.9-5.2-22.5-5.7-30.2-1.2l-68.4 39.5c-3.7 2.1-5.4 5-5.2 8 .2 3.3 2.7 6.7 7.4 9.4l19.2 11c8.9 5.2 22.5 5.7 30.2 1.2l68.4-39.5c3.7-2.1 5.4-5 5.2-8z"/><defs><filter id="Adobe_OpacityMaskFilter_2_" filterUnits="userSpaceOnUse" x="47.4" y="348.3" width="294.7" height="170.3"><feFlood result="back" flood-color="#fff" flood-opacity="1"/><feBlend in="SourceGraphic" in2="back"/></filter></defs><mask maskUnits="userSpaceOnUse" x="47.4" y="348.3" width="294.7" height="170.3" id="SVGID_5_"><g filter="url(#Adobe_OpacityMaskFilter_2_)"><defs><filter id="Adobe_OpacityMaskFilter_3_" filterUnits="userSpaceOnUse" x="47.4" y="348.3" width="294.7" height="170.3"><feFlood result="back" flood-color="#fff" flood-opacity="1"/><feBlend in="SourceGraphic" in2="back"/></filter></defs><linearGradient id="SVGID_6_" gradientUnits="userSpaceOnUse" x1="194.768" y1="448.149" x2="194.768" y2="415.688"><stop offset=".002" stop-color="#ccc"/><stop offset=".999" stop-color="#4d4d4d"/></linearGradient><path mask="url(#SVGID_5_)" fill="url(#SVGID_6_)" d="M194.8 518.6c-5.6 0-11.2-1.4-16.2-4.3L51.8 441.1c-2.8-1.6-4.4-4.5-4.4-7.7s1.7-6.1 4.4-7.7l126.7-73.2c10-5.8 22.4-5.8 32.4 0l126.7 73.2c2.8 1.6 4.4 4.5 4.4 7.7s-1.7 6.1-4.4 7.7L211 514.3c-5 2.9-10.6 4.3-16.2 4.3zm0-168.2c-5.3 0-10.7 1.4-15.4 4.1L54 426.9c-2.4 1.4-3.8 3.8-3.8 6.6s1.4 5.2 3.8 6.6l125.3 72.4c9.5 5.5 21.4 5.5 30.9 0l125.3-72.4c2.4-1.4 3.8-3.8 3.8-6.6 0-2.7-1.4-5.2-3.8-6.6l-125.3-72.4c-4.8-2.7-10.1-4.1-15.4-4.1z"/></g></mask><linearGradient id="SVGID_7_" gradientUnits="userSpaceOnUse" x1="47.414" y1="433.493" x2="342.123" y2="433.493"><stop offset="0" stop-color="#ffc200"/><stop offset="1" stop-color="#ff0057"/></linearGradient><path fill="url(#SVGID_7_)" d="M194.8 518.6c-5.6 0-11.2-1.4-16.2-4.3L51.8 441.1c-2.8-1.6-4.4-4.5-4.4-7.7s1.7-6.1 4.4-7.7l126.7-73.2c10-5.8 22.4-5.8 32.4 0l126.7 73.2c2.8 1.6 4.4 4.5 4.4 7.7s-1.7 6.1-4.4 7.7L211 514.3c-5 2.9-10.6 4.3-16.2 4.3zm0-168.2c-5.3 0-10.7 1.4-15.4 4.1L54 426.9c-2.4 1.4-3.8 3.8-3.8 6.6s1.4 5.2 3.8 6.6l125.3 72.4c9.5 5.5 21.4 5.5 30.9 0l125.3-72.4c2.4-1.4 3.8-3.8 3.8-6.6 0-2.7-1.4-5.2-3.8-6.6l-125.3-72.4c-4.8-2.7-10.1-4.1-15.4-4.1z"/><linearGradient id="SVGID_44_" gradientUnits="userSpaceOnUse" x1="122.68" y1="400.307" x2="270.399" y2="400.307"><stop offset="0" stop-color="#ffc200"/><stop offset="1" stop-color="#ff0057"/></linearGradient><path fill="url(#SVGID_44_)" d="M196.5 443.2c-4 0-7.9-.9-11-2.6L127.3 407c-3-1.7-4.7-4.1-4.7-6.6s1.7-4.9 4.7-6.6l58.2-33.6c6-3.5 15.9-3.5 21.9 0l58.2 33.6c3 1.7 4.7 4.1 4.7 6.6s-1.7 4.9-4.7 6.6l-58.2 33.6c-2.9 1.7-6.9 2.6-10.9 2.6zm0-84.7c-3.8 0-7.6.8-10.5 2.5l-58.2 33.6c-2.7 1.6-4.2 3.6-4.2 5.7 0 2.2 1.5 4.2 4.2 5.7l58.2 33.6c5.8 3.3 15.2 3.3 20.9 0l58.2-33.6c2.7-1.6 4.2-3.6 4.2-5.7 0-2.2-1.5-4.2-4.2-5.7L207 361c-2.9-1.7-6.7-2.5-10.5-2.5z"/><linearGradient id="SVGID_45_" gradientUnits="userSpaceOnUse" x1="120.866" y1="397.839" x2="272.212" y2="397.839"><stop offset="0" stop-color="#ffc200"/><stop offset="1" stop-color="#ff0057"/></linearGradient><path opacity=".4" fill="url(#SVGID_45_)" d="M272.2 387.4v-19.9l-3.6-2c-1 6.2-8.4 10.3-14.5 11.2L212.4 401l-18.2 6.6-58.1-30 1.3-.8c-5-2.3-7.6-7.6-10.3-12.5l-3.9 2.3-2.3.7v20.3c0 2.6 1.7 5.2 5.1 7.1l58.2 33.6c6.8 3.9 17.9 3.9 24.7 0l58.2-33.6c3.4-1.9 5.1-4.5 5.1-7v-.3z"/><linearGradient id="SVGID_46_" gradientUnits="userSpaceOnUse" x1="135.923" y1="330.301" x2="256.003" y2="399.629"><stop offset="0" stop-color="#babcfd"/><stop offset=".229" stop-color="#a8acf6"/><stop offset=".686" stop-color="#7a81e3"/><stop offset="1" stop-color="#5661d5"/></linearGradient><path fill="url(#SVGID_46_)" d="M272.2 369.7v-13.2l-3.6-2c-1 6.2-8.4 10.3-14.5 11.2L212.4 390l-18.2 6.6-58.1-30 1.3-.8c-5-2.3-7.6-7.6-10.3-12.5l-3.9 2.3-2.3.7v13.5c0 2.6 1.7 5.2 5.1 7.1l58.2 33.6c6.8 3.9 17.9 3.9 24.7 0l58.2-33.6c3.4-1.9 5.1-4.5 5.1-7v-.2z"/><path opacity=".3" fill="#0F054C" d="M254.1 365.7L212.4 390l-15.8 5.7v17.8c4.5 0 9-1 12.4-3l58.2-33.6c3.4-1.9 5.1-4.5 5.1-7v-13.5l-3.3-1.9h-.3c-1.3 6.3-8.5 10.3-14.6 11.2z"/><linearGradient id="SVGID_47_" gradientUnits="userSpaceOnUse" x1="143.13" y1="325.632" x2="250.217" y2="387.459"><stop offset=".242" stop-color="#5661d5"/><stop offset=".389" stop-color="#7880e3"/><stop offset=".544" stop-color="#959aee"/><stop offset=".699" stop-color="#aaadf6"/><stop offset=".851" stop-color="#b6b8fb"/><stop offset="1" stop-color="#babcfd"/></linearGradient><path fill="url(#SVGID_47_)" d="M137.4 365.9l55.2-31.8c2.2-1.3 5.7-1.3 7.9 0l54.2 31.3-.6.4c6.1-.9 13.4-5 14.5-11.2l-60.8-33.8-17.7-4.7-14.4 8.5-48.5 28.9c2.6 4.7 5.3 10 10.2 12.4z"/><path opacity=".3" fill="#0F054C" d="M196.5 317.7L190 316l-14.4 8.5-48.5 28.9c2.7 4.8 5.4 10.1 10.3 12.5l55.2-31.8c1.1-.6 2.5-.9 4-.9v-15.5z"/><linearGradient id="SVGID_48_" gradientUnits="userSpaceOnUse" x1="120.866" y1="356.507" x2="272.212" y2="356.507"><stop offset="0" stop-color="#e7e7fb"/><stop offset=".36" stop-color="#d0d0f7"/><stop offset=".706" stop-color="#c2c2f5"/><stop offset="1" stop-color="#bdbdf4"/></linearGradient><path fill="url(#SVGID_48_)" d="M184.2 397.2L126 363.6c-6.8-3.9-6.8-10.3 0-14.3l58.2-33.6c6.8-3.9 17.9-3.9 24.7 0l58.2 33.6c6.8 3.9 6.8 10.3 0 14.3l-58.2 33.6c-6.8 4-17.9 4-24.7 0zm16.3-76.6c-2.2-1.3-5.7-1.3-7.9 0l-58.2 33.6c-2.2 1.3-2.2 3.3 0 4.6l58.2 33.6c2.2 1.3 5.7 1.3 7.9 0l58.2-33.6c2.2-1.3 2.2-3.3 0-4.6l-58.2-33.6z"/><path d="M258.7 354.2l-58.2-33.6c-2.2-1.3-5.7-1.3-7.9 0l-58.2 33.6c-1.5.8-1.9 2-1.4 3.1.2-.5.7-1 1.4-1.5l58.2-33.6c2.2-1.3 5.7-1.3 7.9 0l58.2 33.6c.7.4 1.2.9 1.4 1.5.5-1 .1-2.2-1.4-3.1zm8.4 9.4l-58.2 33.6c-6.8 3.9-17.9 3.9-24.7 0L126 363.6c-3-1.8-4.7-4-5-6.3-.4 2.9 1.3 5.8 5 8l58.2 33.6c6.8 3.9 17.9 3.9 24.7 0l58.2-33.6c3.8-2.2 5.4-5.1 5-8-.3 2.3-2 4.6-5 6.3z" fill="#FFF"/><linearGradient id="SVGID_49_" gradientUnits="userSpaceOnUse" x1="123.19" y1="356.507" x2="269.889" y2="356.507"><stop offset="0" stop-color="#e7e7fb"/><stop offset=".36" stop-color="#d0d0f7"/><stop offset=".706" stop-color="#c2c2f5"/><stop offset="1" stop-color="#bdbdf4"/></linearGradient><path fill="url(#SVGID_49_)" d="M185.8 396.3l-58.2-33.6c-5.9-3.4-5.9-9 0-12.4l58.2-33.6c5.9-3.4 15.5-3.4 21.4 0l58.2 33.6c5.9 3.4 5.9 9 0 12.4l-58.2 33.6c-5.9 3.4-15.5 3.4-21.4 0zm16.3-76.6c-3.1-1.8-8.1-1.8-11.2 0l-58.2 33.6c-3.1 1.8-3.1 4.7 0 6.5l58.2 33.6c3.1 1.8 8.1 1.8 11.2 0l58.2-33.6c3.1-1.8 3.1-4.7 0-6.5l-58.2-33.6z"/><linearGradient id="SVGID_50_" gradientUnits="userSpaceOnUse" x1="132.743" y1="356.507" x2="260.336" y2="356.507"><stop offset="0" stop-color="#ffc200"/><stop offset="1" stop-color="#ff0057"/></linearGradient><path opacity=".4" fill="url(#SVGID_50_)" d="M200.5 320.6c-2.2-1.3-5.7-1.3-7.9 0l-58.2 33.6c-2.2 1.3-2.2 3.3 0 4.6l58.2 33.6c2.2 1.3 5.7 1.3 7.9 0l58.2-33.6c2.2-1.3 2.2-3.3 0-4.6l-58.2-33.6z"/><linearGradient id="SVGID_51_" gradientUnits="userSpaceOnUse" x1="122.68" y1="337.235" x2="270.399" y2="337.235"><stop offset="0" stop-color="#ffc200"/><stop offset="1" stop-color="#ff0057"/></linearGradient><path class="line4" fill="url(#SVGID_51_)" d="M196.5 380.1c-4 0-7.9-.9-11-2.6l-58.2-33.6c-3-1.7-4.7-4.1-4.7-6.6s1.7-4.9 4.7-6.6l58.2-33.6c6-3.5 15.9-3.5 21.9 0l58.2 33.6c3 1.7 4.7 4.1 4.7 6.6s-1.7 4.9-4.7 6.6l-58.2 33.6c-2.9 1.7-6.9 2.6-10.9 2.6zm0-84.7c-3.8 0-7.6.8-10.5 2.5l-58.2 33.6c-2.7 1.6-4.2 3.6-4.2 5.7s1.5 4.2 4.2 5.7l58.2 33.6c5.8 3.3 15.2 3.3 20.9 0l58.2-33.6c2.7-1.6 4.2-3.6 4.2-5.7 0-2.2-1.5-4.2-4.2-5.7L207 297.9c-2.9-1.7-6.7-2.5-10.5-2.5z"/><g style="animation:topQuatro 5s ease infinite"><linearGradient id="SVGID_52_" gradientUnits="userSpaceOnUse" x1="120.866" y1="334.767" x2="272.212" y2="334.767"><stop offset="0" stop-color="#ffc200"/><stop offset="1" stop-color="#ff0057"/></linearGradient><path opacity=".4" fill="url(#SVGID_52_)" d="M272.2 324.3v-19.9l-3.6-2c-1 6.2-8.4 10.3-14.5 11.2L212.4 338l-18.2 6.6-58.1-30 1.3-.8c-5-2.3-7.6-7.6-10.3-12.5l-3.9 2.3-2.3.7v20.3c0 2.6 1.7 5.2 5.1 7.1l58.2 33.6c6.8 3.9 17.9 3.9 24.7 0l58.2-33.6c3.4-1.9 5.1-4.5 5.1-7v-.4z"/><linearGradient id="SVGID_53_" gradientUnits="userSpaceOnUse" x1="135.923" y1="267.229" x2="256.003" y2="336.557"><stop offset="0" stop-color="#babcfd"/><stop offset=".229" stop-color="#a8acf6"/><stop offset=".686" stop-color="#7a81e3"/><stop offset="1" stop-color="#5661d5"/></linearGradient><path fill="url(#SVGID_53_)" d="M272.2 306.6v-13.2l-3.6-2c-1 6.2-8.4 10.3-14.5 11.2L212.4 327l-18.2 6.6-58.1-30 1.3-.8c-5-2.3-7.6-7.6-10.3-12.5l-3.9 2.3-2.3.7v13.5c0 2.6 1.7 5.2 5.1 7.1l58.2 33.6c6.8 3.9 17.9 3.9 24.7 0l58.2-33.6c3.4-1.9 5.1-4.5 5.1-7v-.3z"/><path opacity=".3" fill="#0F054C" d="M254.1 302.6L212.4 327l-15.8 5.7v17.8c4.5 0 9-1 12.4-3l58.2-33.6c3.4-1.9 5.1-4.5 5.1-7v-13.5l-3.3-1.9h-.3c-1.3 6.2-8.5 10.2-14.6 11.1z"/><linearGradient id="SVGID_54_" gradientUnits="userSpaceOnUse" x1="143.13" y1="262.56" x2="250.217" y2="324.387"><stop offset=".242" stop-color="#5661d5"/><stop offset=".389" stop-color="#7880e3"/><stop offset=".544" stop-color="#959aee"/><stop offset=".699" stop-color="#aaadf6"/><stop offset=".851" stop-color="#b6b8fb"/><stop offset="1" stop-color="#babcfd"/></linearGradient><path fill="url(#SVGID_54_)" d="M137.4 302.8l55.2-31.8c2.2-1.3 5.7-1.3 7.9 0l54.2 31.3-.6.4c6.1-.9 13.4-5 14.5-11.2l-60.8-33.8-17.7-4.7-14.4 8.5-48.5 28.9c2.6 4.8 5.3 10.1 10.2 12.4z"/><path opacity=".3" fill="#0F054C" d="M196.5 254.6l-6.5-1.7-14.4 8.5-48.5 28.9c2.7 4.8 5.4 10.1 10.3 12.5l55.2-31.8c1.1-.6 2.5-.9 4-.9v-15.5z"/><linearGradient id="SVGID_55_" gradientUnits="userSpaceOnUse" x1="120.866" y1="293.435" x2="272.212" y2="293.435"><stop offset="0" stop-color="#e7e7fb"/><stop offset=".36" stop-color="#d0d0f7"/><stop offset=".706" stop-color="#c2c2f5"/><stop offset="1" stop-color="#bdbdf4"/></linearGradient><path fill="url(#SVGID_55_)" d="M184.2 334.2L126 300.6c-6.8-3.9-6.8-10.3 0-14.3l58.2-33.6c6.8-3.9 17.9-3.9 24.7 0l58.2 33.6c6.8 3.9 6.8 10.3 0 14.3l-58.2 33.6c-6.8 3.9-17.9 3.9-24.7 0zm16.3-76.7c-2.2-1.3-5.7-1.3-7.9 0l-58.2 33.6c-2.2 1.3-2.2 3.3 0 4.6l58.2 33.6c2.2 1.3 5.7 1.3 7.9 0l58.2-33.6c2.2-1.3 2.2-3.3 0-4.6l-58.2-33.6z"/><path d="M258.7 291.2l-58.2-33.6c-2.2-1.3-5.7-1.3-7.9 0l-58.2 33.6c-1.5.8-1.9 2-1.4 3.1.2-.5.7-1 1.4-1.5l58.2-33.6c2.2-1.3 5.7-1.3 7.9 0l58.2 33.6c.7.4 1.2.9 1.4 1.5.5-1.1.1-2.3-1.4-3.1zm8.4 9.4l-58.2 33.6c-6.8 3.9-17.9 3.9-24.7 0L126 300.6c-3-1.8-4.7-4-5-6.3-.4 2.9 1.3 5.8 5 8l58.2 33.6c6.8 3.9 17.9 3.9 24.7 0l58.2-33.6c3.8-2.2 5.4-5.1 5-8-.3 2.3-2 4.5-5 6.3z" fill="#FFF"/><linearGradient id="SVGID_56_" gradientUnits="userSpaceOnUse" x1="123.19" y1="293.435" x2="269.889" y2="293.435"><stop offset="0" stop-color="#e7e7fb"/><stop offset=".36" stop-color="#d0d0f7"/><stop offset=".706" stop-color="#c2c2f5"/><stop offset="1" stop-color="#bdbdf4"/></linearGradient><path fill="url(#SVGID_56_)" d="M185.8 333.2l-58.2-33.6c-5.9-3.4-5.9-9 0-12.4l58.2-33.6c5.9-3.4 15.5-3.4 21.4 0l58.2 33.6c5.9 3.4 5.9 9 0 12.4l-58.2 33.6c-5.9 3.4-15.5 3.4-21.4 0zm16.3-76.6c-3.1-1.8-8.1-1.8-11.2 0l-58.2 33.6c-3.1 1.8-3.1 4.7 0 6.5l58.2 33.6c3.1 1.8 8.1 1.8 11.2 0l58.2-33.6c3.1-1.8 3.1-4.7 0-6.5l-58.2-33.6z"/><linearGradient id="SVGID_57_" gradientUnits="userSpaceOnUse" x1="132.743" y1="293.435" x2="260.336" y2="293.435"><stop offset="0" stop-color="#ffc200"/><stop offset="1" stop-color="#ff0057"/></linearGradient><path opacity=".4" fill="url(#SVGID_57_)" d="M200.5 257.5c-2.2-1.3-5.7-1.3-7.9 0l-58.2 33.6c-2.2 1.3-2.2 3.3 0 4.6l58.2 33.6c2.2 1.3 5.7 1.3 7.9 0l58.2-33.6c2.2-1.3 2.2-3.3 0-4.6l-58.2-33.6z"/></g><linearGradient id="SVGID_58_" gradientUnits="userSpaceOnUse" x1="196.536" y1="330.268" x2="196.536" y2="85.804"><stop offset="0" stop-color="#40e6de"/><stop offset=".102" stop-color="#36b6bf"/><stop offset=".217" stop-color="#2b87a1"/><stop offset=".335" stop-color="#235f87"/><stop offset=".457" stop-color="#1c3f71"/><stop offset=".581" stop-color="#162561"/><stop offset=".709" stop-color="#121355"/><stop offset=".845" stop-color="#10084e"/><stop offset="1" stop-color="#0f054c"/></linearGradient><linearGradient id="SVGID_59_" gradientUnits="userSpaceOnUse" x1="122.68" y1="274.164" x2="270.399" y2="274.164"><stop offset="0" stop-color="#ffc200"/><stop offset="1" stop-color="#ff0057"/></linearGradient><path class="line1" fill="url(#SVGID_59_)" d="M196.5 317c-4 0-7.9-.9-11-2.6l-58.2-33.6c-3-1.7-4.7-4.1-4.7-6.6s1.7-4.9 4.7-6.6l58.2-33.6c6-3.5 15.9-3.5 21.9 0l58.2 33.6c3 1.7 4.7 4.1 4.7 6.6s-1.7 4.9-4.7 6.6l-58.2 33.6c-2.9 1.7-6.9 2.6-10.9 2.6zm-10.4-3.5c5.8 3.3 15.2 3.3 20.9 0l58.2-33.6c2.7-1.6 4.2-3.6 4.2-5.7s-1.5-4.2-4.2-5.7L207 234.8c-5.8-3.3-15.2-3.3-20.9 0l-58.2 33.6c-2.7 1.6-4.2 3.6-4.2 5.7s1.5 4.2 4.2 5.7l58.2 33.7z"/><g style="animation:topQuatro2 5s ease infinite"><linearGradient id="SVGID_60_" gradientUnits="userSpaceOnUse" x1="120.866" y1="271.695" x2="272.212" y2="271.695"><stop offset="0" stop-color="#ffc200"/><stop offset="1" stop-color="#ff0057"/></linearGradient><path opacity=".4" fill="url(#SVGID_60_)" d="M272.2 261.3v-19.9l-3.6-2c-1 6.2-8.4 10.3-14.5 11.2L212.4 275l-18.2 6.6-58.1-30 1.3-.8c-5-2.3-7.6-7.6-10.3-12.5l-3.9 2.3-2.3.7v20.3c0 2.6 1.7 5.2 5.1 7.1l58.2 33.6c6.8 3.9 17.9 3.9 24.7 0l58.2-33.6c3.4-1.9 5.1-4.5 5.1-7v-.4z"/><linearGradient id="SVGID_61_" gradientUnits="userSpaceOnUse" x1="135.923" y1="204.157" x2="256.003" y2="273.485"><stop offset="0" stop-color="#babcfd"/><stop offset=".229" stop-color="#a8acf6"/><stop offset=".686" stop-color="#7a81e3"/><stop offset="1" stop-color="#5661d5"/></linearGradient><path fill="url(#SVGID_61_)" d="M272.2 243.5v-13.2l-3.6-2c-1 6.2-8.4 10.3-14.5 11.2l-41.7 24.4-18.2 6.6-58.1-30 1.3-.8c-5-2.3-7.6-7.6-10.3-12.5l-3.9 2.3-2.3.7v13.5c0 2.6 1.7 5.2 5.1 7.1l58.2 33.6c6.8 3.9 17.9 3.9 24.7 0l58.2-33.6c3.4-1.9 5.1-4.5 5.1-7v-.3z"/><path opacity=".3" fill="#0F054C" d="M254.1 239.5l-41.7 24.4-15.8 5.7v17.8c4.5 0 9-1 12.4-3l58.2-33.6c3.4-1.9 5.1-4.5 5.1-7v-13.5l-3.3-1.9h-.3c-1.3 6.2-8.5 10.3-14.6 11.1z"/><linearGradient id="SVGID_62_" gradientUnits="userSpaceOnUse" x1="143.13" y1="199.488" x2="250.217" y2="261.315"><stop offset=".242" stop-color="#5661d5"/><stop offset=".389" stop-color="#7880e3"/><stop offset=".544" stop-color="#959aee"/><stop offset=".699" stop-color="#aaadf6"/><stop offset=".851" stop-color="#b6b8fb"/><stop offset="1" stop-color="#babcfd"/></linearGradient><path fill="url(#SVGID_62_)" d="M137.4 239.7l55.2-31.8c2.2-1.3 5.7-1.3 7.9 0l54.2 31.3-.6.4c6.1-.9 13.4-5 14.5-11.2l-60.8-33.8-17.7-4.7-14.4 8.5-48.5 29c2.6 4.7 5.3 10 10.2 12.3z"/><path opacity=".3" fill="#0F054C" d="M196.5 191.5l-6.5-1.7-14.4 8.5-48.5 29c2.7 4.8 5.4 10.1 10.3 12.5l55.2-31.8c1.1-.6 2.5-.9 4-.9v-15.6z"/><linearGradient id="SVGID_63_" gradientUnits="userSpaceOnUse" x1="120.866" y1="230.363" x2="272.212" y2="230.363"><stop offset="0" stop-color="#e7e7fb"/><stop offset=".36" stop-color="#d0d0f7"/><stop offset=".706" stop-color="#c2c2f5"/><stop offset="1" stop-color="#bdbdf4"/></linearGradient><path fill="url(#SVGID_63_)" d="M184.2 271.1L126 237.5c-6.8-3.9-6.8-10.3 0-14.3l58.2-33.6c6.8-3.9 17.9-3.9 24.7 0l58.2 33.6c6.8 3.9 6.8 10.3 0 14.3l-58.2 33.6c-6.8 3.9-17.9 3.9-24.7 0zm16.3-76.6c-2.2-1.3-5.7-1.3-7.9 0l-58.2 33.6c-2.2 1.3-2.2 3.3 0 4.6l58.2 33.6c2.2 1.3 5.7 1.3 7.9 0l58.2-33.6c2.2-1.3 2.2-3.3 0-4.6l-58.2-33.6z"/><path d="M258.7 228.1l-58.2-33.6c-2.2-1.3-5.7-1.3-7.9 0l-58.2 33.6c-1.5.8-1.9 2-1.4 3.1.2-.5.7-1 1.4-1.5l58.2-33.6c2.2-1.3 5.7-1.3 7.9 0l58.2 33.6c.7.4 1.2.9 1.4 1.5.5-1.1.1-2.3-1.4-3.1zm8.4 9.4l-58.2 33.6c-6.8 3.9-17.9 3.9-24.7 0L126 237.5c-3-1.8-4.7-4-5-6.3-.4 2.9 1.3 5.8 5 8l58.2 33.6c6.8 3.9 17.9 3.9 24.7 0l58.2-33.6c3.8-2.2 5.4-5.1 5-8-.3 2.3-2 4.5-5 6.3z" fill="#FFF"/><linearGradient id="SVGID_64_" gradientUnits="userSpaceOnUse" x1="123.19" y1="230.363" x2="269.889" y2="230.363"><stop offset="0" stop-color="#e7e7fb"/><stop offset=".36" stop-color="#d0d0f7"/><stop offset=".706" stop-color="#c2c2f5"/><stop offset="1" stop-color="#bdbdf4"/></linearGradient><path fill="url(#SVGID_64_)" d="M185.8 270.2l-58.2-33.6c-5.9-3.4-5.9-9 0-12.4l58.2-33.6c5.9-3.4 15.5-3.4 21.4 0l58.2 33.6c5.9 3.4 5.9 9 0 12.4l-58.2 33.6c-5.9 3.4-15.5 3.4-21.4 0zm16.3-76.7c-3.1-1.8-8.1-1.8-11.2 0l-58.2 33.6c-3.1 1.8-3.1 4.7 0 6.5l58.2 33.6c3.1 1.8 8.1 1.8 11.2 0l58.2-33.6c3.1-1.8 3.1-4.7 0-6.5l-58.2-33.6z"/><linearGradient id="SVGID_65_" gradientUnits="userSpaceOnUse" x1="132.743" y1="230.363" x2="260.336" y2="230.363"><stop offset="0" stop-color="#ffc200"/><stop offset="1" stop-color="#ff0057"/></linearGradient><path opacity=".4" fill="url(#SVGID_65_)" d="M200.5 194.5c-2.2-1.3-5.7-1.3-7.9 0l-58.2 33.6c-2.2 1.3-2.2 3.3 0 4.6l58.2 33.6c2.2 1.3 5.7 1.3 7.9 0l58.2-33.6c2.2-1.3 2.2-3.3 0-4.6l-58.2-33.6z"/></g><defs><filter id="Adobe_OpacityMaskFilter_4_" filterUnits="userSpaceOnUse" x="81.5" y="179.2" width="226.5" height="319.5"><feColorMatrix values="1 0 0 0 0 0 1 0 0 0 0 0 1 0 0 0 0 0 1 0"/></filter></defs><mask maskUnits="userSpaceOnUse" x="81.5" y="179.2" width="226.5" height="319.5" id="SVGID_66_"><g filter="url(#Adobe_OpacityMaskFilter_4_)"><linearGradient id="SVGID_67_" gradientUnits="userSpaceOnUse" x1="196.443" y1="179.166" x2="196.443" y2="488.84"><stop offset="0"/><stop offset=".094" stop-color="#060606"/><stop offset=".219" stop-color="#171717"/><stop offset=".361" stop-color="#323232"/><stop offset=".516" stop-color="#595959"/><stop offset=".682" stop-color="#8b8b8b"/><stop offset=".853" stop-color="#c6c6c6"/><stop offset="1" stop-color="#fff"/></linearGradient><path fill="url(#SVGID_67_)" d="M74.7 171.4h243.5v331.3H74.7z"/></g></mask><linearGradient id="SVGID_68_" gradientUnits="userSpaceOnUse" x1="48.796" y1="348.881" x2="422.162" y2="308.531"><stop offset="0" stop-color="#ffc200"/><stop offset="1" stop-color="#ff0057"/></linearGradient><path opacity=".7" mask="url(#SVGID_66_)" fill="url(#SVGID_68_)" d="M308 433.3V182.5c0-1.8-1.5-3.3-3.3-3.3H84.9c-1.8 0-3.3 1.5-3.3 3.3v250c0 .7 0 1.5.3 2.2.1.2.1.3.2.5v.1c.1.2.1.3.2.5v.1c.1.1.2.3.2.4 0 0 0 .1.1.1.1.2.2.3.3.5.3.4.5.7.8 1.1l.1.1.4.4.2.2c.1.1.2.2.4.3l.2.2c.1.1.2.2.4.3.1.1.2.1.2.2.1.1.3.2.4.3.1.1.2.1.2.2.1.1.3.2.5.3.1 0 .1.1.2.1.2.1.5.3.7.4l93.7 54.1c4.2 2.4 9.5 3.6 14.6 3.5 1.1 0 2.1-.1 3.1-.2.1 0 .3 0 .4-.1 2.6-.4 5-1.1 6.9-2.2l61.7-35.6 35.6-20.6.6-.3c.1 0 .1-.1.2-.1.1-.1.2-.2.3-.2l.2-.2c.1-.1.2-.1.3-.2.1-.1.2-.1.2-.2l.2-.2.2-.2.2-.2c.1-.1.1-.2.2-.2 0-.1.1-.1.1-.2.1-.1.1-.2.2-.3 0-.1.1-.1.1-.2.1-.1.1-.2.2-.3l.1-.1c.1-.1.1-.2.2-.3 0 0 0-.1.1-.1.1-.1.1-.2.2-.3 0 0 0-.1.1-.1 0-.1.1-.2.1-.3v-.1c0-.1.1-.2.1-.4v-.1c0-.1.1-.3.1-.4v-.1c0-.1 0-.3.1-.4v-.4c.1-.2.1-.4.1-.5z"/><g opacity=".5"><defs><filter id="Adobe_OpacityMaskFilter_5_" filterUnits="userSpaceOnUse" x="111.3" y="248.9" width=".8" height="121.3"><feFlood result="back" flood-color="#fff" flood-opacity="1"/><feBlend in="SourceGraphic" in2="back"/></filter></defs><mask maskUnits="userSpaceOnUse" x="111.3" y="248.9" width=".8" height="121.3" id="SVGID_69_"><g filter="url(#Adobe_OpacityMaskFilter_5_)"><defs><filter id="Adobe_OpacityMaskFilter_6_" filterUnits="userSpaceOnUse" x="111.3" y="248.9" width=".8" height="121.3"><feFlood result="back" flood-color="#fff" flood-opacity="1"/><feBlend in="SourceGraphic" in2="back"/></filter></defs><linearGradient id="SVGID_70_" gradientUnits="userSpaceOnUse" x1="111.659" y1="249.209" x2="111.659" y2="368.24"><stop offset="0" stop-color="#fff"/><stop offset=".042" stop-color="#e7e7e7"/><stop offset=".148" stop-color="#b2b2b2"/><stop offset=".259" stop-color="#828282"/><stop offset=".37" stop-color="#5a5a5a"/><stop offset=".485" stop-color="#393939"/><stop offset=".602" stop-color="#202020"/><stop offset=".723" stop-color="#0e0e0e"/><stop offset=".851" stop-color="#030303"/><stop offset=".998"/></linearGradient><path mask="url(#SVGID_69_)" fill="url(#SVGID_70_)" d="M111.7 370.2c-.2 0-.4-.7-.4-1.6V250.4c0-.9.2-1.6.4-1.6s.4.7.4 1.6v118.2c0 .9-.2 1.6-.4 1.6z"/></g></mask><linearGradient id="SVGID_71_" gradientUnits="userSpaceOnUse" x1="111.659" y1="249.209" x2="111.659" y2="368.24"><stop offset="0" stop-color="#ffc200"/><stop offset="1" stop-color="#ff0057"/></linearGradient><path class="line2" fill="url(#SVGID_71_)" d="M111.7 370.2c-.2 0-.4-.7-.4-1.6V250.4c0-.9.2-1.6.4-1.6s.4.7.4 1.6v118.2c0 .9-.2 1.6-.4 1.6z"/><defs><filter id="Adobe_OpacityMaskFilter_7_" filterUnits="userSpaceOnUse" x="91.7" y="165.1" width="1.4" height="121.3"><feFlood result="back" flood-color="#fff" flood-opacity="1"/><feBlend in="SourceGraphic" in2="back"/></filter></defs><mask maskUnits="userSpaceOnUse" x="91.7" y="165.1" width="1.4" height="121.3" id="SVGID_72_"><g filter="url(#Adobe_OpacityMaskFilter_7_)"><defs><filter id="Adobe_OpacityMaskFilter_8_" filterUnits="userSpaceOnUse" x="91.7" y="165.1" width="1.4" height="121.3"><feFlood result="back" flood-color="#fff" flood-opacity="1"/><feBlend in="SourceGraphic" in2="back"/></filter></defs><linearGradient id="SVGID_73_" gradientUnits="userSpaceOnUse" x1="92.368" y1="165.415" x2="92.368" y2="284.446"><stop offset="0" stop-color="#fff"/><stop offset=".042" stop-color="#e7e7e7"/><stop offset=".148" stop-color="#b2b2b2"/><stop offset=".259" stop-color="#828282"/><stop offset=".37" stop-color="#5a5a5a"/><stop offset=".485" stop-color="#393939"/><stop offset=".602" stop-color="#202020"/><stop offset=".723" stop-color="#0e0e0e"/><stop offset=".851" stop-color="#030303"/><stop offset=".998"/></linearGradient><path mask="url(#SVGID_72_)" fill="url(#SVGID_73_)" d="M92.4 286.4c-.4 0-.7-.7-.7-1.6V166.6c0-.9.3-1.6.7-1.6.4 0 .7.7.7 1.6v118.2c0 .9-.3 1.6-.7 1.6z"/></g></mask><linearGradient id="SVGID_74_" gradientUnits="userSpaceOnUse" x1="92.368" y1="165.415" x2="92.368" y2="284.446"><stop offset="0" stop-color="#ffc200"/><stop offset="1" stop-color="#ff0057"/></linearGradient><path fill="url(#SVGID_74_)" d="M92.4 286.4c-.4 0-.7-.7-.7-1.6V166.6c0-.9.3-1.6.7-1.6.4 0 .7.7.7 1.6v118.2c0 .9-.3 1.6-.7 1.6z" style="animation:topLine 5s linear infinite"/><defs><filter id="Adobe_OpacityMaskFilter_9_" filterUnits="userSpaceOnUse" x="269.8" y="182.5" width="1.4" height="121.3"><feFlood result="back" flood-color="#fff" flood-opacity="1"/><feBlend in="SourceGraphic" in2="back"/></filter></defs><mask maskUnits="userSpaceOnUse" x="269.8" y="182.5" width="1.4" height="121.3" id="SVGID_75_"><g filter="url(#Adobe_OpacityMaskFilter_9_)"><defs><filter id="Adobe_OpacityMaskFilter_10_" filterUnits="userSpaceOnUse" x="269.8" y="182.5" width="1.4" height="121.3"><feFlood result="back" flood-color="#fff" flood-opacity="1"/><feBlend in="SourceGraphic" in2="back"/></filter></defs><linearGradient id="SVGID_76_" gradientUnits="userSpaceOnUse" x1="270.51" y1="182.869" x2="270.51" y2="301.9"><stop offset="0" stop-color="#fff"/><stop offset=".042" stop-color="#e7e7e7"/><stop offset=".148" stop-color="#b2b2b2"/><stop offset=".259" stop-color="#828282"/><stop offset=".37" stop-color="#5a5a5a"/><stop offset=".485" stop-color="#393939"/><stop offset=".602" stop-color="#202020"/><stop offset=".723" stop-color="#0e0e0e"/><stop offset=".851" stop-color="#030303"/><stop offset=".998"/></linearGradient><path mask="url(#SVGID_75_)" fill="url(#SVGID_76_)" d="M270.5 303.9c-.4 0-.7-.7-.7-1.6V184.1c0-.9.3-1.6.7-1.6.4 0 .7.7.7 1.6v118.2c0 .9-.3 1.6-.7 1.6z"/></g></mask><linearGradient id="SVGID_77_" gradientUnits="userSpaceOnUse" x1="270.51" y1="182.869" x2="270.51" y2="301.9"><stop offset="0" stop-color="#ffc200"/><stop offset="1" stop-color="#ff0057"/></linearGradient><path class="line4" fill="url(#SVGID_77_)" d="M270.5 303.9c-.4 0-.7-.7-.7-1.6V184.1c0-.9.3-1.6.7-1.6.4 0 .7.7.7 1.6v118.2c0 .9-.3 1.6-.7 1.6z"/><defs><filter id="Adobe_OpacityMaskFilter_11_" filterUnits="userSpaceOnUse" x="289.9" y="227.9" width="1.4" height="121.3"><feFlood result="back" flood-color="#fff" flood-opacity="1"/><feBlend in="SourceGraphic" in2="back"/></filter></defs><mask maskUnits="userSpaceOnUse" x="289.9" y="227.9" width="1.4" height="121.3" id="SVGID_78_"><g filter="url(#Adobe_OpacityMaskFilter_11_)"><defs><filter id="Adobe_OpacityMaskFilter_12_" filterUnits="userSpaceOnUse" x="289.9" y="227.9" width="1.4" height="121.3"><feFlood result="back" flood-color="#fff" flood-opacity="1"/><feBlend in="SourceGraphic" in2="back"/></filter></defs><linearGradient id="SVGID_79_" gradientUnits="userSpaceOnUse" x1="290.65" y1="228.219" x2="290.65" y2="347.25"><stop offset="0" stop-color="#fff"/><stop offset=".042" stop-color="#e7e7e7"/><stop offset=".148" stop-color="#b2b2b2"/><stop offset=".259" stop-color="#828282"/><stop offset=".37" stop-color="#5a5a5a"/><stop offset=".485" stop-color="#393939"/><stop offset=".602" stop-color="#202020"/><stop offset=".723" stop-color="#0e0e0e"/><stop offset=".851" stop-color="#030303"/><stop offset=".998"/></linearGradient><path mask="url(#SVGID_78_)" fill="url(#SVGID_79_)" d="M290.6 349.2c-.4 0-.7-.7-.7-1.6V229.4c0-.9.3-1.6.7-1.6.4 0 .7.7.7 1.6v118.2c.1.9-.3 1.6-.7 1.6z"/></g></mask><linearGradient id="SVGID_80_" gradientUnits="userSpaceOnUse" x1="290.65" y1="228.219" x2="290.65" y2="347.25"><stop offset="0" stop-color="#ffc200"/><stop offset="1" stop-color="#ff0057"/></linearGradient><path class="line1" fill="url(#SVGID_80_)" d="M290.6 349.2c-.4 0-.7-.7-.7-1.6V229.4c0-.9.3-1.6.7-1.6.4 0 .7.7.7 1.6v118.2c.1.9-.3 1.6-.7 1.6z"/><defs><filter id="Adobe_OpacityMaskFilter_13_" filterUnits="userSpaceOnUse" x="189.2" y="196.8" width="1.4" height="117"><feFlood result="back" flood-color="#fff" flood-opacity="1"/><feBlend in="SourceGraphic" in2="back"/></filter></defs><mask maskUnits="userSpaceOnUse" x="189.2" y="196.8" width="1.4" height="117" id="SVGID_81_"><g filter="url(#Adobe_OpacityMaskFilter_13_)"><defs><filter id="Adobe_OpacityMaskFilter_14_" filterUnits="userSpaceOnUse" x="189.2" y="196.8" width="1.4" height="117"><feFlood result="back" flood-color="#fff" flood-opacity="1"/><feBlend in="SourceGraphic" in2="back"/></filter></defs><linearGradient id="SVGID_82_" gradientUnits="userSpaceOnUse" x1="189.955" y1="197.104" x2="189.955" y2="311.921"><stop offset="0" stop-color="#fff"/><stop offset=".042" stop-color="#e7e7e7"/><stop offset=".148" stop-color="#b2b2b2"/><stop offset=".259" stop-color="#828282"/><stop offset=".37" stop-color="#5a5a5a"/><stop offset=".485" stop-color="#393939"/><stop offset=".602" stop-color="#202020"/><stop offset=".723" stop-color="#0e0e0e"/><stop offset=".851" stop-color="#030303"/><stop offset=".998"/></linearGradient><path mask="url(#SVGID_81_)" fill="url(#SVGID_82_)" d="M190 313.8c-.4 0-.7-.7-.7-1.6V198.3c0-.9.3-1.6.7-1.6.4 0 .7.7.7 1.6v113.9c0 .9-.4 1.6-.7 1.6z"/></g></mask><linearGradient id="SVGID_83_" gradientUnits="userSpaceOnUse" x1="189.955" y1="197.104" x2="189.955" y2="311.921"><stop offset="0" stop-color="#ffc200"/><stop offset="1" stop-color="#ff0057"/></linearGradient><path class="line2" fill="url(#SVGID_83_)" d="M190 313.8c-.4 0-.7-.7-.7-1.6V198.3c0-.9.3-1.6.7-1.6.4 0 .7.7.7 1.6v113.9c0 .9-.4 1.6-.7 1.6z"/><defs><filter id="Adobe_OpacityMaskFilter_15_" filterUnits="userSpaceOnUse" x="94.3" y="303.8" width="1.4" height="117"><feFlood result="back" flood-color="#fff" flood-opacity="1"/><feBlend in="SourceGraphic" in2="back"/></filter></defs><mask maskUnits="userSpaceOnUse" x="94.3" y="303.8" width="1.4" height="117" id="SVGID_84_"><g filter="url(#Adobe_OpacityMaskFilter_15_)"><defs><filter id="Adobe_OpacityMaskFilter_16_" filterUnits="userSpaceOnUse" x="94.3" y="303.8" width="1.4" height="117"><feFlood result="back" flood-color="#fff" flood-opacity="1"/><feBlend in="SourceGraphic" in2="back"/></filter></defs><linearGradient id="SVGID_85_" gradientUnits="userSpaceOnUse" x1="95.026" y1="304.138" x2="95.026" y2="418.954"><stop offset="0" stop-color="#fff"/><stop offset=".042" stop-color="#e7e7e7"/><stop offset=".148" stop-color="#b2b2b2"/><stop offset=".259" stop-color="#828282"/><stop offset=".37" stop-color="#5a5a5a"/><stop offset=".485" stop-color="#393939"/><stop offset=".602" stop-color="#202020"/><stop offset=".723" stop-color="#0e0e0e"/><stop offset=".851" stop-color="#030303"/><stop offset=".998"/></linearGradient><path mask="url(#SVGID_84_)" fill="url(#SVGID_85_)" d="M95 420.9c-.4 0-.7-.7-.7-1.6V305.4c0-.9.3-1.6.7-1.6.4 0 .7.7.7 1.6v113.9c0 .9-.3 1.6-.7 1.6z"/></g></mask><linearGradient id="SVGID_86_" gradientUnits="userSpaceOnUse" x1="95.026" y1="304.138" x2="95.026" y2="418.954"><stop offset="0" stop-color="#ffc200"/><stop offset="1" stop-color="#ff0057"/></linearGradient><path class="line1" fill="url(#SVGID_86_)" d="M95 420.9c-.4 0-.7-.7-.7-1.6V305.4c0-.9.3-1.6.7-1.6.4 0 .7.7.7 1.6v113.9c0 .9-.3 1.6-.7 1.6z"/><defs><filter id="Adobe_OpacityMaskFilter_17_" filterUnits="userSpaceOnUse" x="298.7" y="298.6" width="1.4" height="117"><feFlood result="back" flood-color="#fff" flood-opacity="1"/><feBlend in="SourceGraphic" in2="back"/></filter></defs><mask maskUnits="userSpaceOnUse" x="298.7" y="298.6" width="1.4" height="117" id="SVGID_87_"><g filter="url(#Adobe_OpacityMaskFilter_17_)"><defs><filter id="Adobe_OpacityMaskFilter_18_" filterUnits="userSpaceOnUse" x="298.7" y="298.6" width="1.4" height="117"><feFlood result="back" flood-color="#fff" flood-opacity="1"/><feBlend in="SourceGraphic" in2="back"/></filter></defs><linearGradient id="SVGID_88_" gradientUnits="userSpaceOnUse" x1="299.443" y1="298.941" x2="299.443" y2="413.757"><stop offset="0" stop-color="#fff"/><stop offset=".042" stop-color="#e7e7e7"/><stop offset=".148" stop-color="#b2b2b2"/><stop offset=".259" stop-color="#828282"/><stop offset=".37" stop-color="#5a5a5a"/><stop offset=".485" stop-color="#393939"/><stop offset=".602" stop-color="#202020"/><stop offset=".723" stop-color="#0e0e0e"/><stop offset=".851" stop-color="#030303"/><stop offset=".998"/></linearGradient><path mask="url(#SVGID_87_)" fill="url(#SVGID_88_)" d="M299.4 415.7c-.4 0-.7-.7-.7-1.6V300.2c0-.9.3-1.6.7-1.6.4 0 .7.7.7 1.6v113.9c0 .9-.3 1.6-.7 1.6z"/></g></mask><linearGradient id="SVGID_89_" gradientUnits="userSpaceOnUse" x1="299.443" y1="298.941" x2="299.443" y2="413.757"><stop offset="0" stop-color="#ffc200"/><stop offset="1" stop-color="#ff0057"/></linearGradient><path class="line2" fill="url(#SVGID_89_)" d="M299.4 415.7c-.4 0-.7-.7-.7-1.6V300.2c0-.9.3-1.6.7-1.6.4 0 .7.7.7 1.6v113.9c0 .9-.3 1.6-.7 1.6z"/><defs><filter id="Adobe_OpacityMaskFilter_19_" filterUnits="userSpaceOnUse" x="223.5" y="82" width="1.4" height="117"><feFlood result="back" flood-color="#fff" flood-opacity="1"/><feBlend in="SourceGraphic" in2="back"/></filter></defs><mask maskUnits="userSpaceOnUse" x="223.5" y="82" width="1.4" height="117" id="SVGID_90_"><g filter="url(#Adobe_OpacityMaskFilter_19_)"><defs><filter id="Adobe_OpacityMaskFilter_20_" filterUnits="userSpaceOnUse" x="223.5" y="82" width="1.4" height="117"><feFlood result="back" flood-color="#fff" flood-opacity="1"/><feBlend in="SourceGraphic" in2="back"/></filter></defs><linearGradient id="SVGID_91_" gradientUnits="userSpaceOnUse" x1="224.194" y1="82.299" x2="224.194" y2="197.116"><stop offset="0" stop-color="#fff"/><stop offset=".042" stop-color="#e7e7e7"/><stop offset=".148" stop-color="#b2b2b2"/><stop offset=".259" stop-color="#828282"/><stop offset=".37" stop-color="#5a5a5a"/><stop offset=".485" stop-color="#393939"/><stop offset=".602" stop-color="#202020"/><stop offset=".723" stop-color="#0e0e0e"/><stop offset=".851" stop-color="#030303"/><stop offset=".998"/></linearGradient><path mask="url(#SVGID_90_)" fill="url(#SVGID_91_)" d="M224.2 199c-.4 0-.7-.7-.7-1.6V83.5c0-.9.3-1.6.7-1.6.4 0 .7.7.7 1.6v113.9c0 .9-.3 1.6-.7 1.6z"/></g></mask><defs><filter id="Adobe_OpacityMaskFilter_21_" filterUnits="userSpaceOnUse" x="222.1" y="306.3" width=".6" height="117"><feFlood result="back" flood-color="#fff" flood-opacity="1"/><feBlend in="SourceGraphic" in2="back"/></filter></defs><mask maskUnits="userSpaceOnUse" x="222.1" y="306.3" width=".6" height="117" id="SVGID_93_"><g filter="url(#Adobe_OpacityMaskFilter_21_)"><defs><filter id="Adobe_OpacityMaskFilter_22_" filterUnits="userSpaceOnUse" x="222.1" y="306.3" width=".6" height="117"><feFlood result="back" flood-color="#fff" flood-opacity="1"/><feBlend in="SourceGraphic" in2="back"/></filter></defs><linearGradient id="SVGID_94_" gradientUnits="userSpaceOnUse" x1="222.383" y1="306.676" x2="222.383" y2="421.493"><stop offset="0" stop-color="#fff"/><stop offset=".042" stop-color="#e7e7e7"/><stop offset=".148" stop-color="#b2b2b2"/><stop offset=".259" stop-color="#828282"/><stop offset=".37" stop-color="#5a5a5a"/><stop offset=".485" stop-color="#393939"/><stop offset=".602" stop-color="#202020"/><stop offset=".723" stop-color="#0e0e0e"/><stop offset=".851" stop-color="#030303"/><stop offset=".998"/></linearGradient><path mask="url(#SVGID_93_)" fill="url(#SVGID_94_)" d="M222.4 423.4c-.2 0-.3-.7-.3-1.6V307.9c0-.9.1-1.6.3-1.6.2 0 .3.7.3 1.6v113.9c0 .9-.1 1.6-.3 1.6z"/></g></mask><linearGradient id="SVGID_95_" gradientUnits="userSpaceOnUse" x1="222.383" y1="306.676" x2="222.383" y2="421.493"><stop offset="0" stop-color="#ffc200"/><stop offset="1" stop-color="#ff0057"/></linearGradient><path fill="url(#SVGID_95_)" d="M222.4 423.4c-.2 0-.3-.7-.3-1.6V307.9c0-.9.1-1.6.3-1.6.2 0 .3.7.3 1.6v113.9c0 .9-.1 1.6-.3 1.6z"/><defs><filter id="Adobe_OpacityMaskFilter_23_" filterUnits="userSpaceOnUse" x="298.8" y="158.1" width=".8" height="117"><feFlood result="back" flood-color="#fff" flood-opacity="1"/><feBlend in="SourceGraphic" in2="back"/></filter></defs><mask maskUnits="userSpaceOnUse" x="298.8" y="158.1" width=".8" height="117" id="SVGID_96_"><g filter="url(#Adobe_OpacityMaskFilter_23_)"><defs><filter id="Adobe_OpacityMaskFilter_24_" filterUnits="userSpaceOnUse" x="298.8" y="158.1" width=".8" height="117"><feFlood result="back" flood-color="#fff" flood-opacity="1"/><feBlend in="SourceGraphic" in2="back"/></filter></defs><linearGradient id="SVGID_97_" gradientUnits="userSpaceOnUse" x1="299.217" y1="158.41" x2="299.217" y2="273.226"><stop offset="0" stop-color="#fff"/><stop offset=".042" stop-color="#e7e7e7"/><stop offset=".148" stop-color="#b2b2b2"/><stop offset=".259" stop-color="#828282"/><stop offset=".37" stop-color="#5a5a5a"/><stop offset=".485" stop-color="#393939"/><stop offset=".602" stop-color="#202020"/><stop offset=".723" stop-color="#0e0e0e"/><stop offset=".851" stop-color="#030303"/><stop offset=".998"/></linearGradient><path mask="url(#SVGID_96_)" fill="url(#SVGID_97_)" d="M299.2 275.1c-.2 0-.4-.7-.4-1.6V159.6c0-.9.2-1.6.4-1.6s.4.7.4 1.6v113.9c0 .9-.2 1.6-.4 1.6z"/></g></mask><linearGradient id="SVGID_98_" gradientUnits="userSpaceOnUse" x1="299.217" y1="158.41" x2="299.217" y2="273.226"><stop offset="0" stop-color="#ffc200"/><stop offset="1" stop-color="#ff0057"/></linearGradient><path class="line1" fill="url(#SVGID_98_)" d="M299.2 275.1c-.2 0-.4-.7-.4-1.6V159.6c0-.9.2-1.6.4-1.6s.4.7.4 1.6v113.9c0 .9-.2 1.6-.4 1.6z"/><defs><filter id="Adobe_OpacityMaskFilter_25_" filterUnits="userSpaceOnUse" x="83.9" y="303.8" width="2.8" height="117"><feFlood result="back" flood-color="#fff" flood-opacity="1"/><feBlend in="SourceGraphic" in2="back"/></filter></defs><mask maskUnits="userSpaceOnUse" x="83.9" y="303.8" width="2.8" height="117" id="SVGID_99_"><g filter="url(#Adobe_OpacityMaskFilter_25_)"><defs><filter id="Adobe_OpacityMaskFilter_26_" filterUnits="userSpaceOnUse" x="83.9" y="303.8" width="2.8" height="117"><feFlood result="back" flood-color="#fff" flood-opacity="1"/><feBlend in="SourceGraphic" in2="back"/></filter></defs><linearGradient id="SVGID_100_" gradientUnits="userSpaceOnUse" x1="85.283" y1="304.138" x2="85.283" y2="418.954"><stop offset="0" stop-color="#fff"/><stop offset=".042" stop-color="#e7e7e7"/><stop offset=".148" stop-color="#b2b2b2"/><stop offset=".259" stop-color="#828282"/><stop offset=".37" stop-color="#5a5a5a"/><stop offset=".485" stop-color="#393939"/><stop offset=".602" stop-color="#202020"/><stop offset=".723" stop-color="#0e0e0e"/><stop offset=".851" stop-color="#030303"/><stop offset=".998"/></linearGradient><path mask="url(#SVGID_99_)" fill="url(#SVGID_100_)" d="M85.3 420.9c-.8 0-1.4-.7-1.4-1.6V305.4c0-.9.6-1.6 1.4-1.6.8 0 1.4.7 1.4 1.6v113.9c0 .9-.6 1.6-1.4 1.6z"/></g></mask><linearGradient id="SVGID_101_" gradientUnits="userSpaceOnUse" x1="85.283" y1="304.138" x2="85.283" y2="418.954"><stop offset="0" stop-color="#ffc200"/><stop offset="1" stop-color="#ff0057"/></linearGradient><defs><filter id="Adobe_OpacityMaskFilter_27_" filterUnits="userSpaceOnUse" x="83.9" y="225.1" width="2.8" height="117"><feFlood result="back" flood-color="#fff" flood-opacity="1"/><feBlend in="SourceGraphic" in2="back"/></filter></defs><mask maskUnits="userSpaceOnUse" x="83.9" y="225.1" width="2.8" height="117" id="SVGID_102_"><g filter="url(#Adobe_OpacityMaskFilter_27_)"><defs><filter id="Adobe_OpacityMaskFilter_28_" filterUnits="userSpaceOnUse" x="83.9" y="225.1" width="2.8" height="117"><feFlood result="back" flood-color="#fff" flood-opacity="1"/><feBlend in="SourceGraphic" in2="back"/></filter></defs><linearGradient id="SVGID_103_" gradientUnits="userSpaceOnUse" x1="85.283" y1="225.464" x2="85.283" y2="340.281"><stop offset="0" stop-color="#fff"/><stop offset=".042" stop-color="#e7e7e7"/><stop offset=".148" stop-color="#b2b2b2"/><stop offset=".259" stop-color="#828282"/><stop offset=".37" stop-color="#5a5a5a"/><stop offset=".485" stop-color="#393939"/><stop offset=".602" stop-color="#202020"/><stop offset=".723" stop-color="#0e0e0e"/><stop offset=".851" stop-color="#030303"/><stop offset=".998"/></linearGradient><path mask="url(#SVGID_102_)" fill="url(#SVGID_103_)" d="M85.3 342.2c-.8 0-1.4-.7-1.4-1.6V226.7c0-.9.6-1.6 1.4-1.6.8 0 1.4.7 1.4 1.6v113.9c0 .9-.6 1.6-1.4 1.6z"/></g></mask><linearGradient id="SVGID_104_" gradientUnits="userSpaceOnUse" x1="85.283" y1="225.464" x2="85.283" y2="340.281"><stop offset="0" stop-color="#ffc200"/><stop offset="1" stop-color="#ff0057"/></linearGradient></g><path d="M261.2 497.5c.7.4.7 1.1 0 1.5-.7.4-1.9.4-2.7 0-.7-.4-.7-1.1 0-1.5.7-.4 1.9-.4 2.7 0zm14.2-8.2c.7.4.7 1.1 0 1.5-.7.4-1.9.4-2.7 0-.7-.4-.7-1.1 0-1.5.7-.4 1.9-.4 2.7 0zm14.2-8.2c.7.4.7 1.1 0 1.5-.7.4-1.9.4-2.7 0-.7-.4-.7-1.1 0-1.5.7-.5 1.9-.5 2.7 0zm-28.4 32.8c.7.4.7 1.1 0 1.5-.7.4-1.9.4-2.7 0-.7-.4-.7-1.1 0-1.5.7-.4 1.9-.4 2.7 0zm14.2-8.2c.7.4.7 1.1 0 1.5-.7.4-1.9.4-2.7 0-.7-.4-.7-1.1 0-1.5.7-.4 1.9-.4 2.7 0zm14.2-8.2c.7.4.7 1.1 0 1.5-.7.4-1.9.4-2.7 0s-.7-1.1 0-1.5c.7-.4 1.9-.4 2.7 0zm14.2-8.2c.7.4.7 1.1 0 1.5-.7.4-1.9.4-2.7 0-.7-.4-.7-1.1 0-1.5s1.9-.4 2.7 0zm-28.4 32.8c.7.4.7 1.1 0 1.5s-1.9.4-2.7 0c-.7-.4-.7-1.1 0-1.5.7-.4 1.9-.4 2.7 0zm42.6-24.6c.7.4.7 1.1 0 1.5-.7.4-1.9.4-2.7 0s-.7-1.1 0-1.5c.8-.4 1.9-.4 2.7 0zm-14.2 41c.7.4.7 1.1 0 1.5-.7.4-1.9.4-2.7 0-.7-.4-.7-1.1 0-1.5.8-.4 1.9-.4 2.7 0zm0-65.6c.7.4.7 1.1 0 1.5-.7.4-1.9.4-2.7 0-.7-.4-.7-1.1 0-1.5.7-.5 1.9-.5 2.7 0zm14.2-8.2c.7.4.7 1.1 0 1.5-.7.4-1.9.4-2.7 0-.7-.4-.7-1.1 0-1.5.8-.5 1.9-.5 2.7 0zm14.2-8.2c.7.4.7 1.1 0 1.5-.7.4-1.9.4-2.7 0-.7-.4-.7-1.1 0-1.5.8-.5 1.9-.5 2.7 0zM318 481.1c.7.4.7 1.1 0 1.5-.7.4-1.9.4-2.7 0s-.7-1.1 0-1.5c.8-.5 1.9-.5 2.7 0zm14.2-8.2c.7.4.7 1.1 0 1.5-.7.4-1.9.4-2.7 0s-.7-1.1 0-1.5c.8-.5 1.9-.5 2.7 0zm14.2-8.2c.7.4.7 1.1 0 1.5-.7.4-1.9.4-2.7 0s-.7-1.1 0-1.5c.8-.5 2-.5 2.7 0zm14.2 8.2c.7.4.7 1.1 0 1.5-.7.4-1.9.4-2.7 0-.7-.4-.7-1.1 0-1.5.8-.5 2-.5 2.7 0zM318 546.7c.7.4.7 1.1 0 1.5-.7.4-1.9.4-2.7 0-.7-.4-.7-1.1 0-1.5.8-.4 1.9-.4 2.7 0z" opacity=".2" fill="#FFF"/><path fill="#FFF" d="M346.7 447.1c-.2-3.3-2.7-6.7-7.4-9.4l-19.2-11c-8.9-5.2-22.5-5.7-30.2-1.2L221.6 465c-3.7 2.1-5.4 5-5.2 8 .2 3.3 2.7 6.7 7.4 9.4l19.2 11c8.9 5.2 22.5 5.7 30.2 1.2l68.4-39.5c3.6-2.1 5.3-5 5.1-8z"/><linearGradient id="SVGID_105_" gradientUnits="userSpaceOnUse" x1="216.384" y1="456.411" x2="346.736" y2="456.411"><stop offset="0" stop-color="#f7f8ff"/><stop offset="1" stop-color="#f3f3fa"/></linearGradient><path fill="url(#SVGID_105_)" d="M346.7 443.4c-.2-3.3-2.7-6.7-7.4-9.4l-19.2-11c-8.9-5.2-22.5-5.7-30.2-1.2l-68.4 39.5c-3.7 2.1-5.4 5-5.2 8 .2 3.3 2.7 6.7 7.4 9.4l19.2 11c8.9 5.2 22.5 5.7 30.2 1.2l68.4-39.5c3.7-2.1 5.4-4.9 5.2-8z"/><path fill="#BCC1E8" d="M276.9 475.2c-1.4 0-2.9-.4-4.1-1.1l-7.7-4.4c-1.1-.6-1.7-1.7-1.7-2.9s.6-2.3 1.7-2.9l34.5-19.9c2.5-1.5 5.7-1.5 8.3 0l7.7 4.4c1.1.6 1.7 1.7 1.7 2.9s-.6 2.3-1.7 2.9L281 474.1c-1.2.7-2.7 1.1-4.1 1.1zm26.8-31.6c-1.3 0-2.5.3-3.7 1l-34.5 19.9c-.8.4-1.2 1.2-1.2 2.1 0 .9.5 1.7 1.2 2.1l7.7 4.4c2.3 1.3 5.1 1.3 7.4 0l34.5-19.9c.8-.4 1.2-1.2 1.2-2.1 0-.9-.5-1.7-1.2-2.1l-7.7-4.4c-1.1-.6-2.4-1-3.7-1z"/><defs><filter id="Adobe_OpacityMaskFilter_29_" filterUnits="userSpaceOnUse" x="236.6" y="384.6" width="58.4" height="77.5"><feFlood result="back" flood-color="#fff" flood-opacity="1"/><feBlend in="SourceGraphic" in2="back"/></filter></defs><mask maskUnits="userSpaceOnUse" x="236.6" y="384.6" width="58.4" height="77.5" id="SVGID_106_"><g filter="url(#Adobe_OpacityMaskFilter_29_)"><defs><filter id="Adobe_OpacityMaskFilter_30_" filterUnits="userSpaceOnUse" x="236.6" y="384.6" width="58.4" height="77.5"><feFlood result="back" flood-color="#fff" flood-opacity="1"/><feBlend in="SourceGraphic" in2="back"/></filter></defs><linearGradient id="SVGID_107_" gradientUnits="userSpaceOnUse" x1="280.099" y1="445.461" x2="263.881" y2="420.423"><stop offset="0" stop-color="#fff"/><stop offset="1"/></linearGradient><path mask="url(#SVGID_106_)" fill="url(#SVGID_107_)" d="M295 428l-58.4 34.2v-43.4l58.4-34.2z"/></g></mask><path opacity=".6" fill="#0DF" d="M295 428l-58.4 34.2v-43.4l58.4-34.2z"/><path fill="#FFF" d="M257 402.6v-11.9c0-.7-.6-.9-1.2-.5-.7.4-1.2 1.3-1.2 2v11.9c0 .7.6.9 1.2.5s1.2-1.3 1.2-2z"/><path opacity=".8" fill="#02007B" d="M242.6 375.2l46.4-26.8c3.3-1.9 6-.4 6 3.5v53.5c0 3.8-2.7 8.5-6 10.4l-46.4 26.8c-3.3 1.9-6 .4-6-3.5v-53.5c0-3.8 2.7-8.5 6-10.4z"/><path fill="#40E4FF" d="M236.6 462.2c-.3 0-.5-.1-.6-.4-.2-.4-.1-.8.3-1l58.4-34.4c.4-.2.8-.1 1 .3.2.4.1.8-.3 1L237 462.1c-.1.1-.3.1-.4.1z"/><linearGradient id="SVGID_108_" gradientUnits="userSpaceOnUse" x1="309.719" y1="413.505" x2="248.984" y2="389.285"><stop offset="0" stop-color="#f7f8ff"/><stop offset=".18" stop-color="#eff1fd"/><stop offset=".47" stop-color="#d7def8"/><stop offset=".833" stop-color="#b0bfef"/><stop offset="1" stop-color="#9cafea"/></linearGradient><path fill="url(#SVGID_108_)" d="M282.8 381.3c0-8.1-8.7-8.8-15.8-1.3-7.1-.2-15.8 9.3-15.8 17.4v14.2c0 8.1 8.7 8.8 15.8 1.3 7.1.2 15.8-9.3 15.8-17.4v-14.2zm-30.6 29.8v-14.2c0-5.4 4.4-11.9 9.7-14.7 4.4-2.2 8-1.2 9.3 2.1-.5.5-1 1-1.4 1.6-.9-3.1-4.1-4.1-7.9-2.1-4.5 2.3-8.1 7.8-8.1 12.3v14.2c0 5.6 5.6 6.7 10.9 2.1.4.2.9.3 1.4.4-6.5 6.3-13.9 5.4-13.9-1.7zm10.7 0c.3.3.6.6 1 .9-4.6 3.7-9.2 2.6-9.2-2.2v-14.2c0-4 3.2-8.8 7.2-10.8s7.2-.4 7.2 3.5v4.1l-1.6.8v-4.1c0-3.1-2.5-4.3-5.6-2.7-3.1 1.6-5.6 5.3-5.6 8.4V409c0 3.5 3.2 4.5 6.6 2.1zm-5.6-2.6v-14.2c0-2.5 2.1-5.7 4.6-7 2.5-1.3 4.6-.3 4.6 2.3v4.1l-1.6.8v-4.1c0-1.7-1.4-2.3-3-1.5s-3 2.9-3 4.6v14.2c0 1.7 1.3 2.3 3 1.5.2.5.4.9.6 1.2-2.8 1.8-5.2.9-5.2-1.9zm4.6-.3c-1.1.6-2.1.1-2.1-1V393c0-1.1.9-2.5 2.1-3.1s2.1-.1 2.1 1v5.1l6.1-3.1v-5.1c0-1.1.9-2.5 2.1-3.1 1.1-.6 2.1-.1 2.1 1v14.2c0 1.1-.9 2.5-2.1 3.1s-2.1.1-2.1-1v-5.1L264 400v5.1c-.1 1.1-1 2.5-2.1 3.1zm13.2-23c0-1.7-1.3-2.3-3-1.5-.2-.5-.4-.9-.6-1.2 2.8-1.7 5.2-.8 5.2 2v14.2c0 2.5-2.1 5.7-4.6 7-2.5 1.3-4.6.3-4.6-2.3v-4.1l1.6-.8v4.1c0 1.7 1.4 2.3 3 1.5s3-2.9 3-4.6v-14.3zm-8.6 14.5v4.1c0 3.1 2.5 4.3 5.6 2.7 3.1-1.6 5.6-5.3 5.6-8.4v-14.2c0-3.5-3.2-4.5-6.6-2.1-.3-.3-.6-.6-1-.9 4.6-3.7 9.2-2.6 9.2 2.2v14.2c0 4-3.2 8.8-7.2 10.8s-7.2.4-7.2-3.5v-4.1l1.6-.8zm5.6 11c-4.4 2.2-8 1.2-9.3-2.1.5-.5 1-1 1.4-1.6.9 3.1 4.1 4.1 7.9 2.1 4.5-2.3 8.1-7.8 8.1-12.3v-14.2c0-5.6-5.6-6.7-10.9-2.1-.4-.2-.9-.3-1.4-.4 6.4-6.3 13.8-5.4 13.8 1.7V396c.1 5.4-4.3 11.9-9.6 14.7z"/><path fill="#3872CC" d="M321.9 423.5v-.1.1z"/><path fill="#FD8158" d="M324.2 426.7l1.2 8.2c.2 1.1-1.2 2.1-3 2.1s-3.4-.9-3.6-2.1l-1.2-8.2h6.6z"/><path fill="#E0E6F0" d="M327.1 436.5c0-1 .1-1.9 0-2.7-.1-.8-.4-1.5-1.3-2-1.8-1.2-4.2-.8-6 .4-2.3 1.6-1.9 3-1.9 5.4 0 3.3-.2 8.6-.3 12l1 .4c.5.2 1 .3 1.4.3 1.2.1 1.9-.1 3-.6l1.1-2.8.2 2 2.4-1.2c.4-.2.6-.6.6-1-.1-2.7-.2-7.4-.2-10.2z"/><linearGradient id="SVGID_109_" gradientUnits="userSpaceOnUse" x1="318.712" y1="531.121" x2="332.14" y2="531.121"><stop offset="0" stop-color="#02007b"/><stop offset="1" stop-color="#5468f9"/></linearGradient><path fill="url(#SVGID_109_)" d="M320.5 527.8c3.7-1 11.8.1 11.4 2.7.1.5.2 1 .2 1.5.2 5.2-7.2 2.1-9.8.7-4.7-2.7-4.2-4.3-1.8-4.9z"/><path fill="#1F3596" d="M333.4 457.1c.6 2.5.8 5.1.4 7.7-.2 1.3-.4 2.5-.9 3.7l-4.7 13.8c-.6 1.8.2 3.7 1.8 4.4.3.1.5.2.7.2 1.4.1 2.7-.8 3.2-2.3l4.7-13.8c.7-2 1.1-4.1 1.3-6.3.3-3.2.1-6.4-.7-9.4l-3.9-15c-.5-1.8-2.2-2.8-3.8-2.3-1.6.6-2.6 2.5-2.1 4.3l4 15z"/><linearGradient id="SVGID_110_" gradientUnits="userSpaceOnUse" x1="302.682" y1="538.332" x2="317.721" y2="538.332"><stop offset="0" stop-color="#02007b"/><stop offset="1" stop-color="#5468f9"/></linearGradient><path fill="url(#SVGID_110_)" d="M315.6 535.1c.8 0 1.5.6 1.8 1.3s.3 1.6.3 2.4c0 .7 0 1.5-.5 2-.3.3-.8.4-1.2.6-3.8 1-8.2.2-11.8-.9-.8-.2-1.5-.9-1.5-1.7 0-1.2 1.3-1.9 2.4-2.2 3.1-.9 6.7-1.6 9.9-1.6.6 0 1.4.3 1.3.9l-.7-.8z"/><path fill="#E0E6F0" d="M329.3 531.7h-.2c-1.2 0-2.1-.9-2.1-2.1v-3.5c0-1.2.9-2.1 2.1-2.1h.2c1.2 0 2.1.9 2.1 2.1v3.5c0 1.2-.9 2.1-2.1 2.1zm-15.2 6h-.1c-1.2 0-2.1-.9-2.1-2.1V532c0-1.2.9-2.1 2.1-2.1h.2c1.2 0 2.1.9 2.1 2.1v3.5c-.1 1.2-1 2.2-2.2 2.2z"/><linearGradient id="SVGID_111_" gradientUnits="userSpaceOnUse" x1="301.436" y1="495.503" x2="334.582" y2="504.888"><stop offset="0" stop-color="#f7f8ff"/><stop offset=".18" stop-color="#eff1fd"/><stop offset=".47" stop-color="#d7def8"/><stop offset=".833" stop-color="#b0bfef"/><stop offset="1" stop-color="#9cafea"/></linearGradient><path fill="url(#SVGID_111_)" d="M310.1 477.7l4.4-10.6 21.1 3.3v7.4s-3.6 20.6-3.7 21.4l.7 25.8c-.2 1.2-1.7 2.6-2.9 2.7l-1.3.1c-1.5.1-3.3-1.1-3.3-2.7l-2.4-22 1.3-17-3.7 3.1h-.1l-2.6 15.6c-1.1 6 0 26 0 26-.1 1.4-1.8 2.4-3.1 2.4h-1.8c-1.5 0-3.2-1.2-3.2-2.6l-.5-23.9c-.2-1.9-.1-3.7.1-5.6l1-23.4z"/><linearGradient id="SVGID_112_" gradientUnits="userSpaceOnUse" x1="309.586" y1="459.521" x2="336.115" y2="459.521"><stop offset="0" stop-color="#02007b"/><stop offset="1" stop-color="#5468f9"/></linearGradient><path fill="url(#SVGID_112_)" d="M309.7 480.1c.3-8.8.6-20.7.7-28.6v-2.6c-.1-4.8-.2-8.3 5.3-12 4.1-2.8 10.7-4.7 16.2-1 2.2 1.4 3.3 3.3 3.7 5.7.2 1.3.1 2.7.1 4.2 0 .9-.1 1.9 0 2.8.1 3.7.2 8.7.3 13.6.1 4.8.2 9.8.3 13.5 0 1.3-.6 2.5-1.8 3.1l-7 3.4-.4-4-2.2 5.5-.2.1c-2.2 1-4 1.6-6.4 1.6-.5 0-1.1 0-1.6-.1-1.4-.1-2.7-.4-3.9-.9l-3.1-1.1v-3.2z"/><path fill="#000438" d="M316.2 471.4V470c0-2.1.1-4.3.1-6.4.1-5.9 2.9-15.2.8-20.6-.4-1-1.5-2.8-2.7-2.8.2 0-.1.3-.2.4-.7.7-1.3 1.4-1.8 2.2-.3.5-.7.9-1.1 1.2l-1.3 38.9c2.9.8 5.9 2.4 7.9-1 .9-1.6.9-3.6.2-5.3-.5-1.2-1.4-2.3-1.7-3.5-.1-.5-.1-1.1-.2-1.7z" opacity=".51"/><path fill="#B0BCDE" d="M312.4 530h1.8c.8 0 1.6-.6 2.2-1.4.5-.6 1.4-.2 1.4.5v2c0 2-1.6 3.7-3.7 3.7h-1.8c-1.9 0-3.5-1.5-3.6-3.4v-2.5c0-.4.5-.6.8-.2.5.7 1.2 1.3 2.9 1.3zm15.6-5.1h1.6c.8 0 2.2-.3 2.5-1.3.2-.7.8-.2.8.5v1.9c0 1.9-1.5 3.4-3.3 3.4H328c-1.7 0-3.1-1.4-3.3-3.1V524c0-.4.5-.5.7-.2.4.6 1.1 1.2 2.6 1.1z"/><path fill="#FD8158" d="M290.4 454l15 9.8-15-9.8zm15 13.4c1.2 0 2.3-.6 3-1.6 1.1-1.7.6-3.9-1-5l-15-9.8c-1.7-1.1-3.9-.6-5 1-1.1 1.7-.6 3.9 1 5l15 9.8c.6.4 1.3.6 2 .6z"/><linearGradient id="SVGID_113_" gradientUnits="userSpaceOnUse" x1="279.48" y1="442.631" x2="331.196" y2="461.6"><stop offset="0" stop-color="#02007b"/><stop offset="1" stop-color="#5468f9"/></linearGradient><path fill="url(#SVGID_113_)" d="M308.6 467.8c1.2-.4 2.3-1.3 2.8-2.6l7.1-19.1c.8-2.2-.3-4.7-2.6-5.6-2.3-.8-4.8.3-5.6 2.6l-7.1 19.1c-.8 2.2.3 4.7 2.6 5.6 1 .3 2 .3 2.8 0z"/><g fill="#FD8158"><path d="M289.5 449.3c-2.2-.1-4.1-2.6-6.2-2.2-1.2.2-2.1 1.2-2.2 2.4-.1 1.2.4 2.4 1.2 3.3.8.9 1.9 1.6 3 2.2.5.3 1.1.6 1.7.6.8 0 1.5-.5 2-1.1 1.2-1.5 2.3-5 .5-5.2z"/><path d="M287.5 446.5c.5-.3 1.1 0 1.4.5l1.1 2.2c.3.5 0 1.1-.5 1.4-.5.3-1.1 0-1.4-.5l-1.1-2.2c-.2-.6 0-1.2.5-1.4z"/></g><linearGradient id="SVGID_114_" gradientUnits="userSpaceOnUse" x1="276.403" y1="451.019" x2="328.119" y2="469.988"><stop offset="0" stop-color="#02007b"/><stop offset="1" stop-color="#5468f9"/></linearGradient><path fill="url(#SVGID_114_)" d="M287 451.8c1.2-1.9 3.8-2.4 5.7-1.2l15 9.8c1.9 1.2 2.4 3.8 1.2 5.7-.8 1.2-2 1.9-3.4 1.9-.8 0-1.6-.2-2.2-.7l-15-9.8c-.9-.6-1.5-1.5-1.8-2.6-.3-1.1-.1-2.2.5-3.1z"/><path fill="#000670" d="M313.5 419.5c0 5 3.5 9.1 7.8 9.1 1.7 0 3.3-.6 4.6-1.7 2-1.6 3.2-4.3 3.2-7.4 0-.6-.1-1.3-.2-1.9-.2-1-.5-2-.9-2.8-.7-1.4-1.7-2.5-3-3.3-1.1-.7-2.4-1.1-3.7-1.1h-.5c-1.1.1-2.1.4-3 .9-2.5 1.5-4.3 4.6-4.3 8.2z"/><path fill="#FD8158" d="M310.7 421.6c0 4.7 3.7 8.5 8.2 8.5 1.8 0 3.5-.6 4.8-1.6 2-1.5 3.4-4.1 3.4-6.9 0-4.7-3.7-8.5-8.2-8.5h-.5c-4.3.3-7.7 4-7.7 8.5z"/><path fill="#000670" d="M324.5 419.4c-.1-.5-.3-1.1-.7-1.5l-.6-.6-.1-.1c-.2-2-1.4-4.2-3-5.1l2.8 1 .8 1.3v-1.5c2.1 1.2 3.7 3.4 4.2 6h-3v.4h-.4z"/><path fill="#000670" d="M309.5 412.5c-.1-1.4.5-2.3 2.4-1.5 4.2 1.7 8.8-.9 13 1.1 5 2.4 5.5 9.3 2.8 14.2-1 1.9-2.8 4.5-4.9 4.3-4-.4-6-3.8-8.2-9.3-.7-1.7-1.5-1.8-2.6-2.9-1-1-2.4-3.9-2.5-5.9z"/><ellipse fill="#FD8158" cx="316" cy="422.2" rx="2.4" ry="2.6"/></svg>