<svg xmlns="http://www.w3.org/2000/svg" xmlns:xlink="http://www.w3.org/1999/xlink"><defs><linearGradient id="paint_linear" x1="6.267" y1="9.553" x2="48.516" y2="45.202" gradientUnits="userSpaceOnUse"><stop stop-color="#6CF"/><stop offset="1" stop-color="#09F"/></linearGradient><linearGradient id="paint1_linear" x1="19.164" y1="21.56" x2="47.434" y2="45.414" gradientUnits="userSpaceOnUse"><stop stop-opacity=".2"/><stop offset="1" stop-opacity="0"/></linearGradient><linearGradient id="paint0_linear" x1="6654" y1=".5" x2="1" y2="1.284" gradientUnits="userSpaceOnUse"><stop offset=".003" stop-color="#09F"/><stop offset="1" stop-color="#6CF"/></linearGradient><linearGradient id="paint0_linear" x1="6.267" y1="9.553" x2="48.516" y2="45.202" gradientUnits="userSpaceOnUse"><stop stop-color="#6CF"/><stop offset="1" stop-color="#09F"/></linearGradient></defs><symbol id="fb" viewBox="0 0 11 24"><path opacity=".5" d="M7.18 11.722h3.213l.425-4.132H7.18V5.156c0-.913.603-1.127 1.032-1.127h2.616V.015L7.224 0c-4 0-4.91 2.997-4.91 4.91v2.676H0v4.136h2.314v11.766h4.867V11.722z" fill="#fff"/></symbol><symbol id="icon-burger" viewBox="0 0 30 22"><path fill-rule="evenodd" d="M0 0h30v2H0V0zm0 10h30v2H0v-2zm0 10h30v2H0v-2z"/></symbol><symbol id="icon-close" viewBox="0 0 9 9"><path fill-rule="evenodd" d="M4.5 3.793L8.036.257l.707.707L5.207 4.5l3.536 3.536-.707.707L4.5 5.207.964 8.743l-.707-.707L3.793 4.5.257.964.964.257 4.5 3.793z"/></symbol><symbol id="logo" viewBox="0 0 274 53"><path d="M26.786 53c14.793 0 26.786-11.864 26.786-26.5S41.579 0 26.786 0C11.992 0 0 11.864 0 26.5S11.992 53 26.786 53z" fill="url(#paint_linear)"/><path d="M34.128 9.815v11.189l-14.881.294L20 22.5l14.525 1.072V39.93l-15.377 1.129 1.124 1.308-2.2.327 9.922 10.126a26.878 26.878 0 0017.362-7.372 26.337 26.337 0 008.1-16.887L34.129 9.815z" fill="url(#paint1_linear)"/><path d="M34.954 42.105H18.602a.493.493 0 00-.497.491v.033c0 .271.223.49.497.49h16.352a.493.493 0 00.496-.49v-.033a.493.493 0 00-.496-.49zM33.565 22.41H19.991a.998.998 0 00-.702.288.976.976 0 00-.29.694v17.192c0 .26.104.51.29.694a.998.998 0 00.702.288h13.574a.997.997 0 00.702-.288.976.976 0 00.29-.694V23.392c0-.26-.104-.51-.29-.694a.997.997 0 00-.702-.288zm0 2.029c0 .087-.034.17-.096.231a.332.332 0 01-.234.096h-2.679a.333.333 0 01-.234-.096.325.325 0 01-.096-.231v-.115c0-.087.034-.17.096-.231a.333.333 0 01.234-.096h2.662c.088 0 .172.035.234.096a.325.325 0 01.097.231l.016.115zm-9.92 1.292c0 .087-.035.17-.097.231a.332.332 0 01-.234.096h-2.761a.333.333 0 01-.234-.096.325.325 0 01-.097-.23v-1.408c0-.087.035-.17.097-.231a.333.333 0 01.234-.096l2.761.017a.326.326 0 01.33.327v1.39zm-.331-1.194c0 .114-.043.196-.225.196h-2.323c-.182 0-.263-.082-.263-.196 0-.115.08-.196.263-.196h2.323c.215.032.225.196.225.196zM33.565 9.7H19.991a.998.998 0 00-.702.288.976.976 0 00-.29.694v9.994c0 .26.104.51.29.694a.998.998 0 00.702.288h13.574a.997.997 0 00.702-.288.976.976 0 00.29-.694v-9.994a.972.972 0 00-.29-.694.992.992 0 00-.702-.288zm-.496 11.173H20.52a.501.501 0 01-.462-.315.486.486 0 01-.033-.192v-9.39a.485.485 0 01.302-.468.501.501 0 01.194-.039h12.55a.512.512 0 01.512.507v9.39a.504.504 0 01-.15.358.516.516 0 01-.363.149z" fill="#fff"/><path d="M30.093 12.858h-6.647a.493.493 0 00-.496.49v.344c0 .271.222.49.496.49h6.647a.493.493 0 00.496-.49v-.344a.493.493 0 00-.496-.49zm0 2.142h-6.647a.493.493 0 00-.496.491v.344c0 .27.222.49.496.49h6.647c.274 0 .496-.22.496-.49v-.344a.494.494 0 00-.496-.49zm0 2.16h-6.647a.493.493 0 00-.496.49v.344c0 .271.222.49.496.49h6.647a.493.493 0 00.496-.49v-.344a.493.493 0 00-.496-.49z" fill="#fff"/><path d="M70 26.5c0-3.904.965-6.961 2.895-9.17 1.941-2.22 4.724-3.33 8.35-3.33 2.12 0 3.871.363 5.254 1.088 1.384.714 2.377 1.695 2.979 2.945.312.647.262 1.093-.15 1.338l-1.323.77c-.446.257-.842.045-1.188-.636-.368-.703-.97-1.36-1.807-1.974-.837-.614-2.036-.92-3.598-.92-2.789 0-4.819.87-6.09 2.61-1.261 1.729-1.892 4.155-1.892 7.279 0 3.124.63 5.556 1.891 7.296 1.272 1.729 3.302 2.594 6.091 2.594 1.607 0 2.89-.369 3.849-1.105.97-.736 1.673-1.506 2.109-2.31.345-.646.747-.841 1.204-.585l1.39.787c.4.234.434.68.1 1.338-.659 1.283-1.73 2.354-3.213 3.213-1.484.848-3.353 1.272-5.606 1.272-3.626 0-6.409-1.104-8.35-3.313C70.965 33.467 70 30.405 70 26.5zm25.602 11.998c-.557 0-.836-.307-.836-.92V15.422c0-.613.279-.92.836-.92h8.083c3.224 0 5.555.602 6.994 1.807 1.451 1.205 2.176 2.795 2.176 4.77 0 1.74-.586 3.201-1.757 4.383-1.16 1.183-2.817 1.864-4.97 2.042v.034c1.138.847 1.891 1.494 2.259 1.94.368.436.781 1.027 1.238 1.774l3.782 6.142c.457.736.357 1.104-.301 1.104h-1.908c-.524 0-.915-.217-1.171-.653l-3.481-5.973c-.502-.86-1.221-1.702-2.158-2.527-.938-.826-2.103-1.239-3.498-1.239h-2.911v9.472c0 .613-.28.92-.837.92h-1.54zm2.377-13.136h4.836c2.175 0 3.848-.284 5.02-.853 1.171-.58 1.757-1.79 1.757-3.631 0-1.406-.536-2.36-1.607-2.862-1.071-.513-2.527-.77-4.367-.77h-5.64v8.116zm18.892-9.756c-.48-.736-.329-1.104.452-1.104h1.874c.491 0 .892.273 1.205.82l4.25 7.313c.468.803.87 1.506 1.205 2.108.334.591.658 1.222.97 1.89h.067c.313-.668.636-1.299.971-1.89.334-.602.736-1.305 1.205-2.108l4.25-7.313c.312-.547.714-.82 1.205-.82h1.874c.781 0 .931.368.452 1.104l-8.384 13.02v8.952c0 .613-.279.92-.836.92h-1.54c-.558 0-.837-.307-.837-.92v-8.953l-8.383-13.019zm23.845 22.892c-.558 0-.836-.307-.836-.92V15.422c0-.613.278-.92.836-.92h7.028c3.793 0 6.354.641 7.681 1.924 1.328 1.272 1.991 3.024 1.991 5.255 0 2.23-.663 3.988-1.991 5.27-1.327 1.273-3.888 1.908-7.681 1.908h-4.652v8.719c0 .613-.279.92-.836.92h-1.54zm2.376-12.383h4.703c2.454 0 4.127-.346 5.02-1.037.892-.703 1.338-1.835 1.338-3.397 0-1.562-.446-2.689-1.338-3.38-.893-.703-2.566-1.055-5.02-1.055h-4.703v8.87zm17.353-8.735c-.613 0-.92-.25-.92-.753v-1.372c0-.502.307-.753.92-.753h17.704c.614 0 .921.251.921.753v1.372c0 .502-.307.753-.921.753h-7.245v20.198c0 .613-.279.92-.837.92h-1.54c-.557 0-.836-.307-.836-.92V17.38h-7.246zm20.767 9.12c0-3.904.959-6.961 2.878-9.17 1.93-2.22 4.707-3.33 8.333-3.33 3.626 0 6.398 1.11 8.317 3.33 1.93 2.209 2.895 5.266 2.895 9.17s-.965 6.967-2.895 9.187c-1.919 2.209-4.691 3.313-8.317 3.313-3.626 0-6.403-1.104-8.333-3.313-1.919-2.22-2.878-5.282-2.878-9.187zm3.43 0c0 3.124.641 5.556 1.924 7.296 1.283 1.729 3.235 2.594 5.857 2.594 2.622 0 4.574-.865 5.857-2.594 1.283-1.74 1.924-4.172 1.924-7.296 0-3.124-.641-5.55-1.924-7.28-1.283-1.74-3.235-2.61-5.857-2.61-2.622 0-4.574.87-5.857 2.61-1.283 1.73-1.924 4.156-1.924 7.28zm24.213 11.998c-.557 0-.836-.307-.836-.92V15.422c0-.613.279-.92.836-.92h3.565c.424 0 .742.335.953 1.004l4.786 15.01c.491 1.54.781 2.471.87 2.795.09.312.218.892.385 1.74h.101c.167-.848.295-1.428.385-1.74.089-.324.379-1.255.87-2.795l4.786-15.01c.212-.67.529-1.004.953-1.004h3.565c.557 0 .836.307.836.92v22.156c0 .613-.279.92-.836.92h-1.54c-.558 0-.837-.307-.837-.92V20.024c0-.446.012-.892.034-1.339h-.067l-6.175 18.792c-.223.68-.591 1.021-1.104 1.021h-1.841c-.513 0-.881-.34-1.104-1.02l-6.175-18.793h-.067c.022.447.034.893.034 1.34v17.553c0 .613-.279.92-.837.92h-1.54zm26.54 0c-.58 0-.731-.368-.452-1.104l8.333-21.871c.257-.68.625-1.021 1.105-1.021h2.343c.479 0 .847.34 1.104 1.02l8.333 21.872c.279.736.129 1.104-.451 1.104h-1.707c-.592 0-.993-.273-1.205-.82l-2.092-5.539h-10.308l-2.091 5.539c-.212.547-.614.82-1.205.82h-1.707zm6.057-9.103h8.2l-2.56-6.694a36.374 36.374 0 01-.703-2.075c-.223-.758-.491-1.835-.803-3.23h-.067c-.313 1.395-.586 2.472-.82 3.23-.223.76-.452 1.45-.686 2.075l-2.561 6.694zm13.504-12.015c-.613 0-.92-.25-.92-.753v-1.372c0-.502.307-.753.92-.753h17.705c.613 0 .92.251.92.753v1.372c0 .502-.307.753-.92.753h-7.246v20.198c0 .613-.279.92-.837.92h-1.539c-.558 0-.837-.307-.837-.92V17.38h-7.246z" fill="#09F"/></symbol><symbol id="mark" viewBox="0 0 15 11"><path d="M4.348 8.542L1.43 5.625A.837.837 0 10.246 6.811l3.513 3.513a.837.837 0 001.186 0l8.893-8.893A.837.837 0 1012.653.246L4.348 8.542z" fill="#01194F"/></symbol><symbol id="minus" viewBox="0 0 19 19"><path d="M19 8.5H0v2h19v-2z" fill="rgba(255, 255, 255, 0.8)"/></symbol><symbol id="plus" viewBox="0 0 19 19"><path d="M8.5 0v19h2V0h-2z" fill="rgba(255, 255, 255, 0.5)"/><path d="M19 8.5H0v2h19v-2z" fill="rgba(255, 255, 255, 0.5)"/></symbol><symbol id="Rectangle 3.1" viewBox="0 0 1 6653"><path opacity=".3" transform="rotate(90 1 0)" fill="url(#paint0_linear)" d="M1 0h6653v1H1z"/></symbol><symbol id="tw" viewBox="0 0 21 18"><path opacity=".5" d="M20.971 2.018a8.583 8.583 0 01-2.471.676 4.314 4.314 0 001.892-2.38 8.614 8.614 0 01-2.732 1.044 4.303 4.303 0 00-7.332 3.925A12.214 12.214 0 011.46.787a4.302 4.302 0 001.33 5.744 4.272 4.272 0 01-1.949-.538v.054a4.305 4.305 0 003.452 4.219 4.288 4.288 0 01-1.943.074 4.307 4.307 0 004.019 2.988A8.633 8.633 0 010 15.11a12.17 12.17 0 006.595 1.933c7.914 0 12.242-6.556 12.242-12.242 0-.187-.005-.372-.013-.557a8.725 8.725 0 002.147-2.226z" fill="#fff"/></symbol><symbol id="Vector" viewBox="0 0 54 53"><path d="M26.786 53c14.793 0 26.786-11.864 26.786-26.5S41.579 0 26.786 0C11.992 0 0 11.864 0 26.5S11.992 53 26.786 53z" fill="url(#paint0_linear)"/></symbol><symbol id="vk" viewBox="0 0 24 14"><path opacity=".5" d="M12.977 13.427h-1.413s-3.117.188-5.862-2.67C2.708 7.64.064 1.454.064 1.454s-.152-.406.013-.602C.263.632.77.618.77.618L4.147.596s.319.053.546.22c.188.138.293.396.293.396s.546 1.38 1.27 2.63c1.41 2.437 2.067 2.97 2.546 2.71.698-.382.489-3.447.489-3.447s.013-1.113-.351-1.608C8.657 1.113 8.125 1 7.89.969c-.19-.025.123-.466.527-.664.608-.298 1.68-.315 2.949-.302.988.01 1.272.072 1.659.165.896.216.868.91.807 2.406-.018.447-.038.966-.038 1.565 0 .135-.004.279-.008.426-.021.767-.045 1.644.459 1.97.259.167.891.025 2.474-2.662.75-1.274 1.313-2.771 1.313-2.771s.122-.267.313-.382c.196-.117.46-.08.46-.08l3.553-.023S23.426.49 23.6.972c.181.506-.4 1.687-1.851 3.622-1.379 1.838-2.049 2.514-1.986 3.112.045.426.462.814 1.26 1.554l.056.052c1.75 1.623 2.216 2.476 2.326 2.679l.02.036c.784 1.299-.867 1.4-.867 1.4l-3.157.044s-.678.135-1.57-.479c-.468-.32-.924-.843-1.359-1.342-.665-.762-1.28-1.466-1.803-1.3-.88.28-.853 2.175-.853 2.175s.007.405-.194.62c-.218.235-.644.282-.644.282z" fill="#fff"/></symbol></svg>