<svg xmlns="http://www.w3.org/2000/svg" xmlns:xlink="http://www.w3.org/1999/xlink"><defs><linearGradient id="paint0_linear" x1="43.319" y1="20" x2="0" y2="20" gradientUnits="userSpaceOnUse"><stop stop-color="#F90"/><stop offset="1" stop-color="#FFE91A"/></linearGradient><linearGradient id="paint0_linear" x1="40" y1="20" x2="0" y2="20" gradientUnits="userSpaceOnUse"><stop stop-color="#F90"/><stop offset="1" stop-color="#FFE91A"/></linearGradient><linearGradient id="paint0_linear" x1="43.103" y1="20" x2="0" y2="20" gradientUnits="userSpaceOnUse"><stop stop-color="#F90"/><stop offset="1" stop-color="#FFE91A"/></linearGradient><linearGradient id="paint_linear" x1="6.267" y1="9.553" x2="48.516" y2="45.202" gradientUnits="userSpaceOnUse"><stop stop-color="#6CF"/><stop offset="1" stop-color="#09F"/></linearGradient><linearGradient id="paint1_linear" x1="19.164" y1="21.56" x2="47.434" y2="45.414" gradientUnits="userSpaceOnUse"><stop stop-opacity=".2"/><stop offset="1" stop-opacity="0"/></linearGradient><linearGradient id="paint0_linear" x1="6654" y1=".5" x2="1" y2="1.284" gradientUnits="userSpaceOnUse"><stop offset=".003" stop-color="#09F"/><stop offset="1" stop-color="#6CF"/></linearGradient><linearGradient id="paint0_linear" x1="6.267" y1="9.553" x2="48.516" y2="45.202" gradientUnits="userSpaceOnUse"><stop stop-color="#6CF"/><stop offset="1" stop-color="#09F"/></linearGradient></defs><symbol id="crown" viewBox="0 0 44 40"><path fill-rule="evenodd" clip-rule="evenodd" d="M43.319 15.546c0-6.164-5.016-11.18-11.18-11.18a11.1 11.1 0 00-4.191.824V3.843H26.55V5.88c-.49.284-.958.6-1.397.953V3.319h-1.397v4.858a11.182 11.182 0 00-1.398 1.97V0h-1.397v10.146a11.183 11.183 0 00-1.398-1.97V3.32h-1.397v3.514a11.1 11.1 0 00-1.397-.953V3.843H15.37V5.19a11.1 11.1 0 00-4.192-.823C5.015 4.367 0 9.382 0 15.546c0 2.421.783 4.66 2.096 6.492v2.59h1.397v-.985c.436.414.9.799 1.398 1.139v2.642h1.397v-1.841c.45.22.916.416 1.398.575v4.759h1.397v-4.396c.523.1 1.06.155 1.605.179a11.176 11.176 0 00-.208 2.121C10.48 34.985 15.496 40 21.66 40c6.163 0 11.178-5.015 11.178-11.179 0-.726-.074-1.434-.207-2.121a11.19 11.19 0 001.605-.18v4.397h1.397v-4.759c.482-.16.947-.355 1.398-.575v1.84h1.397v-2.642c.498-.34.961-.724 1.397-1.139v.987h1.398v-2.59a11.108 11.108 0 002.096-6.493zm-32.14-9.782c4.918 0 8.989 3.652 9.67 8.384h-5.91l-.916 1.835-2.168-5.057-2.618 6.547-2.03-8.121-2.748 5.495H1.433c.36-5.067 4.588-9.083 9.746-9.083zm-9.746 10.48h3.89l1.445-2.888 2.162 8.647 2.97-7.427 2.026 4.725 1.877-3.755h5.158a9.83 9.83 0 01-.24 2.143c-4.528.38-8.293 3.464-9.671 7.632-5.1-.068-9.26-4.052-9.617-9.077zm20.226 22.359c-5.394 0-9.781-4.388-9.781-9.782s4.387-9.782 9.781-9.782c5.394 0 9.782 4.388 9.782 9.782s-4.388 9.782-9.782 9.782zM32.27 25.32c-1.379-4.168-5.143-7.252-9.67-7.631a9.828 9.828 0 01-.24-2.144c0-5.394 4.387-9.782 9.78-9.782 5.395 0 9.782 4.388 9.782 9.782 0 5.35-4.318 9.705-9.652 9.775zm-11.308-2.788v1.397h-2.096v9.782h2.096v1.397h1.397v-1.397a2.798 2.798 0 002.795-2.795 2.79 2.79 0 00-.948-2.096 2.788 2.788 0 00.948-2.096 2.798 2.798 0 00-2.795-2.795v-1.397h-1.397zm1.397 9.781h-2.096V29.52h2.096a1.4 1.4 0 011.398 1.397 1.4 1.4 0 01-1.398 1.397zm1.398-5.59a1.4 1.4 0 01-1.398 1.398h-2.096v-2.794h2.096a1.4 1.4 0 011.398 1.397zm-7.461-4.345a8.397 8.397 0 015.364-1.942c4.624 0 8.385 3.76 8.385 8.384a8.39 8.39 0 01-1.943 5.365l-1.073-.895a6.998 6.998 0 001.618-4.47 6.995 6.995 0 00-6.987-6.987c-1.63 0-3.216.575-4.47 1.618l-.894-1.073zm5.364 13.429a6.995 6.995 0 01-6.986-6.987c0-1.63.575-3.218 1.618-4.47l-1.073-.895a8.39 8.39 0 00-1.943 5.365c0 4.623 3.761 8.384 8.384 8.384a8.4 8.4 0 005.365-1.942l-.895-1.073a7 7 0 01-4.47 1.618zm10.48-12.714l-5.031-7.548 5.032-7.548 5.032 7.548-5.032 7.548zm-3.102-7.922l2.404.801v-4.407l-2.404 3.606zm2.404 4.354v-2.079l-1.782-.595 1.782 2.674zm3.18-2.673l-1.783.594v2.08l1.783-2.674zm-1.783-5.289v4.41l2.405-.803-2.405-3.606zM2.096 26.026h1.397v1.398H2.096v-1.398zm4.192 2.795H4.891v1.397h1.397v-1.397zm1.398 3.493h1.397v1.398H7.686v-1.398zm33.537-6.288h-1.398v1.398h1.398v-1.398zm-4.192 2.795h1.397v1.397H37.03v-1.397zm-1.398 3.493h-1.397v1.398h1.397v-1.398zM18.166.874h1.397V2.27h-1.397V.873zm6.987 0h-1.397V2.27h1.397V.873z" fill="url(#paint0_linear)"/></symbol><symbol id="diagramm" viewBox="0 0 40 40"><path fill-rule="evenodd" clip-rule="evenodd" d="M32.667 0h6.666c.369 0 .667.299.667.667v36a.667.667 0 01-.667.666h-6.666a.667.667 0 01-.667-.666V12.943l-2.667 2.666v21.058a.667.667 0 01-.666.666H22a.667.667 0 01-.667-.666V17.412l-2.666-1.333v20.588a.667.667 0 01-.667.666h-6.667a.667.667 0 01-.666-.666v-18.39L8 20.942v15.724a.667.667 0 01-.667.666H.667A.667.667 0 010 36.667v-20C0 16.298.299 16 .667 16h6.666c.369 0 .667.299.667.667v2.39l2.667-2.666V6c0-.368.298-.667.666-.667H18c.368 0 .667.299.667.667v8.588l2.666 1.333v-4.588c0-.368.299-.666.667-.666h6.667c.368 0 .666.298.666.666v2.391L32 11.057V.667c0-.368.298-.667.667-.667zM4.34 22.717l2.326-2.326v-3.058H1.333V36h5.334V22.276L5.283 23.66a1.3 1.3 0 01.05.341A1.333 1.333 0 114 22.667c.115.001.23.018.34.05zM12 16.943V36h5.333V15.412l-1.933-.967a1.321 1.321 0 01-.733.222 1.302 1.302 0 01-.341-.05L12 16.942zm3.991-3.692l1.342.67V6.667H12v8.39l1.383-1.383a1.303 1.303 0 01-.05-.34 1.334 1.334 0 012.658-.083zm6.676 4.828V36H28V16.943l-1.384 1.383c.032.11.05.225.05.34a1.334 1.334 0 01-2.657.083l-1.342-.67zm3.007-.695L28 15.057V12h-5.333v4.588l1.933.967c.217-.145.472-.222.733-.222.116.002.23.019.341.05zM33.334 36h5.333V1.333h-5.334v8.391l1.384-1.383a1.299 1.299 0 01-.05-.341A1.333 1.333 0 1136 9.333a1.3 1.3 0 01-.34-.05l-2.327 2.326V36zM.666 38.667h38.666a.667.667 0 010 1.333H.667a.667.667 0 010-1.333z" fill="url(#paint0_linear)"/></symbol><symbol id="fb" viewBox="0 0 11 24"><path opacity=".5" d="M7.18 11.722h3.213l.425-4.132H7.18V5.156c0-.913.603-1.127 1.032-1.127h2.616V.015L7.224 0c-4 0-4.91 2.997-4.91 4.91v2.676H0v4.136h2.314v11.766h4.867V11.722z" fill="#fff"/></symbol><symbol id="hand" viewBox="0 0 44 40"><path fill-rule="evenodd" clip-rule="evenodd" d="M21.523 0c-.966 0-1.84.391-2.473 1.024a3.487 3.487 0 00-1.024 2.472c0 .966.392 1.84 1.024 2.473a3.486 3.486 0 002.473 1.024c.965 0 1.839-.392 2.472-1.024a3.486 3.486 0 001.024-2.473c0-.965-.391-1.839-1.024-2.472A3.485 3.485 0 0021.522 0zm1.283 2.213a1.81 1.81 0 00-1.284-.531 1.81 1.81 0 00-1.283.531 1.809 1.809 0 00-.531 1.283 1.81 1.81 0 001.815 1.815 1.81 1.81 0 001.814-1.815c0-.5-.203-.954-.531-1.283zM30.629.381l-9.806 14.871a.837.837 0 101.4.92l9.805-14.871a.837.837 0 10-1.4-.92zm.7 9.18c-.966 0-1.84.39-2.473 1.023a3.487 3.487 0 00-1.024 2.473c0 .965.391 1.84 1.024 2.472a3.486 3.486 0 002.472 1.024c.966 0 1.84-.391 2.472-1.024a3.485 3.485 0 001.025-2.472c0-.966-.392-1.84-1.025-2.473a3.485 3.485 0 00-2.472-1.024zm1.282 2.212a1.81 1.81 0 00-1.283-.53 1.81 1.81 0 00-1.815 1.814 1.814 1.814 0 003.098 1.283 1.81 1.81 0 000-2.567zM19.815 26.127a.843.843 0 10-1.194-1.191.843.843 0 001.194 1.191zm-8.93 13.63a.842.842 0 01-1.188-.006L.244 30.226a.842.842 0 01.002-1.187l4.005-4.017a2.515 2.515 0 012.251-.698c1.9-3.512 5.441-5.383 9.494-5.383 1.463 0 2.88.283 4.216.842H29.6c1.034 0 1.99.481 2.617 1.253l4.968-5.106a3.376 3.376 0 014.725-.376 3.372 3.372 0 01.4 4.747c-7.59 9.072-7.606 9.098-7.629 9.116a7.538 7.538 0 01-5.291 2.153H18.197a2.51 2.51 0 00-1.753.708l-.878.846c.305.893.095 1.92-.599 2.613l-4.082 4.02zm8.817-18.361a9.19 9.19 0 00-3.706-.771c-3.598 0-6.49 1.644-8.032 4.536l6.595 6.595.716-.69a4.186 4.186 0 012.922-1.18H29.39a5.86 5.86 0 004.08-1.642l7.551-9.027a1.687 1.687 0 00-.197-2.376 1.69 1.69 0 00-2.374.2c-.02.024-.334.347-2.008 2.067l-3.504 3.602a3.371 3.371 0 01-3.338 3.808h-6.869a.842.842 0 110-1.684H29.6c.929 0 1.684-.755 1.684-1.684 0-.939-.771-1.683-1.684-1.683h-9.56a.84.84 0 01-.338-.071zM6.485 26.093a.84.84 0 00-1.043.119L2.03 29.634l8.273 8.336 3.48-3.428a.845.845 0 00.076-1.092c-.044-.06-7.245-7.279-7.373-7.357z" fill="url(#paint0_linear)"/></symbol><symbol id="logo" viewBox="0 0 274 53"><path d="M26.786 53c14.793 0 26.786-11.864 26.786-26.5S41.579 0 26.786 0C11.992 0 0 11.864 0 26.5S11.992 53 26.786 53z" fill="url(#paint_linear)"/><path d="M34.128 9.815v11.189l-14.881.294L20 22.5l14.525 1.072V39.93l-15.377 1.129 1.124 1.308-2.2.327 9.922 10.126a26.878 26.878 0 0017.362-7.372 26.337 26.337 0 008.1-16.887L34.129 9.815z" fill="url(#paint1_linear)"/><path d="M34.954 42.105H18.602a.493.493 0 00-.497.491v.033c0 .271.223.49.497.49h16.352a.493.493 0 00.496-.49v-.033a.493.493 0 00-.496-.49zM33.565 22.41H19.991a.998.998 0 00-.702.288.976.976 0 00-.29.694v17.192c0 .26.104.51.29.694a.998.998 0 00.702.288h13.574a.997.997 0 00.702-.288.976.976 0 00.29-.694V23.392c0-.26-.104-.51-.29-.694a.997.997 0 00-.702-.288zm0 2.029c0 .087-.034.17-.096.231a.332.332 0 01-.234.096h-2.679a.333.333 0 01-.234-.096.325.325 0 01-.096-.231v-.115c0-.087.034-.17.096-.231a.333.333 0 01.234-.096h2.662c.088 0 .172.035.234.096a.325.325 0 01.097.231l.016.115zm-9.92 1.292c0 .087-.035.17-.097.231a.332.332 0 01-.234.096h-2.761a.333.333 0 01-.234-.096.325.325 0 01-.097-.23v-1.408c0-.087.035-.17.097-.231a.333.333 0 01.234-.096l2.761.017a.326.326 0 01.33.327v1.39zm-.331-1.194c0 .114-.043.196-.225.196h-2.323c-.182 0-.263-.082-.263-.196 0-.115.08-.196.263-.196h2.323c.215.032.225.196.225.196zM33.565 9.7H19.991a.998.998 0 00-.702.288.976.976 0 00-.29.694v9.994c0 .26.104.51.29.694a.998.998 0 00.702.288h13.574a.997.997 0 00.702-.288.976.976 0 00.29-.694v-9.994a.972.972 0 00-.29-.694.992.992 0 00-.702-.288zm-.496 11.173H20.52a.501.501 0 01-.462-.315.486.486 0 01-.033-.192v-9.39a.485.485 0 01.302-.468.501.501 0 01.194-.039h12.55a.512.512 0 01.512.507v9.39a.504.504 0 01-.15.358.516.516 0 01-.363.149z" fill="#fff"/><path d="M30.093 12.858h-6.647a.493.493 0 00-.496.49v.344c0 .271.222.49.496.49h6.647a.493.493 0 00.496-.49v-.344a.493.493 0 00-.496-.49zm0 2.142h-6.647a.493.493 0 00-.496.491v.344c0 .27.222.49.496.49h6.647c.274 0 .496-.22.496-.49v-.344a.494.494 0 00-.496-.49zm0 2.16h-6.647a.493.493 0 00-.496.49v.344c0 .271.222.49.496.49h6.647a.493.493 0 00.496-.49v-.344a.493.493 0 00-.496-.49z" fill="#fff"/><path d="M70 26.5c0-3.904.965-6.961 2.895-9.17 1.941-2.22 4.724-3.33 8.35-3.33 2.12 0 3.871.363 5.254 1.088 1.384.714 2.377 1.695 2.979 2.945.312.647.262 1.093-.15 1.338l-1.323.77c-.446.257-.842.045-1.188-.636-.368-.703-.97-1.36-1.807-1.974-.837-.614-2.036-.92-3.598-.92-2.789 0-4.819.87-6.09 2.61-1.261 1.729-1.892 4.155-1.892 7.279 0 3.124.63 5.556 1.891 7.296 1.272 1.729 3.302 2.594 6.091 2.594 1.607 0 2.89-.369 3.849-1.105.97-.736 1.673-1.506 2.109-2.31.345-.646.747-.841 1.204-.585l1.39.787c.4.234.434.68.1 1.338-.659 1.283-1.73 2.354-3.213 3.213-1.484.848-3.353 1.272-5.606 1.272-3.626 0-6.409-1.104-8.35-3.313C70.965 33.467 70 30.405 70 26.5zm25.602 11.998c-.557 0-.836-.307-.836-.92V15.422c0-.613.279-.92.836-.92h8.083c3.224 0 5.555.602 6.994 1.807 1.451 1.205 2.176 2.795 2.176 4.77 0 1.74-.586 3.201-1.757 4.383-1.16 1.183-2.817 1.864-4.97 2.042v.034c1.138.847 1.891 1.494 2.259 1.94.368.436.781 1.027 1.238 1.774l3.782 6.142c.457.736.357 1.104-.301 1.104h-1.908c-.524 0-.915-.217-1.171-.653l-3.481-5.973c-.502-.86-1.221-1.702-2.158-2.527-.938-.826-2.103-1.239-3.498-1.239h-2.911v9.472c0 .613-.28.92-.837.92h-1.54zm2.377-13.136h4.836c2.175 0 3.848-.284 5.02-.853 1.171-.58 1.757-1.79 1.757-3.631 0-1.406-.536-2.36-1.607-2.862-1.071-.513-2.527-.77-4.367-.77h-5.64v8.116zm18.892-9.756c-.48-.736-.329-1.104.452-1.104h1.874c.491 0 .892.273 1.205.82l4.25 7.313c.468.803.87 1.506 1.205 2.108.334.591.658 1.222.97 1.89h.067c.313-.668.636-1.299.971-1.89.334-.602.736-1.305 1.205-2.108l4.25-7.313c.312-.547.714-.82 1.205-.82h1.874c.781 0 .931.368.452 1.104l-8.384 13.02v8.952c0 .613-.279.92-.836.92h-1.54c-.558 0-.837-.307-.837-.92v-8.953l-8.383-13.019zm23.845 22.892c-.558 0-.836-.307-.836-.92V15.422c0-.613.278-.92.836-.92h7.028c3.793 0 6.354.641 7.681 1.924 1.328 1.272 1.991 3.024 1.991 5.255 0 2.23-.663 3.988-1.991 5.27-1.327 1.273-3.888 1.908-7.681 1.908h-4.652v8.719c0 .613-.279.92-.836.92h-1.54zm2.376-12.383h4.703c2.454 0 4.127-.346 5.02-1.037.892-.703 1.338-1.835 1.338-3.397 0-1.562-.446-2.689-1.338-3.38-.893-.703-2.566-1.055-5.02-1.055h-4.703v8.87zm17.353-8.735c-.613 0-.92-.25-.92-.753v-1.372c0-.502.307-.753.92-.753h17.704c.614 0 .921.251.921.753v1.372c0 .502-.307.753-.921.753h-7.245v20.198c0 .613-.279.92-.837.92h-1.54c-.557 0-.836-.307-.836-.92V17.38h-7.246zm20.767 9.12c0-3.904.959-6.961 2.878-9.17 1.93-2.22 4.707-3.33 8.333-3.33 3.626 0 6.398 1.11 8.317 3.33 1.93 2.209 2.895 5.266 2.895 9.17s-.965 6.967-2.895 9.187c-1.919 2.209-4.691 3.313-8.317 3.313-3.626 0-6.403-1.104-8.333-3.313-1.919-2.22-2.878-5.282-2.878-9.187zm3.43 0c0 3.124.641 5.556 1.924 7.296 1.283 1.729 3.235 2.594 5.857 2.594 2.622 0 4.574-.865 5.857-2.594 1.283-1.74 1.924-4.172 1.924-7.296 0-3.124-.641-5.55-1.924-7.28-1.283-1.74-3.235-2.61-5.857-2.61-2.622 0-4.574.87-5.857 2.61-1.283 1.73-1.924 4.156-1.924 7.28zm24.213 11.998c-.557 0-.836-.307-.836-.92V15.422c0-.613.279-.92.836-.92h3.565c.424 0 .742.335.953 1.004l4.786 15.01c.491 1.54.781 2.471.87 2.795.09.312.218.892.385 1.74h.101c.167-.848.295-1.428.385-1.74.089-.324.379-1.255.87-2.795l4.786-15.01c.212-.67.529-1.004.953-1.004h3.565c.557 0 .836.307.836.92v22.156c0 .613-.279.92-.836.92h-1.54c-.558 0-.837-.307-.837-.92V20.024c0-.446.012-.892.034-1.339h-.067l-6.175 18.792c-.223.68-.591 1.021-1.104 1.021h-1.841c-.513 0-.881-.34-1.104-1.02l-6.175-18.793h-.067c.022.447.034.893.034 1.34v17.553c0 .613-.279.92-.837.92h-1.54zm26.54 0c-.58 0-.731-.368-.452-1.104l8.333-21.871c.257-.68.625-1.021 1.105-1.021h2.343c.479 0 .847.34 1.104 1.02l8.333 21.872c.279.736.129 1.104-.451 1.104h-1.707c-.592 0-.993-.273-1.205-.82l-2.092-5.539h-10.308l-2.091 5.539c-.212.547-.614.82-1.205.82h-1.707zm6.057-9.103h8.2l-2.56-6.694a36.374 36.374 0 01-.703-2.075c-.223-.758-.491-1.835-.803-3.23h-.067c-.313 1.395-.586 2.472-.82 3.23-.223.76-.452 1.45-.686 2.075l-2.561 6.694zm13.504-12.015c-.613 0-.92-.25-.92-.753v-1.372c0-.502.307-.753.92-.753h17.705c.613 0 .92.251.92.753v1.372c0 .502-.307.753-.92.753h-7.246v20.198c0 .613-.279.92-.837.92h-1.539c-.558 0-.837-.307-.837-.92V17.38h-7.246z" fill="#09F"/></symbol><symbol id="mark" viewBox="0 0 15 11"><path d="M4.348 8.542L1.43 5.625A.837.837 0 10.246 6.811l3.513 3.513a.837.837 0 001.186 0l8.893-8.893A.837.837 0 1012.653.246L4.348 8.542z" fill="#01194F"/></symbol><symbol id="Rectangle 3.1" viewBox="0 0 1 6653"><path opacity=".3" transform="rotate(90 1 0)" fill="url(#paint0_linear)" d="M1 0h6653v1H1z"/></symbol><symbol id="tw" viewBox="0 0 21 18"><path opacity=".5" d="M20.971 2.018a8.583 8.583 0 01-2.471.676 4.314 4.314 0 001.892-2.38 8.614 8.614 0 01-2.732 1.044 4.303 4.303 0 00-7.332 3.925A12.214 12.214 0 011.46.787a4.302 4.302 0 001.33 5.744 4.272 4.272 0 01-1.949-.538v.054a4.305 4.305 0 003.452 4.219 4.288 4.288 0 01-1.943.074 4.307 4.307 0 004.019 2.988A8.633 8.633 0 010 15.11a12.17 12.17 0 006.595 1.933c7.914 0 12.242-6.556 12.242-12.242 0-.187-.005-.372-.013-.557a8.725 8.725 0 002.147-2.226z" fill="#fff"/></symbol><symbol id="Vector" viewBox="0 0 54 53"><path d="M26.786 53c14.793 0 26.786-11.864 26.786-26.5S41.579 0 26.786 0C11.992 0 0 11.864 0 26.5S11.992 53 26.786 53z" fill="url(#paint0_linear)"/></symbol><symbol id="vk" viewBox="0 0 24 14"><path opacity=".5" d="M12.977 13.427h-1.413s-3.117.188-5.862-2.67C2.708 7.64.064 1.454.064 1.454s-.152-.406.013-.602C.263.632.77.618.77.618L4.147.596s.319.053.546.22c.188.138.293.396.293.396s.546 1.38 1.27 2.63c1.41 2.437 2.067 2.97 2.546 2.71.698-.382.489-3.447.489-3.447s.013-1.113-.351-1.608C8.657 1.113 8.125 1 7.89.969c-.19-.025.123-.466.527-.664.608-.298 1.68-.315 2.949-.302.988.01 1.272.072 1.659.165.896.216.868.91.807 2.406-.018.447-.038.966-.038 1.565 0 .135-.004.279-.008.426-.021.767-.045 1.644.459 1.97.259.167.891.025 2.474-2.662.75-1.274 1.313-2.771 1.313-2.771s.122-.267.313-.382c.196-.117.46-.08.46-.08l3.553-.023S23.426.49 23.6.972c.181.506-.4 1.687-1.851 3.622-1.379 1.838-2.049 2.514-1.986 3.112.045.426.462.814 1.26 1.554l.056.052c1.75 1.623 2.216 2.476 2.326 2.679l.02.036c.784 1.299-.867 1.4-.867 1.4l-3.157.044s-.678.135-1.57-.479c-.468-.32-.924-.843-1.359-1.342-.665-.762-1.28-1.466-1.803-1.3-.88.28-.853 2.175-.853 2.175s.007.405-.194.62c-.218.235-.644.282-.644.282z" fill="#fff"/></symbol></svg>