<svg width="114" height="114" viewBox="0 0 114 114" fill="none" xmlns="http://www.w3.org/2000/svg"><path fill-rule="evenodd" clip-rule="evenodd" d="M10 0C4.477 0 0 4.477 0 10v94c0 5.523 4.477 10 10 10h94c5.523 0 10-4.477 10-10V10c0-5.523-4.477-10-10-10H10zm32.948 22h28.434a2.098 2.098 0 011.469.602 2.054 2.054 0 01.609 1.454V44.99c0 .546-.22 1.069-.609 1.454a2.09 2.09 0 01-1.47.602H42.949a2.09 2.09 0 01-1.47-.602 2.045 2.045 0 01-.608-1.454V24.056c0-.545.22-1.068.609-1.454A2.09 2.09 0 0142.95 22zm1.108 23.402h26.287c.284 0 .557-.112.759-.311.201-.2.314-.47.314-.752V24.674c0-.282-.113-.552-.314-.751a1.08 1.08 0 00-.76-.312H44.057a1.048 1.048 0 00-.747.313 1.028 1.028 0 00-.292.75V44.34a1.02 1.02 0 00.292.749 1.041 1.041 0 00.747.313zm27.326 3.22H42.948a2.09 2.09 0 00-1.47.602 2.047 2.047 0 00-.608 1.454v36.01c0 .545.22 1.068.609 1.454.39.385.918.602 1.47.602h28.433a2.09 2.09 0 001.469-.602c.39-.386.609-.909.609-1.454v-36.01c0-.546-.22-1.068-.609-1.454a2.09 2.09 0 00-1.47-.602zm0 4.248a.682.682 0 01-.203.485.696.696 0 01-.49.2h-5.61a.697.697 0 01-.49-.2.682.682 0 01-.203-.484v-.24c0-.182.073-.356.203-.485.13-.128.306-.2.49-.2h5.575c.184 0 .36.072.49.2.13.129.203.303.203.485l.035.24zm-20.78 2.707a.682.682 0 01-.203.485.696.696 0 01-.49.2h-5.783a.696.696 0 01-.49-.2.682.682 0 01-.203-.485v-2.946c0-.182.073-.356.203-.485.13-.128.306-.2.49-.2l5.783.034c.184 0 .36.072.49.2.13.129.203.303.203.485v2.912zm-.693-2.5c0 .239-.09.41-.47.41H44.57c-.38 0-.55-.171-.55-.41 0-.24.17-.412.55-.412h4.867c.45.069.471.411.471.411zm24.382 36.799H40.039c-.574 0-1.039.46-1.039 1.027v.069c0 .568.465 1.028 1.039 1.028h34.252c.574 0 1.039-.46 1.039-1.028v-.069c0-.567-.465-1.028-1.04-1.028zM64.108 28.613H50.186c-.574 0-1.04.46-1.04 1.028v.72c0 .567.466 1.027 1.04 1.027h13.922c.574 0 1.04-.46 1.04-1.027v-.72c0-.568-.466-1.028-1.04-1.028zm-13.922 4.488h13.922c.574 0 1.04.46 1.04 1.028v.72c0 .567-.466 1.027-1.04 1.027H50.186c-.574 0-1.04-.46-1.04-1.028v-.72c0-.567.466-1.027 1.04-1.027zm13.922 4.524H50.186c-.574 0-1.04.46-1.04 1.028v.719c0 .568.466 1.028 1.04 1.028h13.922c.574 0 1.04-.46 1.04-1.028v-.72c0-.567-.466-1.027-1.04-1.027z" fill="#01194F"/></svg>