<svg width="434" height="500" viewBox="0 0 434 500" fill="none" xmlns="http://www.w3.org/2000/svg">
<path fill-rule="evenodd" clip-rule="evenodd" d="M384 307H385V252.965C386.696 252.722 388 251.263 388 249.5C388 247.737 386.696 246.278 385 246.035V171.965C386.696 171.722 388 170.263 388 168.5C388 166.567 386.433 165 384.5 165C383.458 165 382.523 165.455 381.882 166.177L371.928 159.207C371.975 158.979 372 158.742 372 158.5C372 156.737 370.696 155.278 369 155.035V101.965C370.696 101.722 372 100.263 372 98.5C372 96.7368 370.696 95.2781 369 95.0354V6.96457C370.696 6.72195 372 5.26321 372 3.5C372 1.56702 370.433 0 368.5 0C366.567 0 365 1.56702 365 3.5C365 5.26321 366.304 6.72195 368 6.96457V95.0354C367.161 95.1554 366.419 95.5726 365.882 96.1769L353.786 87.7073C353.925 87.3309 354 86.9243 354 86.5C354 84.7368 352.696 83.2781 351 83.0354V17H350V83.0354C348.304 83.2781 347 84.7368 347 86.5C347 88.433 348.567 90 350.5 90C351.649 90 352.668 89.4466 353.306 88.592L365.331 97.0119C365.119 97.4635 365 97.9679 365 98.5C365 100.263 366.304 101.722 368 101.965V155.035C366.304 155.278 365 156.737 365 158.5C365 160.433 366.567 162 368.5 162C369.825 162 370.978 161.264 371.572 160.178L381.331 167.012C381.119 167.464 381 167.968 381 168.5C381 170.263 382.304 171.722 384 171.965V246.035C382.304 246.278 381 247.737 381 249.5C381 251.263 382.304 252.722 384 252.965V307Z" fill="url(#paint0_radial)"/>
<path fill-rule="evenodd" clip-rule="evenodd" d="M201 0H202V51.0354C203.696 51.2781 205 52.7368 205 54.5C205 55.0321 204.881 55.5365 204.669 55.9881L214.428 62.8215C215.022 61.7361 216.175 61 217.5 61C219.433 61 221 62.567 221 64.5C221 66.2632 219.696 67.7219 218 67.9646V121.035C219.696 121.278 221 122.737 221 124.5C221 125.032 220.881 125.536 220.669 125.988L232.694 134.408C233.332 133.553 234.351 133 235.5 133C237.433 133 239 134.567 239 136.5C239 138.263 237.696 139.722 236 139.965V183H235V139.965C233.304 139.722 232 138.263 232 136.5C232 136.076 232.075 135.669 232.214 135.293L220.118 126.823C219.581 127.427 218.839 127.845 218 127.965V171H217V127.965C215.304 127.722 214 126.263 214 124.5C214 122.737 215.304 121.278 217 121.035V67.9646C215.304 67.7219 214 66.2632 214 64.5C214 64.2577 214.025 64.0211 214.072 63.7927L204.118 56.8231C203.477 57.5451 202.542 58 201.5 58C200.349 58 199.327 57.4441 198.689 56.586L187.377 64.5067C187.77 65.0723 188 65.7593 188 66.5C188 68.2632 186.696 69.7219 185 69.9646V193H184V69.9646C182.304 69.7219 181 68.2632 181 66.5C181 64.567 182.567 63 184.5 63C185.328 63 186.089 63.2876 186.688 63.7683L198.211 55.7C198.075 55.3257 198 54.9216 198 54.5C198 52.7368 199.304 51.2781 201 51.0354V0Z" fill="url(#paint1_radial)"/>
<path opacity="0.1" d="M13.4529 291.706C7.21914 287.788 7.21398 278.704 13.4432 274.779L211.798 149.788C215.053 147.737 219.194 147.735 222.451 149.782L420.547 274.294C426.781 278.212 426.786 287.296 420.557 291.221L222.202 416.212C218.947 418.263 214.805 418.265 211.549 416.218L13.4529 291.706Z" fill="url(#paint2_linear)"/>
<path d="M86.4783 180.076L114.104 164.01L113.987 207.957L86.3608 224.004L86.4783 180.076Z" fill="#EF8F00"/>
<path d="M86.6155 132.387L114.241 116.321L114.163 138.657L86.5567 154.704L86.6155 132.387Z" fill="#EF8F00"/>
<path d="M86.5567 154.703L114.163 138.657L144.669 156.251L117.063 172.317L86.5567 154.703Z" fill="#FFEA43"/>
<path d="M117.063 172.318L144.669 156.251L144.591 181.624L116.984 197.671L117.063 172.318Z" fill="#F1D814"/>
<path d="M119.767 126.098L147.392 110.051L147.314 135.424L119.688 151.471L119.767 126.098Z" fill="#F1D814"/>
<path d="M59.597 91.3595L87.2229 75.313L147.393 110.051L119.767 126.098L59.597 91.3595Z" fill="#FFEA43"/>
<path d="M119.767 126.097L119.688 151.47L86.6155 132.387L86.5567 154.703L117.063 172.317L116.984 197.67L86.4784 180.076L86.3608 224.003L59.2639 208.348L59.597 91.3594L119.767 126.097Z" fill="url(#paint3_linear)"/>
<path d="M176.331 254.568L203.957 238.521L198.726 257.467L171.12 273.514L176.331 254.568Z" fill="#EF8F00"/>
<path d="M182.111 231.938L209.737 215.892L231.387 228.392L203.781 244.438L182.111 231.938Z" fill="#FFEA43"/>
<path d="M192.926 187.736L220.533 171.69C220.102 174.159 219.279 178.175 218.025 183.7V183.857L190.379 199.904V199.747C191.685 194.222 192.528 190.218 192.907 187.736" fill="#EF8F00"/>
<path d="M192.495 187.972L217.966 183.857C216.693 189.441 214.047 200.1 209.717 215.872L182.111 231.938C186.422 216.173 191.294 193.563 192.495 187.972Z" fill="#EF8F00"/>
<path d="M174.431 157.759L202.057 141.693L238.774 162.893L211.148 178.959L174.431 157.759Z" fill="#FFEA43"/>
<path d="M211.148 178.958L238.774 162.892L272.082 299.807L244.456 315.853L211.148 178.958Z" fill="#F1D814"/>
<path d="M211.148 178.959L244.456 315.854L214.381 298.476L209.424 273.671L176.331 254.568L171.12 273.514L140.888 256.057L174.431 157.76L211.148 178.959ZM182.131 231.86L203.781 244.36L199.451 222.71C198.432 217.831 197.217 211.601 195.767 203.979C194.317 196.358 193.377 190.911 192.926 187.737C192.495 190.219 191.653 194.222 190.399 199.747C189.145 205.272 186.389 216.003 182.131 231.938" fill="url(#paint4_linear)"/>
<path d="M351.609 343.009L379.235 326.963L404 374.221L376.394 390.267L351.609 343.009Z" fill="#F1D814"/>
<path d="M364.464 296.698C364.041 296.841 363.604 296.942 363.16 296.999H362.895C362.434 297.03 361.971 297.03 361.509 296.999H361.347C360.828 296.981 360.311 296.934 359.798 296.859H359.635L357.984 296.497H357.801C357.192 296.328 356.594 296.127 356.008 295.893H355.865C355.234 295.652 354.582 295.35 353.828 295.028H353.705C353.013 294.686 352.279 294.304 351.546 293.861C350.812 293.418 349.793 292.835 348.978 292.272C348.184 291.728 347.43 291.165 346.696 290.582L346.492 290.421C345.759 289.817 345.08 289.193 344.455 288.55C343.742 287.886 343.069 287.182 342.417 286.538C341.785 285.834 341.195 285.109 340.624 284.365L340.461 284.164C339.972 283.52 339.503 282.836 339.055 282.152L338.464 281.226C338.036 280.522 337.608 279.818 337.201 279.094C336.712 278.189 336.264 277.283 335.836 276.318C335.408 275.392 335 274.426 334.634 273.42V273.28C334.267 272.294 333.941 271.268 333.615 270.242C333.626 270.155 333.626 270.067 333.615 269.98C333.329 268.974 333.065 267.968 332.8 266.942C332.8 266.801 332.8 266.661 332.8 266.52C332.555 265.494 332.331 264.508 332.148 263.401C332.148 263.22 332.148 263.039 332.046 262.858C331.842 261.752 331.679 260.625 331.516 259.458C331.373 258.331 331.271 257.185 331.17 256.038C331.17 255.696 331.17 255.354 331.17 255.012C331.17 254.107 331.047 253.181 331.007 252.236V251.149C331.007 249.862 331.007 248.534 331.007 247.125C330.996 246.951 330.996 246.777 331.007 246.602C331.007 245.556 331.007 244.59 331.007 243.585C331.007 243.323 331.007 243.061 331.007 242.8C331.007 241.814 331.108 240.788 331.19 239.943C331.19 239.098 331.353 238.293 331.455 237.529C331.455 237.267 331.455 237.026 331.557 236.764C331.659 236.503 331.699 235.758 331.781 235.255L331.903 234.491C331.903 234.048 332.086 233.606 332.168 233.183C332.25 232.761 332.27 232.72 332.311 232.519L332.677 231.171L332.8 230.709C332.963 230.145 333.146 229.582 333.35 229.059L333.472 228.737C333.635 228.314 333.818 227.892 334.002 227.51L334.206 227.087C334.45 226.625 334.674 226.202 334.939 225.8C334.981 225.699 335.036 225.605 335.102 225.518L335.53 224.935L335.836 224.492L336.325 223.969C336.423 223.845 336.532 223.731 336.651 223.627L337.221 223.124L337.507 222.862C337.799 222.643 338.106 222.441 338.423 222.259L309.102 238.374C307.289 238.374 308.46 238.751 308.165 238.977C308.065 239.052 307.97 239.133 307.88 239.219L307.309 239.722L306.983 240.064C306.816 240.236 306.66 240.417 306.515 240.607C306.375 240.724 306.246 240.852 306.127 240.989L305.7 241.573L305.577 241.774C305.333 242.176 305.088 242.599 304.864 243.061L304.742 243.283V243.484C304.558 243.886 304.395 244.289 304.232 244.711L304.11 244.973C303.927 245.516 303.743 246.059 303.56 246.643C303.56 246.763 303.56 246.904 303.458 247.025C303.336 247.447 303.214 247.91 303.112 248.373V248.554C303.112 248.715 303.112 248.896 303.112 249.037C303.112 249.479 302.928 249.902 302.847 250.344C302.847 250.465 302.847 250.566 302.847 250.686V251.129C302.847 251.612 302.684 252.115 302.623 252.618V253.101C302.623 253.101 302.623 253.282 302.623 253.382C302.623 254.167 302.439 254.972 302.378 255.817C302.378 256.722 302.256 257.688 302.215 258.674C302.215 258.794 302.215 258.895 302.215 259.016C302.225 259.163 302.225 259.311 302.215 259.458C302.215 260.444 302.215 261.47 302.215 262.476V262.999C302.215 264.226 302.215 265.413 302.215 266.58C302.215 266.721 302.215 266.842 302.215 266.962C302.215 267.083 302.215 267.707 302.215 268.069C302.215 268.431 302.215 269.276 302.215 269.859C302.215 270.443 302.215 270.503 302.215 270.825C302.215 271.147 302.215 271.509 302.215 271.851C302.215 272.193 302.215 272.455 302.215 272.736C302.215 273.602 302.378 274.426 302.5 275.271C302.5 276.036 302.704 276.78 302.826 277.525L303.01 278.651C303.01 278.832 303.01 279.013 303.01 279.195C303 279.335 303 279.476 303.01 279.617C303.132 280.261 303.254 280.905 303.397 281.528L303.58 282.313C303.58 282.454 303.58 282.595 303.682 282.735L303.805 283.258L304.232 284.888C304.232 285.19 304.416 285.472 304.497 285.773C304.488 285.86 304.488 285.948 304.497 286.035C304.486 286.128 304.486 286.223 304.497 286.317L304.925 287.664L305.353 288.872V289.073V289.214C305.353 289.475 305.537 289.737 305.638 289.998C305.74 290.26 305.903 290.682 306.046 291.004L306.474 291.99V292.131C306.596 292.392 306.698 292.634 306.82 292.875C306.942 293.117 307.126 293.519 307.289 293.821C307.452 294.123 307.656 294.545 307.859 294.907C308.117 295.39 308.382 295.853 308.654 296.295C308.797 296.557 308.96 296.778 309.123 297.02C309.286 297.261 309.51 297.643 309.714 297.945L310.06 298.508L310.916 299.695C310.977 299.787 311.045 299.875 311.12 299.957C311.172 300.021 311.22 300.088 311.262 300.158C311.405 300.339 311.547 300.54 311.71 300.721C311.873 300.903 312.118 301.245 312.342 301.486C312.566 301.727 312.77 302.009 312.994 302.25L313.544 302.854L314.257 303.598L315.032 304.343L315.867 305.107L316.764 305.872C316.89 305.99 317.027 306.098 317.171 306.194L317.355 306.355L317.701 306.636L318.699 307.381C319.005 307.622 319.331 307.823 319.637 308.045L320.737 308.749L321.898 309.453L322.163 309.614L323.121 310.137L324.262 310.72L325.138 311.143L326.116 311.545H326.239H326.361L327.033 311.807L327.909 312.088H328.154H328.337L328.745 312.189L329.56 312.37H329.988H330.151H330.375H331.17H331.985C332.269 312.391 332.556 312.391 332.84 312.37C332.976 312.381 333.112 312.381 333.248 312.37H333.533H333.778L334.837 312.088C335.307 311.93 335.758 311.721 336.182 311.465L364.912 294.988C364.839 295.574 364.688 296.149 364.464 296.698Z" fill="url(#paint5_linear)"/>
<path d="M401.335 281.605C401.335 280.155 401.238 278.725 401.14 277.295C401.042 275.865 400.944 274.689 400.826 273.376C400.709 272.064 400.571 270.947 400.434 269.752C400.297 268.556 400.121 267.479 399.944 266.362C399.768 265.245 399.592 264.226 399.396 263.168C399.2 262.11 399.004 261.209 398.788 260.131C398.573 259.054 398.357 258.172 398.122 257.271C397.887 256.37 397.652 255.449 397.397 254.548C397.143 253.646 396.907 252.843 396.653 252C396.398 251.158 396.143 250.394 395.889 249.591C395.634 248.787 395.379 248.101 395.105 247.357C394.831 246.612 394.596 245.946 394.321 245.261C394.047 244.575 393.792 243.948 393.518 243.301C393.244 242.655 392.989 242.028 392.715 241.342C392.44 240.656 392.146 240.068 391.833 239.383C391.519 238.697 391.206 238.07 390.892 237.423C390.579 236.777 390.128 235.934 389.737 235.19L388.992 233.818C388.659 233.23 388.326 232.623 387.973 232.035C386.954 230.311 385.896 228.607 384.76 226.941C384.074 225.922 383.349 224.982 382.605 223.904C381.86 222.827 381.527 222.454 380.978 221.749C380.43 221.044 379.94 220.476 379.431 219.79L377.863 217.948C377.315 217.321 376.746 216.714 376.198 216.106L374.376 214.147C373.729 213.481 373.063 212.815 372.416 212.188C371.77 211.561 370.967 210.816 370.222 210.228L367.851 208.152L365.285 206.055C364.383 205.35 363.462 204.664 362.542 203.978C361.621 203.293 360.582 202.568 359.603 201.902C358.623 201.235 357.526 200.491 356.468 199.805C355.41 199.119 354.195 198.414 353.039 197.728L352.216 197.238L349.591 195.769C348.533 195.201 347.494 194.652 346.475 194.162C345.457 193.673 344.516 193.241 343.635 192.81C342.753 192.379 341.871 192.046 341.009 191.713C340.147 191.38 339.383 191.067 338.599 190.792C337.815 190.518 337.071 190.263 336.307 190.048C335.543 189.832 334.857 189.617 334.152 189.44C333.446 189.264 332.741 189.107 332.055 188.99L330.096 188.637C329.41 188.637 328.744 188.48 328.137 188.441C327.529 188.402 326.785 188.441 326.177 188.441C325.57 188.441 324.767 188.441 324.081 188.539C323.318 188.61 322.559 188.722 321.808 188.872C320.902 189.042 320.011 189.285 319.143 189.597C318.049 189.973 316.993 190.452 315.989 191.027L288.383 207.094C289.375 206.504 290.426 206.018 291.518 205.644C292.385 205.331 293.276 205.089 294.182 204.919C294.895 204.785 295.614 204.687 296.337 204.625C297.023 204.625 297.709 204.625 298.414 204.625C299.12 204.625 299.747 204.625 300.374 204.625C301 204.625 301.706 204.742 302.333 204.84C302.96 204.938 303.685 205.036 304.292 205.174C304.899 205.311 305.664 205.448 306.369 205.624L308.544 206.232C309.288 206.467 310.052 206.702 310.816 206.976C311.581 207.25 312.423 207.564 313.246 207.897C314.069 208.23 314.97 208.602 315.852 208.994C316.734 209.386 317.811 209.856 318.693 210.346C319.575 210.836 320.75 211.384 321.808 211.953L324.453 213.422L325.276 213.912C326.432 214.598 327.568 215.283 328.685 216.008C329.802 216.733 330.801 217.38 331.84 218.085C332.878 218.791 333.799 219.457 334.759 220.162C335.719 220.867 336.601 221.534 337.502 222.239C338.403 222.944 339.226 223.63 340.069 224.335C340.911 225.041 341.675 225.707 342.459 226.412C343.243 227.118 343.928 227.764 344.634 228.371C345.339 228.979 345.986 229.684 346.593 230.331C347.2 230.977 347.827 231.585 348.415 232.29C349.003 232.995 349.532 233.505 350.081 234.132C350.629 234.759 351.139 235.347 351.648 235.973C352.157 236.6 352.686 237.227 353.196 237.933L354.842 240.088C355.586 241.087 356.292 242.047 356.997 243.125C358.114 244.79 359.191 246.495 360.21 248.219L361.209 250.002L361.973 251.393C362.365 252.118 362.738 252.863 363.11 253.607C363.482 254.352 363.756 254.92 364.07 255.566C364.383 256.213 364.658 256.84 364.932 257.526L365.755 259.485C366.029 260.151 366.284 260.798 366.539 261.444C366.793 262.091 367.068 262.835 367.322 263.541C367.577 264.246 367.851 265.03 368.106 265.774C368.361 266.519 368.635 267.381 368.87 268.184C369.105 268.987 369.38 269.889 369.634 270.731L370.34 273.455C370.575 274.415 370.79 275.414 371.006 276.335C371.221 277.256 371.437 278.294 371.613 279.352C371.789 280.41 372.005 281.468 372.162 282.546C372.318 283.623 372.514 284.799 372.652 285.935C372.789 287.072 372.945 288.345 373.063 289.56C373.181 290.775 373.279 292.146 373.357 293.479C373.435 294.811 373.514 296.339 373.572 297.789C373.631 299.239 373.572 300.747 373.572 302.237V302.53C373.572 304.157 373.572 305.763 373.455 307.291C373.337 308.82 373.298 310.172 373.2 311.563C373.102 312.954 372.965 314.149 372.808 315.383C372.652 316.618 372.475 317.754 372.279 318.89C372.083 320.027 371.868 321.085 371.633 322.123C371.398 323.162 371.143 324.083 370.849 325.141C370.555 326.199 370.242 327.1 369.909 328.04C369.575 328.981 369.125 330 368.674 330.94C368.186 331.988 367.63 333.002 367.009 333.977C365.347 336.713 363.039 339 360.288 340.639L387.895 324.592C390.645 322.947 392.958 320.662 394.635 317.93C395.248 316.951 395.805 315.937 396.3 314.894C396.731 313.973 397.143 312.934 397.515 311.994C397.887 311.053 398.181 310.034 398.475 309.094C398.769 308.154 399.024 307.135 399.259 306.057C399.494 304.98 399.709 303.941 399.905 302.844C400.101 301.747 400.277 300.552 400.415 299.337C400.552 298.122 400.709 296.829 400.806 295.418C400.904 294.008 401.002 292.636 401.081 291.167C401.159 289.697 401.179 288.032 401.179 286.405V286.112C401.394 284.544 401.375 282.996 401.335 281.605Z" fill="#FFEA43"/>
<path d="M351.609 343.01L376.394 390.268L342.126 370.48L324.218 334.076C308.83 325.299 296.103 312.524 287.383 297.104C278.893 281.9 274.681 264.45 274.746 244.752C274.746 225.277 279.024 212.868 287.579 207.526C296.135 202.184 308.465 204.143 324.571 213.404C339.97 221.967 352.704 234.619 361.366 249.964C369.7 264.998 373.84 282.377 373.788 302.101C373.71 328.551 366.317 342.188 351.609 343.01ZM339.677 308.155C343.06 304.589 344.771 296.993 344.81 285.368C344.81 273.613 343.145 264.071 339.755 256.528C336.647 249.308 331.295 243.283 324.492 239.345C310.699 231.39 303.776 238.822 303.724 261.641C303.672 284.46 310.483 299.73 324.159 307.449C331.134 311.472 336.307 311.708 339.677 308.155Z" fill="url(#paint6_linear)"/>
<path opacity="0.1" fill-rule="evenodd" clip-rule="evenodd" d="M304.644 171.598L285.474 182.832L313.296 214L285.474 182.832L281.35 189.132L276.726 185.533L249 188.831L313.296 214L304.644 171.598Z" fill="white"/>
<path opacity="0.1" d="M59.212 342.464L25.956 338.687L104.327 309.613L93.7535 358.595L72.5227 346.831L64.4368 356.313L59.212 342.464Z" fill="white"/>
<path fill-rule="evenodd" clip-rule="evenodd" d="M279.461 351C277.528 351 275.961 349.433 275.961 347.5C275.961 345.567 277.528 344 279.461 344C281.394 344 282.961 345.567 282.961 347.5C282.961 348.12 282.799 348.703 282.516 349.208L315.195 372.09L314.821 372.624L314.961 372.839L294.64 386.035C294.846 386.481 294.961 386.977 294.961 387.5C294.961 388.472 294.565 389.352 293.925 389.986L355.312 432.97C355.88 431.804 357.077 431 358.461 431C359.397 431 360.247 431.367 360.875 431.966L422.416 392L422.961 392.839L361.495 432.755C361.792 433.269 361.961 433.864 361.961 434.5C361.961 435.446 361.585 436.305 360.975 436.935L413.961 474.036L413.387 474.856L360.14 437.572C359.642 437.845 359.069 438 358.461 438C356.528 438 354.961 436.433 354.961 434.5C354.961 434.321 354.974 434.145 355 433.973L293.07 390.609C292.589 390.859 292.041 391 291.461 391C290.412 391 289.471 390.539 288.83 389.808L233.825 425.529C233.913 425.837 233.961 426.163 233.961 426.5C233.961 427.326 233.675 428.086 233.196 428.684L297.961 474.033L297.387 474.852L232.448 429.382C231.884 429.772 231.199 430 230.461 430C229.602 430 228.816 429.691 228.207 429.177L191.6 452.95C191.831 453.417 191.961 453.944 191.961 454.5C191.961 456.433 190.394 458 188.461 458C186.528 458 184.961 456.433 184.961 454.5C184.961 454.079 185.035 453.675 185.172 453.301L158.329 434.506C157.697 435.409 156.648 436 155.461 436C154.481 436 153.595 435.597 152.96 434.949L90.5446 475.482L90 474.643L152.368 434.141C152.108 433.651 151.961 433.093 151.961 432.5C151.961 431.752 152.195 431.059 152.595 430.491L122.448 409.382C121.884 409.772 121.199 410 120.461 410C118.528 410 116.961 408.433 116.961 406.5C116.961 404.567 118.528 403 120.461 403C121.595 403 122.603 403.539 123.243 404.376L182.307 366.019C182.085 365.56 181.961 365.044 181.961 364.5C181.961 362.567 183.528 361 185.461 361C187.394 361 188.961 362.567 188.961 364.5C188.961 366.433 187.394 368 185.461 368C184.432 368 183.506 367.556 182.866 366.849L123.731 405.251C123.88 405.639 123.961 406.06 123.961 406.5C123.961 407.326 123.675 408.086 123.196 408.684L153.289 429.755C153.886 429.282 154.64 429 155.461 429C157.394 429 158.961 430.567 158.961 432.5C158.961 432.885 158.899 433.256 158.784 433.603L185.65 452.415C186.287 451.556 187.309 451 188.461 451C189.478 451 190.393 451.434 191.033 452.126L227.535 428.421C227.172 427.87 226.961 427.21 226.961 426.5C226.961 424.567 228.528 423 230.461 423C231.697 423 232.784 423.641 233.406 424.608L288.284 388.971C288.077 388.523 287.961 388.025 287.961 387.5C287.961 385.567 289.528 384 291.461 384C292.512 384 293.454 384.463 294.096 385.196L313.849 372.368L281.907 350.003C281.276 350.62 280.413 351 279.461 351Z" fill="url(#paint7_radial)"/>
<defs>
<radialGradient id="paint0_radial" cx="0" cy="0" r="1" gradientUnits="userSpaceOnUse" gradientTransform="translate(360.356 164.464) rotate(-89.4239) scale(154.461 43.9599)">
<stop stop-color="#70E5FF"/>
<stop offset="0.14381" stop-color="#0099FF"/>
<stop offset="1" stop-color="#01194F" stop-opacity="0"/>
</radialGradient>
<radialGradient id="paint1_radial" cx="0" cy="0" r="1" gradientUnits="userSpaceOnUse" gradientTransform="translate(220.106 89.6071) rotate(91.2962) scale(97.1242 62.1744)">
<stop stop-color="#70E5FF"/>
<stop offset="0.14381" stop-color="#0099FF"/>
<stop offset="1" stop-color="#01194F" stop-opacity="0"/>
</radialGradient>
<linearGradient id="paint2_linear" x1="325.625" y1="174.375" x2="108.375" y2="391.625" gradientUnits="userSpaceOnUse">
<stop offset="0.0034284" stop-color="#0099FF"/>
<stop offset="1" stop-color="#66CCFF"/>
</linearGradient>
<linearGradient id="paint3_linear" x1="119.767" y1="157.681" x2="59.2639" y2="157.681" gradientUnits="userSpaceOnUse">
<stop stop-color="#FF9900"/>
<stop offset="1" stop-color="#FFE91A"/>
</linearGradient>
<linearGradient id="paint4_linear" x1="244.456" y1="236.807" x2="140.888" y2="236.807" gradientUnits="userSpaceOnUse">
<stop stop-color="#FF9900"/>
<stop offset="1" stop-color="#FFE91A"/>
</linearGradient>
<linearGradient id="paint5_linear" x1="333.564" y1="222.259" x2="333.564" y2="312.386" gradientUnits="userSpaceOnUse">
<stop stop-color="#EF8F00"/>
<stop offset="1" stop-color="#FFEA43"/>
</linearGradient>
<linearGradient id="paint6_linear" x1="376.394" y1="297.431" x2="274.745" y2="297.431" gradientUnits="userSpaceOnUse">
<stop stop-color="#FF9900"/>
<stop offset="1" stop-color="#FFE91A"/>
</linearGradient>
<radialGradient id="paint7_radial" cx="0" cy="0" r="1" gradientUnits="userSpaceOnUse" gradientTransform="translate(291.961 387) rotate(87.2737) scale(84.0952 437.953)">
<stop stop-color="#70E5FF"/>
<stop offset="0.14381" stop-color="#0099FF"/>
<stop offset="1" stop-color="#01194F" stop-opacity="0"/>
</radialGradient>
</defs>
</svg>
